<svg version="1.1" id="Layer_1" xmlns="http://www.w3.org/2000/svg" xmlns:xlink="http://www.w3.org/1999/xlink" x="0px" y="0px"
	 width="100%" viewBox="0 0 512 512" enable-background="new 0 0 512 512" xml:space="preserve">
<path fill="#502C2C" opacity="1.000000" stroke="none" 
	d="
M96.468658,513.000000 
	C95.669228,496.210083 95.007957,479.417267 95.155365,462.631531 
	C95.223045,454.923920 96.037003,447.006073 98.015343,439.584137 
	C100.799629,429.138672 109.284531,423.076019 118.383522,418.364319 
	C145.259506,404.447327 173.349411,393.342682 201.825836,383.205017 
	C216.179138,378.095154 221.553894,371.063385 222.012329,356.002350 
	C222.350998,344.875519 222.622986,333.746246 223.039398,322.622406 
	C223.144760,319.807526 222.041763,318.323761 219.664673,316.701538 
	C211.607910,311.203125 203.913513,305.176666 195.946579,299.541504 
	C194.182968,298.294098 191.907364,297.244965 189.802505,297.108765 
	C184.492798,296.765137 179.120911,296.659393 173.818954,297.057709 
	C159.703659,298.118164 148.682343,291.762054 139.134766,282.487793 
	C129.122864,272.762451 120.013527,262.094086 109.832352,252.561325 
	C101.516113,244.774750 92.887253,236.916748 83.198273,231.080475 
	C57.915924,215.851349 53.252300,193.434677 60.965111,168.364838 
	C69.071724,142.014969 84.638351,121.108871 109.664307,108.084785 
	C124.261604,100.488022 133.865982,88.129776 141.035507,73.770126 
	C147.785370,60.251007 153.880844,46.404919 160.643494,32.892490 
	C167.079819,20.032093 177.578934,11.518338 190.976761,6.538281 
	C195.575134,4.829025 200.253967,3.336202 204.948029,1.372250 
	C220.020889,1.000000 235.041794,1.000000 250.606628,1.393915 
	C255.221771,3.351057 259.269806,4.565807 263.000000,1.000000 
	C278.020905,1.000000 293.041779,1.000000 308.531342,1.000002 
	C310.121552,1.699935 311.158966,2.761564 312.377411,3.045109 
	C328.566437,6.812520 342.302887,14.806821 351.101044,28.944088 
	C357.460724,39.163155 362.004730,50.546791 366.995544,61.575298 
	C375.101410,79.487320 384.290497,96.678566 402.051697,106.822739 
	C411.937744,112.469055 421.673187,118.127510 429.175751,126.754128 
	C446.348785,146.500076 458.271576,168.516510 455.872681,195.748169 
	C454.624603,209.915909 446.800079,220.841583 435.044586,228.124054 
	C420.681519,237.021912 407.808990,247.487579 395.964691,259.440704 
	C386.484894,269.007599 376.938568,278.554474 366.831635,287.438873 
	C359.330811,294.032379 350.245239,298.455994 339.894806,296.866333 
	C326.405151,294.794495 315.944427,299.543762 306.582397,308.773560 
	C303.341400,311.968750 299.063904,314.247406 294.973236,316.400055 
	C292.091949,317.916321 290.752625,319.578156 290.941925,322.923096 
	C291.719879,336.668274 292.135406,350.435150 293.014740,364.172913 
	C293.498718,371.734528 298.344116,376.923340 304.788116,379.703156 
	C318.944427,385.809937 333.618195,390.726288 347.724426,396.937744 
	C365.921204,404.950317 384.133301,413.076477 401.632172,422.470123 
	C412.181183,428.132996 417.944763,438.154602 418.058044,450.823090 
	C418.193268,465.947693 418.777466,481.068115 418.928772,496.192749 
	C418.981720,501.483429 418.327301,506.781158 417.997955,512.537842 
	C310.979095,513.000000 203.958206,513.000000 96.468658,513.000000 
M365.416565,272.759827 
	C365.653839,272.513855 365.891113,272.267883 366.612671,271.634796 
	C367.754364,270.480774 368.896057,269.326782 370.696747,267.973846 
	C371.836609,267.018158 373.105103,266.179504 374.097137,265.089294 
	C390.517181,247.043793 407.949188,230.252625 429.182495,217.731125 
	C440.392792,211.120285 445.761841,200.101181 444.495728,187.677628 
	C441.493256,158.216278 427.078949,135.185516 401.259918,120.221794 
	C387.393829,112.185562 375.262054,102.582016 367.683472,88.349106 
	C359.940430,73.807396 352.504517,59.059662 345.818848,44.009125 
	C338.822235,28.258688 327.076996,19.064989 310.736664,14.863088 
	C294.887360,10.787457 279.064301,12.140324 263.157196,14.342510 
	C259.104401,14.903581 254.855743,14.839014 250.785736,14.339478 
	C238.221085,12.797344 225.727325,11.177425 213.010391,12.965809 
	C192.565872,15.840926 176.546524,24.426285 167.963928,44.510597 
	C162.277130,57.818371 155.654449,70.744102 149.063385,83.642937 
	C141.208221,99.015610 129.751312,111.038551 114.388260,119.205788 
	C90.774429,131.759277 77.354156,152.206985 70.802353,177.360611 
	C65.801437,196.560059 72.099083,210.420380 89.044113,220.498581 
	C104.842087,229.894547 117.552315,242.767242 130.104568,255.957001 
	C138.447876,264.724091 147.248108,273.159363 156.578232,280.852478 
	C164.345459,287.256927 173.937256,285.325134 183.870102,284.533630 
	C181.542862,280.718506 179.262589,277.935059 178.019547,274.747223 
	C175.288239,267.742554 171.015625,263.990875 163.110718,265.098602 
	C162.383347,261.724060 161.655960,258.349548 161.783875,254.982941 
	C163.711868,254.982941 165.639862,254.982941 167.777390,254.982941 
	C165.643753,247.127106 163.696396,239.955124 161.746567,232.783813 
	C161.659393,232.463257 161.644714,232.052246 161.435608,231.847366 
	C160.301514,230.736252 159.267685,229.410873 157.922256,228.647751 
	C153.302948,226.027634 148.558945,223.628265 143.881104,221.110168 
	C140.734192,219.416153 138.875427,216.936935 140.643417,213.381165 
	C142.478210,209.690994 145.568359,209.304398 149.066498,211.160034 
	C152.172546,212.807678 155.282562,214.447830 158.789886,216.302307 
	C158.506241,211.107056 157.965363,206.789124 158.132034,202.498642 
	C158.267242,199.018372 156.496948,198.298401 153.725906,197.997910 
	C145.707962,197.128448 139.494873,201.711868 136.974442,210.442841 
	C132.831680,224.793716 139.221970,241.148071 152.557724,252.295197 
	C149.406219,254.546951 146.254730,256.798706 142.793854,258.444458 
	C129.933670,246.510544 123.545784,232.020050 124.921646,214.264542 
	C126.146835,198.453476 137.707611,185.487137 153.242126,186.860947 
	C154.593262,186.980423 155.986328,186.625549 157.359924,186.491028 
	C156.363907,184.674683 155.174637,183.938477 153.920349,183.338120 
	C146.477127,179.775375 140.915283,174.116776 136.393082,167.388855 
	C134.356186,164.358459 133.790634,161.001587 137.220078,158.531448 
	C140.763229,155.979431 143.448853,157.763763 145.579086,160.907471 
	C146.326599,162.010620 146.915161,163.347488 147.924835,164.125076 
	C152.217743,167.431152 156.212753,172.176132 161.094269,173.476807 
	C178.692780,178.165909 192.878387,170.058029 199.196518,152.915558 
	C201.212616,147.445480 202.984421,141.883438 205.076889,136.443817 
	C208.941437,126.397522 216.227921,120.469643 226.955521,119.054543 
	C233.220764,118.228081 239.520325,117.664749 245.800064,116.944595 
	C253.718933,116.036453 261.587555,115.601524 267.748657,109.032959 
	C271.319550,105.225952 277.292328,107.065018 279.855072,111.984398 
	C280.842041,113.879005 281.141388,116.120033 282.011536,118.089424 
	C284.961395,124.765854 287.602814,131.638428 291.261139,137.911774 
	C292.675354,140.336945 296.419312,142.610168 299.233154,142.780167 
	C306.858521,143.240891 312.647339,146.135437 316.972809,152.318634 
	C320.526489,157.398590 325.428253,159.741913 331.623993,159.009338 
	C336.245514,158.462906 340.825348,157.484268 345.456970,157.120026 
	C355.045013,156.365936 361.321564,151.840775 363.775116,142.300476 
	C364.646088,138.913834 366.739594,136.383957 370.643707,137.564407 
	C374.529266,138.739258 375.393829,141.856857 374.521667,145.588425 
	C372.819733,152.870468 369.496796,160.052643 362.740875,162.742310 
	C353.176544,166.550064 352.945679,172.293106 354.744873,180.724579 
	C355.759979,185.481598 357.030792,187.227249 361.934784,186.994720 
	C373.452484,186.448654 381.133636,192.412994 385.938446,202.459625 
	C390.077545,211.114243 389.865784,220.267807 388.272522,229.395676 
	C386.179260,241.388062 379.242767,250.683762 370.369171,258.679993 
	C367.202728,256.436951 364.036255,254.193924 361.316345,251.442886 
	C374.528534,241.974960 381.193634,224.443878 376.976288,210.252731 
	C373.926544,199.990372 365.781891,195.664429 356.204865,199.356339 
	C355.874023,204.850281 355.539368,210.406891 355.159393,216.716064 
	C359.070709,214.676590 362.418945,212.947372 365.751434,211.188431 
	C369.225525,209.354782 372.293640,209.626373 374.192139,213.331772 
	C376.029175,216.917160 374.159149,219.374619 371.041260,221.074539 
	C366.084198,223.777222 361.061707,226.360336 356.118378,229.087372 
	C354.853516,229.785126 353.084778,230.618256 352.734406,231.755020 
	C350.417816,239.270905 348.424988,246.886566 346.180786,254.997162 
	C348.782867,254.997162 350.919464,254.997162 352.956055,255.716446 
	C351.183105,258.910614 348.574005,261.932251 349.996918,266.024933 
	C346.950745,266.150055 342.354645,265.064484 341.139557,266.619965 
	C336.954529,271.977600 333.950775,278.257904 330.379517,284.388336 
	C345.790680,286.955902 357.914490,282.783020 364.933807,272.896942 
	C364.933807,272.896942 364.935638,272.945496 365.416565,272.759827 
M187.624146,269.152557 
	C194.243805,277.424530 200.038513,286.566071 207.652725,293.789764 
	C224.142593,309.433899 244.066360,316.973328 266.998535,313.313599 
	C294.580566,308.911713 312.984650,291.760162 326.962341,268.163269 
	C327.142151,267.873840 327.228485,267.558807 327.766144,266.799316 
	C344.183929,236.106277 348.300903,203.710556 341.784760,169.585358 
	C340.543396,169.646286 339.885315,169.612488 339.250946,169.719467 
	C325.909210,171.969406 314.488861,169.467209 306.361084,157.396042 
	C305.168701,155.625137 301.826599,154.489700 299.467102,154.469482 
	C292.497253,154.409714 287.102814,151.492233 283.238342,146.123688 
	C280.059021,141.706955 277.527496,136.787170 275.044006,131.919373 
	C273.409698,128.716095 272.370483,125.209229 271.332825,122.530373 
	C265.398163,124.192192 259.965698,126.219688 254.351044,127.164612 
	C246.321976,128.515839 238.167618,129.156677 230.051987,129.949600 
	C222.181213,130.718613 217.338501,134.916382 214.858688,142.337738 
	C212.752579,148.640686 210.715500,155.017380 207.943039,161.036804 
	C201.414673,175.210846 190.749283,184.074432 174.662354,185.362228 
	C173.069031,185.489761 171.493073,185.833969 170.017014,186.061005 
	C170.017014,195.647308 169.337082,204.843323 170.158508,213.903229 
	C171.870361,232.784058 176.847000,250.816711 186.821732,267.706299 
	C186.918228,268.023376 187.086975,268.295685 187.624146,269.152557 
M121.806671,430.261261 
	C112.560448,434.442078 108.741211,442.152100 107.998146,451.755157 
	C107.304672,460.717499 106.485214,469.685089 106.258247,478.663910 
	C106.067024,486.228607 106.646980,493.812805 106.899429,501.828522 
	C109.935913,501.828522 112.075783,501.828491 114.215652,501.828491 
	C172.042786,501.828491 229.869919,501.828583 287.697052,501.828461 
	C325.526337,501.828400 363.355865,501.767700 401.184601,501.911865 
	C405.432983,501.928070 407.143127,500.858246 407.071716,496.367188 
	C406.881226,484.388123 406.791840,472.392792 407.202820,460.422516 
	C407.739532,444.789886 400.723389,434.713257 386.913086,427.538757 
	C363.168457,415.203400 338.434998,405.495758 313.214050,396.817749 
	C310.532990,395.895294 309.338104,396.693817 308.069794,398.906219 
	C302.850342,408.010773 297.574432,417.085236 292.167542,426.079590 
	C283.611267,440.312866 270.893585,447.589813 254.344391,446.839661 
	C238.230804,446.109192 226.401398,438.054779 219.079269,423.552612 
	C214.288345,414.063721 209.421341,404.613251 204.395157,394.766998 
	C176.329071,405.410400 148.552063,415.682678 121.806671,430.261261 
M230.367279,421.000305 
	C242.565308,439.116333 266.961243,441.232727 279.417786,424.466705 
	C287.090973,414.138916 292.974731,402.481659 299.771271,391.240448 
	C298.523010,390.314758 297.786835,389.688232 296.976410,389.180084 
	C287.339783,383.137421 281.520660,374.727631 280.831024,363.148956 
	C280.435638,356.510223 279.947906,349.872223 279.768768,343.226715 
	C279.585419,336.425201 279.728180,329.614929 279.728180,322.989594 
	C271.981201,323.820862 264.598175,325.236145 257.216003,325.231689 
	C249.682755,325.227142 242.150345,323.827881 233.974594,322.971893 
	C233.974594,334.021454 234.127533,345.159210 233.936371,356.291046 
	C233.690170,370.626556 228.998184,382.703552 215.733780,390.105347 
	C215.510086,390.230133 215.448090,390.644714 215.231384,391.085175 
	C220.139603,400.779297 225.091736,410.560150 230.367279,421.000305 
z"/>
<path fill="#000000" opacity="1.000000" stroke="none" 
	d="
M262.539368,1.000000 
	C259.269806,4.565807 255.221771,3.351057 251.075287,1.393915 
	C254.692917,1.000000 258.385834,1.000000 262.539368,1.000000 
z"/>
<path fill="#915049" opacity="1.000000" stroke="none" 
	d="
M163.158783,265.963165 
	C171.015625,263.990875 175.288239,267.742554 178.019547,274.747223 
	C179.262589,277.935059 181.542862,280.718506 183.870102,284.533630 
	C173.937256,285.325134 164.345459,287.256927 156.578232,280.852478 
	C147.248108,273.159363 138.447876,264.724091 130.104568,255.957001 
	C117.552315,242.767242 104.842087,229.894547 89.044113,220.498581 
	C72.099083,210.420380 65.801437,196.560059 70.802353,177.360611 
	C77.354156,152.206985 90.774429,131.759277 114.388260,119.205788 
	C129.751312,111.038551 141.208221,99.015610 149.063385,83.642937 
	C155.654449,70.744102 162.277130,57.818371 167.963928,44.510597 
	C176.546524,24.426285 192.565872,15.840926 213.010391,12.965809 
	C225.727325,11.177425 238.221085,12.797344 250.785736,14.339478 
	C254.855743,14.839014 259.104401,14.903581 263.157196,14.342510 
	C279.064301,12.140324 294.887360,10.787457 310.736664,14.863088 
	C327.076996,19.064989 338.822235,28.258688 345.818848,44.009125 
	C352.504517,59.059662 359.940430,73.807396 367.683472,88.349106 
	C375.262054,102.582016 387.393829,112.185562 401.259918,120.221794 
	C427.078949,135.185516 441.493256,158.216278 444.495728,187.677628 
	C445.761841,200.101181 440.392792,211.120285 429.182495,217.731125 
	C407.949188,230.252625 390.517181,247.043793 374.097137,265.089294 
	C373.105103,266.179504 371.836609,267.018158 370.410217,267.657135 
	C370.381165,264.589813 370.638611,261.839172 370.896057,259.088562 
	C379.242767,250.683762 386.179260,241.388062 388.272522,229.395676 
	C389.865784,220.267807 390.077545,211.114243 385.938446,202.459625 
	C381.133636,192.412994 373.452484,186.448654 361.934784,186.994720 
	C357.030792,187.227249 355.759979,185.481598 354.744873,180.724579 
	C352.945679,172.293106 353.176544,166.550064 362.740875,162.742310 
	C369.496796,160.052643 372.819733,152.870468 374.521667,145.588425 
	C375.393829,141.856857 374.529266,138.739258 370.643707,137.564407 
	C366.739594,136.383957 364.646088,138.913834 363.775116,142.300476 
	C361.321564,151.840775 355.045013,156.365936 345.456970,157.120026 
	C340.825348,157.484268 336.245514,158.462906 331.623993,159.009338 
	C325.428253,159.741913 320.526489,157.398590 316.972809,152.318634 
	C312.647339,146.135437 306.858521,143.240891 299.233154,142.780167 
	C296.419312,142.610168 292.675354,140.336945 291.261139,137.911774 
	C287.602814,131.638428 284.961395,124.765854 282.011536,118.089424 
	C281.141388,116.120033 280.842041,113.879005 279.855072,111.984398 
	C277.292328,107.065018 271.319550,105.225952 267.748657,109.032959 
	C261.587555,115.601524 253.718933,116.036453 245.800064,116.944595 
	C239.520325,117.664749 233.220764,118.228081 226.955521,119.054543 
	C216.227921,120.469643 208.941437,126.397522 205.076889,136.443817 
	C202.984421,141.883438 201.212616,147.445480 199.196518,152.915558 
	C192.878387,170.058029 178.692780,178.165909 161.094269,173.476807 
	C156.212753,172.176132 152.217743,167.431152 147.924835,164.125076 
	C146.915161,163.347488 146.326599,162.010620 145.579086,160.907471 
	C143.448853,157.763763 140.763229,155.979431 137.220078,158.531448 
	C133.790634,161.001587 134.356186,164.358459 136.393082,167.388855 
	C140.915283,174.116776 146.477127,179.775375 153.920349,183.338120 
	C155.174637,183.938477 156.363907,184.674683 157.359924,186.491028 
	C155.986328,186.625549 154.593262,186.980423 153.242126,186.860947 
	C137.707611,185.487137 126.146835,198.453476 124.921646,214.264542 
	C123.545784,232.020050 129.933670,246.510544 142.954468,259.169373 
	C142.971634,266.859253 145.641632,271.281830 150.829056,272.671539 
	C155.782150,273.998505 159.713165,271.859711 163.158783,265.963165 
z"/>
<path fill="#AD7698" opacity="1.000000" stroke="none" 
	d="
M122.127472,430.086975 
	C148.552063,415.682678 176.329071,405.410400 204.395157,394.766998 
	C209.421341,404.613251 214.288345,414.063721 219.079269,423.552612 
	C226.401398,438.054779 238.230804,446.109192 254.344391,446.839661 
	C270.893585,447.589813 283.611267,440.312866 292.167542,426.079590 
	C297.574432,417.085236 302.850342,408.010773 308.069794,398.906219 
	C309.338104,396.693817 310.532990,395.895294 313.214050,396.817749 
	C338.434998,405.495758 363.168457,415.203400 386.913086,427.538757 
	C400.723389,434.713257 407.739532,444.789886 407.202820,460.422516 
	C406.791840,472.392792 406.881226,484.388123 407.071716,496.367188 
	C407.143127,500.858246 405.432983,501.928070 401.184601,501.911865 
	C363.355865,501.767700 325.526337,501.828400 287.697052,501.828461 
	C229.869919,501.828583 172.042786,501.828491 114.215652,501.828491 
	C112.075783,501.828491 109.935913,501.828522 106.899429,501.828522 
	C106.646980,493.812805 106.067024,486.228607 106.258247,478.663910 
	C106.485214,469.685089 107.304672,460.717499 107.998146,451.755157 
	C108.741211,442.152100 112.560448,434.442078 122.127472,430.086975 
M248.216446,471.077271 
	C245.937424,475.289948 245.939880,479.467499 249.035309,483.193451 
	C251.670532,486.365417 255.243179,487.712830 259.343933,486.528015 
	C263.754364,485.253754 266.472290,482.258209 266.937439,477.627472 
	C267.403931,472.983368 265.357483,469.417145 261.203857,467.459351 
	C256.393555,465.192017 252.132568,466.408722 248.216446,471.077271 
z"/>
<path fill="#FBD0C8" opacity="1.000000" stroke="none" 
	d="
M326.647858,268.544708 
	C312.984650,291.760162 294.580566,308.911713 266.998535,313.313599 
	C244.066360,316.973328 224.142593,309.433899 207.652725,293.789764 
	C200.038513,286.566071 194.243805,277.424530 187.647491,268.713715 
	C187.670853,268.274872 187.996155,268.003815 188.284988,268.172058 
	C194.956833,274.628265 202.118515,278.319550 211.458359,275.880157 
	C222.222382,273.068756 228.886063,262.376831 226.852264,250.777542 
	C225.051941,240.509750 214.492691,233.090149 203.012039,234.025940 
	C192.886185,234.851288 184.800842,243.698349 185.018417,254.325943 
	C185.105087,258.559235 186.317017,262.769440 186.953369,267.048676 
	C186.890045,267.107178 186.763748,267.224518 186.763748,267.224518 
	C176.847000,250.816711 171.870361,232.784058 170.158508,213.903229 
	C169.337082,204.843323 170.017014,195.647308 170.017014,186.061005 
	C171.493073,185.833969 173.069031,185.489761 174.662354,185.362228 
	C190.749283,184.074432 201.414673,175.210846 207.943039,161.036804 
	C210.715500,155.017380 212.752579,148.640686 214.858688,142.337738 
	C217.338501,134.916382 222.181213,130.718613 230.051987,129.949600 
	C238.167618,129.156677 246.321976,128.515839 254.351044,127.164612 
	C259.965698,126.219688 265.398163,124.192192 271.332825,122.530373 
	C272.370483,125.209229 273.409698,128.716095 275.044006,131.919373 
	C277.527496,136.787170 280.059021,141.706955 283.238342,146.123688 
	C287.102814,151.492233 292.497253,154.409714 299.467102,154.469482 
	C301.826599,154.489700 305.168701,155.625137 306.361084,157.396042 
	C314.488861,169.467209 325.909210,171.969406 339.250946,169.719467 
	C339.885315,169.612488 340.543396,169.646286 341.784760,169.585358 
	C348.300903,203.710556 344.183929,236.106277 327.434204,266.951416 
	C327.102264,267.103546 326.982483,266.989624 327.014160,266.602264 
	C327.503998,264.797241 328.020294,263.395386 328.410736,261.959320 
	C330.677246,253.623138 329.202545,246.029526 323.120056,239.823898 
	C317.386200,233.973984 309.967590,232.449539 302.376770,234.637970 
	C294.156616,237.007874 288.532562,242.826385 287.177094,251.453217 
	C285.714478,260.761932 288.832062,268.526123 297.263611,273.538300 
	C305.269470,278.297363 313.126190,277.528900 320.684418,272.482513 
	C322.600220,271.203369 324.237946,269.507751 326.160492,268.143677 
	C326.317505,268.283844 326.647858,268.544708 326.647858,268.544708 
M254.496552,202.091644 
	C247.421310,180.305466 230.592728,170.565735 209.369995,175.880569 
	C205.580627,176.829544 202.678680,178.446533 203.257202,182.881378 
	C203.735962,186.551697 206.926682,187.577805 211.984146,186.988464 
	C216.709747,186.437836 221.725433,185.780762 226.268951,186.763367 
	C238.556015,189.420593 243.189148,199.319153 244.718979,210.241913 
	C246.116409,220.219315 245.667816,230.462891 245.896973,240.592255 
	C245.980896,244.301590 247.339233,246.873611 251.239273,247.020248 
	C255.120377,247.166183 256.744537,244.719177 257.106537,241.035431 
	C258.370361,228.174774 258.051727,215.425232 254.496552,202.091644 
M197.423004,222.173889 
	C209.217712,228.343674 220.728989,225.657455 228.615753,214.906967 
	C230.639526,212.148331 231.000000,209.317612 228.383987,206.855484 
	C225.764404,204.389984 222.960831,204.802750 220.415100,207.206650 
	C219.691849,207.889618 219.059387,208.667694 218.366425,209.383896 
	C212.264679,215.690430 205.480667,216.469452 199.881577,209.760269 
	C195.034012,203.951599 189.465927,205.140396 183.747238,205.350937 
	C180.575836,205.467697 178.109177,207.800934 178.862946,210.972748 
	C179.352097,213.031036 181.989410,216.172501 183.535767,216.099701 
	C189.125198,215.836502 192.897736,218.697845 197.423004,222.173889 
M310.582458,223.270798 
	C315.645081,220.856491 319.048920,215.284500 325.745605,215.676392 
	C326.722260,215.733566 329.026398,211.976105 328.710724,210.380569 
	C328.332336,208.468140 325.987671,205.823929 324.167603,205.531525 
	C319.077759,204.713837 314.080261,204.271545 309.950806,209.488083 
	C304.890503,215.880508 298.869873,215.837921 292.570618,210.668213 
	C291.293396,209.620041 290.188446,208.363342 288.989838,207.217667 
	C286.445709,204.785934 283.662109,204.413055 281.029114,206.848572 
	C278.387634,209.291931 278.690674,212.043442 280.761871,214.848129 
	C287.669739,224.202301 299.029633,227.666321 310.582458,223.270798 
M310.698975,186.791794 
	C311.281708,187.111969 311.872314,187.418701 312.445862,187.754501 
	C315.906525,189.780640 319.323120,190.105774 321.436859,186.161118 
	C323.395599,182.505798 321.525696,179.682861 318.096252,178.048508 
	C314.361206,176.268478 310.613190,174.274582 306.643921,173.275085 
	C297.034515,170.855469 288.108429,172.307663 280.865326,179.710266 
	C278.570984,182.055130 278.089905,185.310440 280.739471,187.144196 
	C282.566803,188.408905 286.705750,188.955841 288.098907,187.785217 
	C295.273987,181.756271 302.474091,182.929016 310.698975,186.791794 
M247.874039,264.770538 
	C244.470749,262.472870 241.181320,262.250122 238.930893,266.128326 
	C236.581253,270.177460 239.179291,272.612061 242.414047,274.607574 
	C251.774414,280.381866 264.177979,280.142792 272.550201,274.049805 
	C275.414856,271.965027 277.139648,269.436371 275.022034,266.018738 
	C272.833496,262.486633 269.750336,262.384186 266.458771,264.587372 
	C260.607300,268.503967 254.646332,268.429291 247.874039,264.770538 
z"/>
<path fill="#FACFC8" opacity="1.000000" stroke="none" 
	d="
M230.205566,420.670654 
	C225.091736,410.560150 220.139603,400.779297 215.231384,391.085175 
	C215.448090,390.644714 215.510086,390.230133 215.733780,390.105347 
	C228.998184,382.703552 233.690170,370.626556 233.936371,356.291046 
	C234.127533,345.159210 233.974594,334.021454 233.974594,322.971893 
	C242.150345,323.827881 249.682755,325.227142 257.216003,325.231689 
	C264.598175,325.236145 271.981201,323.820862 279.728180,322.989594 
	C279.728180,329.614929 279.585419,336.425201 279.768768,343.226715 
	C279.947906,349.872223 280.435638,356.510223 280.831024,363.148956 
	C281.520660,374.727631 287.339783,383.137421 296.976410,389.180084 
	C297.786835,389.688232 298.523010,390.314758 299.771271,391.240448 
	C292.974731,402.481659 287.090973,414.138916 279.417786,424.466705 
	C266.961243,441.232727 242.565308,439.116333 230.205566,420.670654 
z"/>
<path fill="#F8CEC6" opacity="1.000000" stroke="none" 
	d="
M153.184631,251.928848 
	C139.221970,241.148071 132.831680,224.793716 136.974442,210.442841 
	C139.494873,201.711868 145.707962,197.128448 153.725906,197.997910 
	C156.496948,198.298401 158.267242,199.018372 158.132034,202.498642 
	C157.965363,206.789124 158.506241,211.107056 158.789886,216.302307 
	C155.282562,214.447830 152.172546,212.807678 149.066498,211.160034 
	C145.568359,209.304398 142.478210,209.690994 140.643417,213.381165 
	C138.875427,216.936935 140.734192,219.416153 143.881104,221.110168 
	C148.558945,223.628265 153.302948,226.027634 157.922256,228.647751 
	C159.267685,229.410873 160.301514,230.736252 161.435608,231.847366 
	C161.644714,232.052246 161.659393,232.463257 161.746567,232.783813 
	C163.696396,239.955124 165.643753,247.127106 167.777390,254.982941 
	C165.639862,254.982941 163.711868,254.982941 161.087830,254.760712 
	C157.989395,253.668610 155.587021,252.798721 153.184631,251.928848 
z"/>
<path fill="#F8CEC6" opacity="1.000000" stroke="none" 
	d="
M353.056030,254.997162 
	C350.919464,254.997162 348.782867,254.997162 346.180786,254.997162 
	C348.424988,246.886566 350.417816,239.270905 352.734406,231.755020 
	C353.084778,230.618256 354.853516,229.785126 356.118378,229.087372 
	C361.061707,226.360336 366.084198,223.777222 371.041260,221.074539 
	C374.159149,219.374619 376.029175,216.917160 374.192139,213.331772 
	C372.293640,209.626373 369.225525,209.354782 365.751434,211.188431 
	C362.418945,212.947372 359.070709,214.676590 355.159393,216.716064 
	C355.539368,210.406891 355.874023,204.850281 356.204865,199.356339 
	C365.781891,195.664429 373.926544,199.990372 376.976288,210.252731 
	C381.193634,224.443878 374.528534,241.974960 360.736938,251.707550 
	C357.790344,252.980530 355.423187,253.988846 353.056030,254.997162 
z"/>
<path fill="#904F49" opacity="1.000000" stroke="none" 
	d="
M364.888947,272.877502 
	C357.914490,282.783020 345.790680,286.955902 330.379517,284.388336 
	C333.950775,278.257904 336.954529,271.977600 341.139557,266.619965 
	C342.354645,265.064484 346.950745,266.150055 350.589478,266.297485 
	C353.936401,272.615906 359.072083,273.486816 364.888947,272.877502 
z"/>
<path fill="#AD7597" opacity="1.000000" stroke="none" 
	d="
M364.911377,272.887207 
	C359.072083,273.486816 353.936401,272.615906 351.012085,266.265198 
	C348.574005,261.932251 351.183105,258.910614 353.006042,255.356812 
	C355.423187,253.988846 357.790344,252.980530 360.513672,251.961563 
	C364.036255,254.193924 367.202728,256.436951 370.632629,258.884277 
	C370.638611,261.839172 370.381165,264.589813 370.080750,267.756592 
	C368.896057,269.326782 367.754364,270.480774 366.116821,271.906738 
	C365.392548,272.434265 365.164093,272.689880 364.935669,272.945496 
	C364.935638,272.945496 364.933807,272.896942 364.911377,272.887207 
z"/>
<path fill="#AD7597" opacity="1.000000" stroke="none" 
	d="
M152.871185,252.112030 
	C155.587021,252.798721 157.989395,253.668610 160.660187,254.756744 
	C161.655960,258.349548 162.383347,261.724060 163.134750,265.530884 
	C159.713165,271.859711 155.782150,273.998505 150.829056,272.671539 
	C145.641632,271.281830 142.971634,266.859253 143.109161,259.472351 
	C146.254730,256.798706 149.406219,254.546951 152.871185,252.112030 
z"/>
<path fill="#FBD0C8" opacity="1.000000" stroke="none" 
	d="
M187.499390,268.399048 
	C187.086975,268.295685 186.918228,268.023376 186.792740,267.465393 
	C186.763748,267.224518 186.890045,267.107178 187.144989,267.188629 
	C187.642334,267.479187 187.841064,267.723785 187.996155,268.003815 
	C187.996155,268.003815 187.670853,268.274872 187.499390,268.399048 
z"/>
<path fill="#FBD0C8" opacity="1.000000" stroke="none" 
	d="
M327.161804,267.160858 
	C327.228485,267.558807 327.142151,267.873840 326.805115,268.354004 
	C326.647858,268.544708 326.317505,268.283844 326.292847,267.946655 
	C326.471100,267.362305 326.709198,267.155701 326.982483,266.989624 
	C326.982483,266.989624 327.102264,267.103546 327.161804,267.160858 
z"/>
<path fill="#904F49" opacity="1.000000" stroke="none" 
	d="
M365.176117,272.852661 
	C365.164093,272.689880 365.392548,272.434265 365.874695,272.100281 
	C365.891113,272.267883 365.653839,272.513855 365.176117,272.852661 
z"/>
<path fill="#512D2D" opacity="1.000000" stroke="none" 
	d="
M248.450500,470.762451 
	C252.132568,466.408722 256.393555,465.192017 261.203857,467.459351 
	C265.357483,469.417145 267.403931,472.983368 266.937439,477.627472 
	C266.472290,482.258209 263.754364,485.253754 259.343933,486.528015 
	C255.243179,487.712830 251.670532,486.365417 249.035309,483.193451 
	C245.939880,479.467499 245.937424,475.289948 248.450500,470.762451 
z"/>
<path fill="#FAAEA0" opacity="1.000000" stroke="none" 
	d="
M327.014160,266.602264 
	C326.709198,267.155701 326.471100,267.362305 326.135803,267.806519 
	C324.237946,269.507751 322.600220,271.203369 320.684418,272.482513 
	C313.126190,277.528900 305.269470,278.297363 297.263611,273.538300 
	C288.832062,268.526123 285.714478,260.761932 287.177094,251.453217 
	C288.532562,242.826385 294.156616,237.007874 302.376770,234.637970 
	C309.967590,232.449539 317.386200,233.973984 323.120056,239.823898 
	C329.202545,246.029526 330.677246,253.623138 328.410736,261.959320 
	C328.020294,263.395386 327.503998,264.797241 327.014160,266.602264 
z"/>
<path fill="#FAAEA0" opacity="1.000000" stroke="none" 
	d="
M188.284988,268.172058 
	C187.841064,267.723785 187.642334,267.479187 187.208313,267.130127 
	C186.317017,262.769440 185.105087,258.559235 185.018417,254.325943 
	C184.800842,243.698349 192.886185,234.851288 203.012039,234.025940 
	C214.492691,233.090149 225.051941,240.509750 226.852264,250.777542 
	C228.886063,262.376831 222.222382,273.068756 211.458359,275.880157 
	C202.118515,278.319550 194.956833,274.628265 188.284988,268.172058 
z"/>
<path fill="#54302F" opacity="1.000000" stroke="none" 
	d="
M254.637726,202.469818 
	C258.051727,215.425232 258.370361,228.174774 257.106537,241.035431 
	C256.744537,244.719177 255.120377,247.166183 251.239273,247.020248 
	C247.339233,246.873611 245.980896,244.301590 245.896973,240.592255 
	C245.667816,230.462891 246.116409,220.219315 244.718979,210.241913 
	C243.189148,199.319153 238.556015,189.420593 226.268951,186.763367 
	C221.725433,185.780762 216.709747,186.437836 211.984146,186.988464 
	C206.926682,187.577805 203.735962,186.551697 203.257202,182.881378 
	C202.678680,178.446533 205.580627,176.829544 209.369995,175.880569 
	C230.592728,170.565735 247.421310,180.305466 254.637726,202.469818 
z"/>
<path fill="#543030" opacity="1.000000" stroke="none" 
	d="
M197.092148,221.998993 
	C192.897736,218.697845 189.125198,215.836502 183.535767,216.099701 
	C181.989410,216.172501 179.352097,213.031036 178.862946,210.972748 
	C178.109177,207.800934 180.575836,205.467697 183.747238,205.350937 
	C189.465927,205.140396 195.034012,203.951599 199.881577,209.760269 
	C205.480667,216.469452 212.264679,215.690430 218.366425,209.383896 
	C219.059387,208.667694 219.691849,207.889618 220.415100,207.206650 
	C222.960831,204.802750 225.764404,204.389984 228.383987,206.855484 
	C231.000000,209.317612 230.639526,212.148331 228.615753,214.906967 
	C220.728989,225.657455 209.217712,228.343674 197.092148,221.998993 
z"/>
<path fill="#553130" opacity="1.000000" stroke="none" 
	d="
M310.252808,223.466751 
	C299.029633,227.666321 287.669739,224.202301 280.761871,214.848129 
	C278.690674,212.043442 278.387634,209.291931 281.029114,206.848572 
	C283.662109,204.413055 286.445709,204.785934 288.989838,207.217667 
	C290.188446,208.363342 291.293396,209.620041 292.570618,210.668213 
	C298.869873,215.837921 304.890503,215.880508 309.950806,209.488083 
	C314.080261,204.271545 319.077759,204.713837 324.167603,205.531525 
	C325.987671,205.823929 328.332336,208.468140 328.710724,210.380569 
	C329.026398,211.976105 326.722260,215.733566 325.745605,215.676392 
	C319.048920,215.284500 315.645081,220.856491 310.252808,223.466751 
z"/>
<path fill="#54302F" opacity="1.000000" stroke="none" 
	d="
M310.358704,186.587341 
	C302.474091,182.929016 295.273987,181.756271 288.098907,187.785217 
	C286.705750,188.955841 282.566803,188.408905 280.739471,187.144196 
	C278.089905,185.310440 278.570984,182.055130 280.865326,179.710266 
	C288.108429,172.307663 297.034515,170.855469 306.643921,173.275085 
	C310.613190,174.274582 314.361206,176.268478 318.096252,178.048508 
	C321.525696,179.682861 323.395599,182.505798 321.436859,186.161118 
	C319.323120,190.105774 315.906525,189.780640 312.445862,187.754501 
	C311.872314,187.418701 311.281708,187.111969 310.358704,186.587341 
z"/>
<path fill="#543030" opacity="1.000000" stroke="none" 
	d="
M248.227631,264.951233 
	C254.646332,268.429291 260.607300,268.503967 266.458771,264.587372 
	C269.750336,262.384186 272.833496,262.486633 275.022034,266.018738 
	C277.139648,269.436371 275.414856,271.965027 272.550201,274.049805 
	C264.177979,280.142792 251.774414,280.381866 242.414047,274.607574 
	C239.179291,272.612061 236.581253,270.177460 238.930893,266.128326 
	C241.181320,262.250122 244.470749,262.472870 248.227631,264.951233 
z"/>
</svg>