<svg version="1.1" id="Layer_1" xmlns="http://www.w3.org/2000/svg" xmlns:xlink="http://www.w3.org/1999/xlink" x="0px" y="0px"
	 width="100%" viewBox="0 0 512 512" enable-background="new 0 0 512 512" xml:space="preserve">
<path fill="#0196DB" opacity="1.000000" stroke="none" 
	d="
M6.999622,485.195679 
	C5.230152,483.841583 3.460686,482.487488 1.345610,481.066711 
	C1.000000,419.312439 1.000000,357.624878 0.999999,295.468658 
	C3.108138,290.783478 5.216277,286.566986 7.767165,282.453247 
	C18.687159,293.026703 28.995220,303.673950 39.688049,313.919617 
	C50.941078,324.702087 56.030254,337.687408 55.978790,353.181732 
	C55.832851,397.120239 55.954327,441.059631 55.506104,485.049988 
	C39.027683,485.132751 23.013655,485.164215 6.999622,485.195679 
z"/>
<path fill="#FFC850" opacity="1.000000" stroke="none" 
	d="
M513.000000,480.531342 
	C509.598328,485.156006 505.205353,486.244843 499.934845,486.085327 
	C489.284332,485.762939 478.617798,485.967468 467.485779,485.683594 
	C467.013672,485.412506 467.000000,484.992249 467.001526,484.524078 
	C467.003540,455.811890 466.911621,427.567383 467.057922,399.324127 
	C467.104797,390.274200 469.869324,382.265656 476.697083,375.665833 
	C486.715271,365.982147 496.284210,355.833649 506.044556,345.883179 
	C508.141541,350.799133 510.238556,355.715088 512.667786,360.815521 
	C513.000000,400.687561 513.000000,440.375122 513.000000,480.531342 
z"/>
<path fill="#B48764" opacity="1.000000" stroke="none" 
	d="
M55.970497,484.998657 
	C55.954327,441.059631 55.832851,397.120239 55.978790,353.181732 
	C56.030254,337.687408 50.941078,324.702087 39.688049,313.919617 
	C28.995220,303.673950 18.687159,293.026703 8.051010,282.256714 
	C15.192367,271.596771 26.368734,268.562775 37.842503,265.979706 
	C44.016163,264.589844 50.117687,262.879578 56.773781,261.548157 
	C58.154499,263.384644 59.086754,264.952148 59.861053,266.594177 
	C76.235390,301.318542 99.891167,330.023926 130.961288,352.588959 
	C136.702713,356.758759 139.658005,356.736694 145.394440,352.585266 
	C166.915512,337.010742 185.257538,318.273163 199.702148,296.006836 
	C206.807648,285.053711 212.608917,273.254547 219.000412,261.838226 
	C230.361679,264.746399 241.970657,266.955383 252.980286,270.856018 
	C258.530487,272.822388 262.994019,277.855835 267.937714,282.090515 
	C257.677917,292.906738 247.629364,303.345734 237.127747,313.307068 
	C225.272598,324.552307 220.145615,338.155945 220.212799,354.351471 
	C220.393723,397.956665 220.229401,441.563324 219.716858,485.130981 
	C164.811234,485.061279 110.390862,485.029968 55.970497,484.998657 
z"/>
<path fill="#FFDC64" opacity="1.000000" stroke="none" 
	d="
M506.020996,345.535095 
	C496.284210,355.833649 486.715271,365.982147 476.697083,375.665833 
	C469.869324,382.265656 467.104797,390.274200 467.057922,399.324127 
	C466.911621,427.567383 467.003540,455.811890 466.532898,484.527039 
	C411.708466,484.996216 357.354218,484.994263 302.998535,484.524139 
	C302.996796,456.956421 302.844727,429.855621 303.066803,402.757904 
	C303.163269,390.989410 299.847382,381.180206 290.798187,373.117706 
	C281.388763,364.734344 272.647247,355.601288 263.731079,346.467896 
	C267.948547,341.371735 272.048615,336.603821 276.466858,331.723633 
	C280.137451,330.024933 283.489868,328.438477 287.219696,326.885773 
	C292.029419,325.266541 296.461761,323.613556 301.208496,322.106689 
	C308.993011,330.156342 315.954926,338.633423 324.062408,345.817749 
	C334.117126,354.727600 346.482269,360.114014 359.385406,363.402771 
	C367.951172,365.585999 377.074219,367.096344 385.828308,366.635956 
	C396.243591,366.088104 406.730377,363.824554 416.828644,361.017944 
	C433.471069,356.392487 447.421539,347.052948 458.721344,333.886719 
	C462.154266,329.886810 465.642731,325.934570 469.473022,321.995056 
	C474.280365,323.638153 478.720459,325.246735 483.160583,326.855286 
	C492.531250,330.775330 500.750031,336.130371 506.020996,345.535095 
z"/>
<path fill="#F0C087" opacity="1.000000" stroke="none" 
	d="
M154.969681,28.142609 
	C176.514664,27.639544 193.845520,36.101254 207.522766,53.240723 
	C207.466461,54.157719 207.242661,54.608742 206.955902,55.015369 
	C199.452698,65.655304 200.483917,73.355011 210.367783,82.369392 
	C211.151428,83.084084 211.472488,85.491112 210.888184,86.345299 
	C199.523544,102.959358 213.444489,123.520325 230.858551,122.081085 
	C234.608643,126.198700 238.892426,129.880905 239.048965,136.222916 
	C239.332428,147.707657 234.320724,153.968185 221.255936,157.633438 
	C219.526932,185.608414 208.374527,208.608154 184.049835,224.999146 
	C174.943665,228.821213 166.477325,232.388031 157.949341,235.605133 
	C156.200378,234.317047 154.597427,233.159317 152.813141,232.473007 
	C123.537437,221.212463 100.643173,189.659348 102.385330,156.304855 
	C108.886314,154.486359 110.815735,151.601974 110.865204,144.038284 
	C110.934021,133.516815 109.494087,131.051407 102.007629,128.423431 
	C101.998390,118.654854 101.978172,109.347618 102.000801,100.040497 
	C102.014534,94.392189 101.230865,88.576363 102.289452,83.123909 
	C107.809013,54.694351 124.374931,36.489853 153.015106,29.918407 
	C153.763077,29.746790 154.322388,28.752987 154.969681,28.142609 
M165.021896,182.754898 
	C164.853409,178.983353 162.911621,176.388351 159.382874,175.355530 
	C155.616745,174.253235 152.322235,175.232971 149.350815,178.069580 
	C141.536850,185.529099 134.559708,185.484680 126.757088,178.224274 
	C126.269409,177.770493 125.823074,177.264160 125.297279,176.860779 
	C121.486595,173.937088 117.160690,174.278625 113.702980,177.753082 
	C110.248940,181.223831 109.943657,185.554413 112.884483,189.364273 
	C122.214729,201.451721 138.785965,205.694382 152.221207,198.584885 
	C158.135635,195.455154 165.170395,192.309937 165.021896,182.754898 
M165.366913,144.277618 
	C165.561462,145.919327 165.600632,147.597946 165.980331,149.195663 
	C167.029648,153.611023 169.892807,156.006622 174.451950,156.166046 
	C179.061172,156.327225 182.569031,154.010422 183.198349,149.675873 
	C183.896683,144.865784 183.745697,139.757629 182.926544,134.956345 
	C182.251343,130.998688 178.676636,129.039307 174.666428,129.114105 
	C170.463577,129.192535 167.307770,131.412384 166.169464,135.525589 
	C165.474884,138.035461 165.606537,140.774017 165.366913,144.277618 
z"/>
<path fill="#D5DCED" opacity="1.000000" stroke="none" 
	d="
M414.972778,69.061874 
	C480.390167,89.285378 506.522308,166.903000 467.852478,222.545105 
	C467.233612,220.055908 466.936707,217.714279 467.142365,215.417648 
	C468.221161,203.370193 463.228912,194.391098 452.377777,189.753540 
	C440.839569,184.822342 428.878479,180.749847 416.858704,177.104980 
	C395.716888,170.694031 374.419373,164.841217 355.638885,152.559235 
	C354.054504,151.523087 351.914459,151.336655 350.023315,150.350967 
	C350.550598,146.860428 350.847778,143.709778 351.660370,140.698212 
	C360.417389,108.243874 380.680267,85.803406 411.259918,72.326958 
	C412.697906,71.693237 413.744110,70.170547 414.972778,69.061874 
z"/>
<path fill="#E6AF78" opacity="1.000000" stroke="none" 
	d="
M154.505569,28.094656 
	C154.322388,28.752987 153.763077,29.746790 153.015106,29.918407 
	C124.374931,36.489853 107.809013,54.694351 102.289452,83.123909 
	C101.230865,88.576363 102.014534,94.392189 102.000801,100.040497 
	C101.978172,109.347618 101.998390,118.654854 101.628616,128.485443 
	C93.680634,130.741394 91.908897,133.893631 92.214264,145.096909 
	C92.410248,152.287262 94.952057,155.225296 102.023567,156.435318 
	C100.643173,189.659348 123.537437,221.212463 152.813141,232.473007 
	C154.597427,233.159317 156.200378,234.317047 157.693726,235.901398 
	C148.093918,238.763077 138.641953,239.722260 128.956985,238.528214 
	C115.532127,236.873077 103.364052,231.985672 91.916237,225.018768 
	C71.577698,211.792648 60.857388,192.403275 56.215164,169.158722 
	C55.862289,167.391815 55.976341,165.512955 56.018959,163.689529 
	C56.119217,159.399536 54.536942,157.223633 49.977371,155.803848 
	C37.855007,152.029114 32.323433,137.089096 41.689281,125.863907 
	C42.644485,124.719078 43.788185,123.731529 45.428848,122.371552 
	C54.931866,122.144310 61.918903,118.319397 66.346046,110.754326 
	C71.781219,101.466774 69.829048,92.329391 64.052704,83.895882 
	C74.420143,75.695580 76.714371,67.097107 71.332939,57.672871 
	C70.437637,56.104973 69.603691,54.502045 68.741394,52.915306 
	C79.602264,39.037842 93.943993,31.154655 111.215485,28.462692 
	C114.301659,27.981678 117.487747,28.038307 120.628288,28.028088 
	C131.765884,27.991840 142.903717,28.034153 154.505569,28.094656 
z"/>
<path fill="#C39772" opacity="1.000000" stroke="none" 
	d="
M350.032562,150.755447 
	C351.914459,151.336655 354.054504,151.523087 355.638885,152.559235 
	C374.419373,164.841217 395.716888,170.694031 416.858704,177.104980 
	C428.878479,180.749847 440.839569,184.822342 452.377777,189.753540 
	C463.228912,194.391098 468.221161,203.370193 467.142365,215.417648 
	C466.936707,217.714279 467.233612,220.055908 467.544128,222.707184 
	C465.949432,232.116943 464.109314,241.196289 461.851807,250.817612 
	C453.138214,269.990601 440.259277,284.401642 421.807159,294.120300 
	C415.978058,296.133057 410.503815,298.032837 404.960815,299.584930 
	C404.096283,298.730469 403.359833,298.066650 402.495911,297.740051 
	C384.269897,290.849182 369.949738,279.003387 360.164551,262.334778 
	C355.971985,255.192886 353.969330,246.765366 351.243408,238.668106 
	C353.113831,238.067123 354.740814,237.816772 356.306519,237.357483 
	C367.961182,233.938629 373.385254,225.203644 376.409912,214.034409 
	C382.546936,210.824326 388.267761,211.458725 394.025024,214.487488 
	C394.558258,216.267166 395.115204,217.661118 395.497131,219.101456 
	C398.846802,231.733749 412.583740,241.085907 427.321350,238.010956 
	C441.204681,235.114273 451.675598,220.004120 448.699493,206.678497 
	C445.170776,190.878540 430.446045,181.304703 415.626312,184.517120 
	C408.058807,186.157486 403.360016,191.407776 397.671967,195.862045 
	C388.834229,192.170944 380.385773,192.235596 371.684875,195.887970 
	C365.155396,188.719818 357.963135,183.596619 348.017029,183.432541 
	C347.999512,172.361771 347.985870,161.753036 348.314453,151.072708 
	C349.115295,150.919220 349.573944,150.837326 350.032562,150.755447 
M381.634827,246.987686 
	C378.742706,245.139862 375.651459,243.538193 372.999420,241.393463 
	C367.301300,236.785339 359.337524,238.968231 358.051270,245.737274 
	C356.964142,251.458633 360.140289,255.356018 364.225677,258.431213 
	C374.664520,266.288879 386.163361,268.882324 398.238434,262.878784 
	C402.809814,260.605957 406.905609,256.873474 410.380951,253.046066 
	C413.615387,249.483948 412.382935,243.491821 408.827667,240.566879 
	C405.765656,238.047714 400.312897,238.356277 396.960968,241.585098 
	C392.842743,245.552078 388.457428,248.434219 381.634827,246.987686 
z"/>
<path fill="#0196DB" opacity="1.000000" stroke="none" 
	d="
M276.148682,331.835907 
	C272.048615,336.603821 267.948547,341.371735 263.485138,346.703583 
	C261.083435,354.011810 257.393646,360.729126 257.282806,367.504974 
	C256.694183,403.493896 256.913147,439.498169 257.173615,475.494812 
	C257.194366,478.363861 259.651825,481.215240 260.731628,484.425110 
	C253.733215,484.911041 246.978989,485.008942 240.227158,485.193665 
	C234.161667,485.359619 228.098770,485.620880 222.034729,485.840118 
	C221.676682,485.852234 221.318619,485.864349 220.651520,485.673950 
	C220.342484,485.471436 220.202133,485.169403 220.202133,485.169403 
	C220.229401,441.563324 220.393723,397.956665 220.212799,354.351471 
	C220.145615,338.155945 225.272598,324.552307 237.127747,313.307068 
	C247.629364,303.345734 257.677917,292.906738 268.121765,282.393768 
	C270.509186,286.454285 272.701355,290.799622 274.911438,295.974915 
	C275.306763,301.913452 275.684174,307.022095 275.995422,312.583191 
	C276.002441,319.302368 276.075562,325.569153 276.148682,331.835907 
z"/>
<path fill="#C7CFE2" opacity="1.000000" stroke="none" 
	d="
M350.023315,150.350967 
	C349.573944,150.837326 349.115295,150.919220 347.974365,151.072388 
	C344.816071,153.303528 342.399506,155.536255 339.853424,157.609970 
	C331.142548,164.704788 323.031342,172.845627 313.444916,178.458603 
	C305.645416,183.025299 301.981476,187.690750 302.629700,196.791458 
	C303.248596,205.480499 302.386353,214.275009 302.175171,223.023163 
	C293.441986,212.175812 288.919037,199.418701 286.099243,186.071960 
	C280.216736,158.228561 285.584229,132.156158 301.316162,108.806160 
	C317.422668,84.900131 340.211243,70.287117 369.007874,66.035698 
	C384.212128,63.790993 399.398102,64.036079 414.592163,69.003265 
	C413.744110,70.170547 412.697906,71.693237 411.259918,72.326958 
	C380.680267,85.803406 360.417389,108.243874 351.660370,140.698212 
	C350.847778,143.709778 350.550598,146.860428 350.023315,150.350967 
z"/>
<path fill="#0196DB" opacity="1.000000" stroke="none" 
	d="
M218.977722,261.442383 
	C212.608917,273.254547 206.807648,285.053711 199.702148,296.006836 
	C185.257538,318.273163 166.915512,337.010742 145.394440,352.585266 
	C139.658005,356.736694 136.702713,356.758759 130.961288,352.588959 
	C99.891167,330.023926 76.235390,301.318542 59.861053,266.594177 
	C59.086754,264.952148 58.154499,263.384644 57.149223,261.473633 
	C62.376850,259.771027 67.751068,258.377228 73.683868,257.247223 
	C83.741692,269.183929 93.422729,280.715546 102.656708,292.594635 
	C106.737534,297.844421 114.149841,298.171509 118.498116,292.286560 
	C121.690826,287.965546 125.428802,284.047424 128.951797,280.422760 
	C128.986542,289.891632 128.993195,298.887512 129.000015,307.883362 
	C129.003174,312.048126 128.840256,316.221252 129.050018,320.375610 
	C129.346237,326.242218 133.302414,330.186768 138.353287,329.994019 
	C143.329620,329.804047 146.985214,325.556305 147.003571,319.910309 
	C147.046906,306.584229 147.079010,293.258118 147.454971,279.989258 
	C151.448456,284.451172 154.913269,289.032013 158.804947,293.215759 
	C163.624298,298.396759 169.181961,298.178070 173.660645,292.766571 
	C178.280472,287.184509 182.567123,281.327209 187.168503,275.729248 
	C192.382736,269.385651 197.784622,263.196320 203.104904,256.939911 
	C208.388275,258.308777 213.671646,259.677643 218.977722,261.442383 
z"/>
<path fill="#B48764" opacity="1.000000" stroke="none" 
	d="
M302.157471,223.443329 
	C302.386353,214.275009 303.248596,205.480499 302.629700,196.791458 
	C301.981476,187.690750 305.645416,183.025299 313.444916,178.458603 
	C323.031342,172.845627 331.142548,164.704788 339.853424,157.609970 
	C342.399506,155.536255 344.816071,153.303528 347.632141,151.143982 
	C347.985870,161.753036 347.999512,172.361771 347.597961,183.471115 
	C332.684540,184.977905 321.145905,196.778625 321.005157,210.743866 
	C320.841309,227.001251 333.329712,238.744354 350.971619,238.921967 
	C353.969330,246.765366 355.971985,255.192886 360.164551,262.334778 
	C369.949738,279.003387 384.269897,290.849182 402.495911,297.740051 
	C403.359833,298.066650 404.096283,298.730469 404.610596,299.765320 
	C398.836945,301.194885 393.372284,302.596558 387.847351,302.899963 
	C373.726227,303.675354 360.429504,300.155487 347.472260,293.878784 
	C340.188354,288.464935 332.913849,283.540771 326.287231,277.860809 
	C317.842285,270.622314 313.014618,260.680359 307.982086,250.987686 
	C306.034668,241.946289 304.087219,232.904907 302.157471,223.443329 
z"/>
<path fill="#01AAEF" opacity="1.000000" stroke="none" 
	d="
M128.923782,279.949738 
	C125.428802,284.047424 121.690826,287.965546 118.498116,292.286560 
	C114.149841,298.171509 106.737534,297.844421 102.656708,292.594635 
	C93.422729,280.715546 83.741692,269.183929 74.095314,257.202820 
	C75.676140,253.116684 76.988304,249.066345 79.238792,245.630676 
	C81.968712,241.463135 86.396065,240.847504 91.605919,242.323639 
	C106.935890,250.204056 121.708191,257.810089 136.583984,265.208008 
	C137.729355,265.777618 139.788696,265.257935 141.110611,264.608368 
	C154.397903,258.079193 167.632095,251.441238 180.840027,244.752502 
	C182.090393,244.119278 183.060333,242.932358 184.160461,242.002472 
	C192.511368,240.643677 195.697357,242.347443 199.720779,250.304749 
	C200.734009,252.308685 201.775604,254.298309 202.954544,256.617188 
	C197.784622,263.196320 192.382736,269.385651 187.168503,275.729248 
	C182.567123,281.327209 178.280472,287.184509 173.660645,292.766571 
	C169.181961,298.178070 163.624298,298.396759 158.804947,293.215759 
	C154.913269,289.032013 151.448456,284.451172 147.421204,279.629517 
	C144.232208,274.998108 141.416306,270.783691 138.245178,266.037598 
	C134.862000,270.566650 132.354233,273.836700 129.963181,277.190033 
	C129.411560,277.963654 129.259644,279.022278 128.923782,279.949738 
z"/>
<path fill="#C7CFE1" opacity="1.000000" stroke="none" 
	d="
M422.161987,294.007294 
	C440.259277,284.401642 453.138214,269.990601 461.721863,251.166885 
	C472.065521,255.018661 474.969849,263.832397 477.045288,273.285675 
	C477.386993,274.842072 478.174072,276.994415 479.375488,277.564545 
	C498.244110,286.518524 500.243866,311.985626 485.073517,324.442902 
	C484.438019,324.964752 483.937683,325.651215 483.267456,326.558136 
	C478.720459,325.246735 474.280365,323.638153 469.248047,321.717926 
	C460.268463,318.253967 451.881073,315.101654 443.227966,311.675201 
	C438.878082,309.593323 434.661804,308.030243 430.743896,305.914612 
	C426.071167,303.391418 422.979706,299.448151 422.161987,294.007294 
z"/>
<path fill="#C7CFE1" opacity="1.000000" stroke="none" 
	d="
M307.632233,251.023209 
	C313.014618,260.680359 317.842285,270.622314 326.287231,277.860809 
	C332.913849,283.540771 340.188354,288.464935 347.468140,294.231384 
	C346.107574,300.910858 342.204773,305.040649 336.355957,307.494537 
	C333.034424,308.888092 329.787140,310.458618 326.140015,311.935852 
	C317.480469,315.268372 309.187286,318.614471 300.894104,321.960571 
	C296.461761,323.613556 292.029419,325.266541 287.111328,326.589294 
	C283.104248,321.549622 279.582916,316.840179 276.061554,312.130737 
	C275.684174,307.022095 275.306763,301.913452 274.995148,296.336914 
	C278.582642,287.936920 282.946838,280.795593 291.418030,277.094177 
	C292.316345,276.701660 292.721954,274.712097 292.976288,273.390350 
	C294.777985,264.026276 297.992920,255.609329 307.632233,251.023209 
z"/>
<path fill="#D5DCED" opacity="1.000000" stroke="none" 
	d="
M68.444565,52.763832 
	C69.603691,54.502045 70.437637,56.104973 71.332939,57.672871 
	C76.714371,67.097107 74.420143,75.695580 64.052704,83.895882 
	C69.829048,92.329391 71.781219,101.466774 66.346046,110.754326 
	C61.918903,118.319397 54.931866,122.144310 45.595634,122.074783 
	C34.743229,121.666878 27.130032,115.776108 24.450329,105.826256 
	C21.560476,95.096107 24.122873,84.336906 39.537914,76.368385 
	C36.207993,69.727539 36.095573,63.068974 40.200405,56.630154 
	C44.575821,49.766895 55.189842,46.607376 62.798660,49.925907 
	C64.624863,50.722397 66.366966,51.711720 68.444565,52.763832 
z"/>
<path fill="#D5DCED" opacity="1.000000" stroke="none" 
	d="
M231.289642,122.052887 
	C213.444489,123.520325 199.523544,102.959358 210.888184,86.345299 
	C211.472488,85.491112 211.151428,83.084084 210.367783,82.369392 
	C200.483917,73.355011 199.452698,65.655304 206.955902,55.015369 
	C207.242661,54.608742 207.466461,54.157719 207.816772,53.407711 
	C218.799316,44.201729 235.711624,49.679344 238.391815,62.114250 
	C239.125641,65.518799 238.728119,69.351059 238.030029,72.822174 
	C237.472107,75.596321 237.181015,77.210983 240.221481,78.727844 
	C249.323074,83.268555 253.503204,91.146492 252.874649,101.038727 
	C252.267212,110.598900 246.880722,117.313026 237.986176,120.934151 
	C236.067703,121.715210 233.817917,121.682533 231.289642,122.052887 
z"/>
<path fill="#D19B6E" opacity="1.000000" stroke="none" 
	d="
M184.098083,241.539062 
	C183.060333,242.932358 182.090393,244.119278 180.840027,244.752502 
	C167.632095,251.441238 154.397903,258.079193 141.110611,264.608368 
	C139.788696,265.257935 137.729355,265.777618 136.583984,265.208008 
	C121.708191,257.810089 106.935890,250.204056 91.988342,242.326447 
	C91.886818,236.651260 91.934448,231.300095 91.949158,225.483856 
	C103.364052,231.985672 115.532127,236.873077 128.956985,238.528214 
	C138.641953,239.722260 148.093918,238.763077 157.755371,236.251099 
	C166.477325,232.388031 174.943665,228.821213 183.738007,225.134232 
	C184.055893,230.367935 184.045792,235.721786 184.098083,241.539062 
z"/>
<path fill="#FFC850" opacity="1.000000" stroke="none" 
	d="
M260.976898,484.074829 
	C259.651825,481.215240 257.194366,478.363861 257.173615,475.494812 
	C256.913147,439.498169 256.694183,403.493896 257.282806,367.504974 
	C257.393646,360.729126 261.083435,354.011810 263.367737,347.031799 
	C272.647247,355.601288 281.388763,364.734344 290.798187,373.117706 
	C299.847382,381.180206 303.163269,390.989410 303.066803,402.757904 
	C302.844727,429.855621 302.996796,456.956421 302.991638,484.734253 
	C302.986237,485.412567 302.968414,485.832489 302.968414,485.832458 
	C290.613403,485.866699 278.258423,485.900940 265.222839,485.646301 
	C263.353821,484.929871 262.165344,484.502350 260.976898,484.074829 
z"/>
<path fill="#688D97" opacity="1.000000" stroke="none" 
	d="
M219.716858,485.130981 
	C220.202133,485.169403 220.342484,485.471436 220.385010,485.633545 
	C219.098129,485.858459 217.768768,485.975677 216.439362,485.976196 
	C147.959869,486.002380 79.480377,486.019531 11.000890,486.028351 
	C9.839029,486.028503 8.677156,485.914795 7.257458,485.524963 
	C23.013655,485.164215 39.027683,485.132751 55.506104,485.049957 
	C110.390862,485.029968 164.811234,485.061279 219.716858,485.130981 
z"/>
<path fill="#DFBA5E" opacity="1.000000" stroke="none" 
	d="
M303.436462,485.896790 
	C302.968414,485.832489 302.986237,485.412567 302.993103,485.202454 
	C357.354218,484.994263 411.708466,484.996216 466.531342,484.995209 
	C467.000000,484.992249 467.013672,485.412506 467.022827,485.622437 
	C449.074982,485.888245 431.118073,485.984100 413.161072,485.991577 
	C376.742218,486.006744 340.323364,485.974060 303.436462,485.896790 
z"/>
<path fill="#688D97" opacity="1.000000" stroke="none" 
	d="
M260.731628,484.425110 
	C262.165344,484.502350 263.353821,484.929871 264.754822,485.594025 
	C250.961761,485.887390 236.956131,485.944122 222.492615,485.920471 
	C228.098770,485.620880 234.161667,485.359619 240.227158,485.193665 
	C246.978989,485.008942 253.733215,484.911041 260.731628,484.425110 
z"/>
<path fill="#FFC850" opacity="1.000000" stroke="none" 
	d="
M301.208496,322.106689 
	C309.187286,318.614471 317.480469,315.268372 326.365295,312.221893 
	C357.072723,347.835327 413.329254,348.010681 443.493652,311.949341 
	C451.881073,315.101654 460.268463,318.253967 468.880798,321.683411 
	C465.642731,325.934570 462.154266,329.886810 458.721344,333.886719 
	C447.421539,347.052948 433.471069,356.392487 416.828644,361.017944 
	C406.730377,363.824554 396.243591,366.088104 385.828308,366.635956 
	C377.074219,367.096344 367.951172,365.585999 359.385406,363.402771 
	C346.482269,360.114014 334.117126,354.727600 324.062408,345.817749 
	C315.954926,338.633423 308.993011,330.156342 301.208496,322.106689 
z"/>
<path fill="#FFFFFF" opacity="1.000000" stroke="none" 
	d="
M275.995422,312.583191 
	C279.582916,316.840179 283.104248,321.549622 286.733948,326.555542 
	C283.489868,328.438477 280.137451,330.024933 276.466858,331.723633 
	C276.075562,325.569153 276.002441,319.302368 275.995422,312.583191 
z"/>
<path fill="#D29B6E" opacity="1.000000" stroke="none" 
	d="
M165.024811,183.166016 
	C165.170395,192.309937 158.135635,195.455154 152.221207,198.584885 
	C138.785965,205.694382 122.214729,201.451721 112.884483,189.364273 
	C109.943657,185.554413 110.248940,181.223831 113.702980,177.753082 
	C117.160690,174.278625 121.486595,173.937088 125.297279,176.860779 
	C125.823074,177.264160 126.269409,177.770493 126.757088,178.224274 
	C134.559708,185.484680 141.536850,185.529099 149.350815,178.069580 
	C152.322235,175.232971 155.616745,174.253235 159.382874,175.355530 
	C162.911621,176.388351 164.853409,178.983353 165.024811,183.166016 
z"/>
<path fill="#68493E" opacity="1.000000" stroke="none" 
	d="
M102.385330,156.304855 
	C94.952057,155.225296 92.410248,152.287262 92.214264,145.096909 
	C91.908897,133.893631 93.680634,130.741394 101.635696,128.946838 
	C109.494087,131.051407 110.934021,133.516815 110.865204,144.038284 
	C110.815735,151.601974 108.886314,154.486359 102.385330,156.304855 
z"/>
<path fill="#67483D" opacity="1.000000" stroke="none" 
	d="
M165.367004,143.843735 
	C165.606537,140.774017 165.474884,138.035461 166.169464,135.525589 
	C167.307770,131.412384 170.463577,129.192535 174.666428,129.114105 
	C178.676636,129.039307 182.251343,130.998688 182.926544,134.956345 
	C183.745697,139.757629 183.896683,144.865784 183.198349,149.675873 
	C182.569031,154.010422 179.061172,156.327225 174.451950,156.166046 
	C169.892807,156.006622 167.029648,153.611023 165.980331,149.195663 
	C165.600632,147.597946 165.561462,145.919327 165.367004,143.843735 
z"/>
<path fill="#966E50" opacity="1.000000" stroke="none" 
	d="
M443.227966,311.675201 
	C413.329254,348.010681 357.072723,347.835327 326.731689,312.235474 
	C329.787140,310.458618 333.034424,308.888092 336.355957,307.494537 
	C342.204773,305.040649 346.107574,300.910858 347.765381,294.385254 
	C360.429504,300.155487 373.726227,303.675354 387.847351,302.899963 
	C393.372284,302.596558 398.836945,301.194885 404.679291,300.113007 
	C410.503815,298.032837 415.978058,296.133057 421.807159,294.120300 
	C422.979706,299.448151 426.071167,303.391418 430.743896,305.914612 
	C434.661804,308.030243 438.878082,309.593323 443.227966,311.675201 
z"/>
<path fill="#808599" opacity="1.000000" stroke="none" 
	d="
M398.013428,196.030884 
	C403.360016,191.407776 408.058807,186.157486 415.626312,184.517120 
	C430.446045,181.304703 445.170776,190.878540 448.699493,206.678497 
	C451.675598,220.004120 441.204681,235.114273 427.321350,238.010956 
	C412.583740,241.085907 398.846802,231.733749 395.497131,219.101456 
	C395.115204,217.661118 394.558258,216.267166 394.038147,214.036835 
	C395.333679,207.491592 396.673553,201.761230 398.013428,196.030884 
M413.928314,206.504257 
	C411.440491,212.909042 413.387848,218.349442 418.715271,219.877716 
	C424.164185,221.440857 429.335632,218.448364 430.358948,212.917542 
	C431.082520,209.006943 429.763153,205.728012 426.246429,203.659302 
	C421.689148,200.978485 417.721802,202.062653 413.928314,206.504257 
z"/>
<path fill="#808599" opacity="1.000000" stroke="none" 
	d="
M351.243439,238.668091 
	C333.329712,238.744354 320.841309,227.001251 321.005157,210.743866 
	C321.145905,196.778625 332.684540,184.977905 347.601807,183.933151 
	C357.963135,183.596619 365.155396,188.719818 371.727356,196.255829 
	C373.392090,202.552017 374.712311,208.337494 376.032501,214.122986 
	C373.385254,225.203644 367.961182,233.938629 356.306519,237.357483 
	C354.740814,237.816772 353.113831,238.067123 351.243439,238.668091 
M355.691284,205.862961 
	C352.275360,202.061829 348.289734,200.947998 343.755341,203.671875 
	C340.318481,205.736404 338.769623,208.880127 339.615692,212.911560 
	C340.781952,218.468750 345.827087,221.439438 351.279907,219.879074 
	C356.608337,218.354309 358.558807,212.910004 355.691284,205.862961 
z"/>
<path fill="#976E51" opacity="1.000000" stroke="none" 
	d="
M382.015930,247.030090 
	C388.457428,248.434219 392.842743,245.552078 396.960968,241.585098 
	C400.312897,238.356277 405.765656,238.047714 408.827667,240.566879 
	C412.382935,243.491821 413.615387,249.483948 410.380951,253.046066 
	C406.905609,256.873474 402.809814,260.605957 398.238434,262.878784 
	C386.163361,268.882324 374.664520,266.288879 364.225677,258.431213 
	C360.140289,255.356018 356.964142,251.458633 358.051270,245.737274 
	C359.337524,238.968231 367.301300,236.785339 372.999420,241.393463 
	C375.651459,243.538193 378.742706,245.139862 382.015930,247.030090 
z"/>
<path fill="#717587" opacity="1.000000" stroke="none" 
	d="
M376.409912,214.034409 
	C374.712311,208.337494 373.392090,202.552017 372.029419,196.398651 
	C380.385773,192.235596 388.834229,192.170944 397.671936,195.862045 
	C396.673553,201.761230 395.333679,207.491592 393.980713,213.672607 
	C388.267761,211.458725 382.546936,210.824326 376.409912,214.034409 
z"/>
<path fill="#007DC3" opacity="1.000000" stroke="none" 
	d="
M128.951797,280.422760 
	C129.259644,279.022278 129.411560,277.963654 129.963181,277.190033 
	C132.354233,273.836700 134.862000,270.566650 138.245178,266.037598 
	C141.416306,270.783691 144.232208,274.998108 147.081879,279.572296 
	C147.079010,293.258118 147.046906,306.584229 147.003571,319.910309 
	C146.985214,325.556305 143.329620,329.804047 138.353287,329.994019 
	C133.302414,330.186768 129.346237,326.242218 129.050018,320.375610 
	C128.840256,316.221252 129.003174,312.048126 129.000015,307.883362 
	C128.993195,298.887512 128.986542,289.891632 128.951797,280.422760 
z"/>
<path fill="#FCFCFD" opacity="1.000000" stroke="none" 
	d="
M414.118286,206.184280 
	C417.721802,202.062653 421.689148,200.978485 426.246429,203.659302 
	C429.763153,205.728012 431.082520,209.006943 430.358948,212.917542 
	C429.335632,218.448364 424.164185,221.440857 418.715271,219.877716 
	C413.387848,218.349442 411.440491,212.909042 414.118286,206.184280 
z"/>
<path fill="#FCFCFD" opacity="1.000000" stroke="none" 
	d="
M355.881470,206.183441 
	C358.558807,212.910004 356.608337,218.354309 351.279907,219.879074 
	C345.827087,221.439438 340.781952,218.468750 339.615692,212.911560 
	C338.769623,208.880127 340.318481,205.736404 343.755341,203.671875 
	C348.289734,200.947998 352.275360,202.061829 355.881470,206.183441 
z"/>
</svg>