<svg version="1.1" id="Layer_1" xmlns="http://www.w3.org/2000/svg" xmlns:xlink="http://www.w3.org/1999/xlink" x="0px" y="0px"
	 width="100%" viewBox="0 0 500 500" enable-background="new 0 0 500 500" xml:space="preserve">
<path fill="#FAFCFC" opacity="1.000000" stroke="none" 
	d="
M272.862183,316.657776 
	C269.195862,316.720306 265.529510,316.782837 261.436401,316.368591 
	C261.081879,313.533020 260.373535,310.686249 261.454163,308.957947 
	C262.459839,307.349426 265.370758,306.932098 268.164032,305.662598 
	C264.134949,305.011444 260.954987,304.308075 257.739288,304.049286 
	C255.828873,303.895508 252.566238,303.889984 252.184555,304.786011 
	C251.332153,306.787109 251.640579,309.434052 251.983231,311.742645 
	C252.235168,313.440094 253.291275,315.018158 253.989044,316.649414 
	C248.968002,316.710815 243.946945,316.772186 238.418793,316.479858 
	C237.271149,316.301849 236.630615,316.477600 235.990067,316.653320 
	C233.481842,316.643677 230.973618,316.634033 228.244202,316.057007 
	C227.942322,315.065613 227.861618,314.641602 227.780930,314.217560 
	C227.699814,313.651550 227.618713,313.085541 227.756897,311.978027 
	C227.928024,311.044556 227.879837,310.652557 227.831665,310.260590 
	C227.736069,309.672394 227.640472,309.084167 227.770172,307.771790 
	C227.753784,306.142334 227.512100,305.237030 227.270416,304.331757 
	C226.970306,304.377533 226.670197,304.423340 226.370087,304.469116 
	C226.219406,305.546539 226.068741,306.623932 225.918060,307.701324 
	C225.916260,310.182404 225.914459,312.663513 225.656876,315.618896 
	C225.401077,316.093170 225.077118,316.429962 225.077118,316.429962 
	C221.319275,316.562836 217.561432,316.695679 213.276169,316.584473 
	C212.561615,316.161041 212.340530,316.048157 212.085464,316.001770 
	C212.085464,303.502289 212.085464,291.002838 212.085464,277.810486 
	C199.964691,277.810486 188.915924,277.810486 177.205139,277.536163 
	C176.027863,277.129730 175.512604,276.997620 174.923828,276.514374 
	C170.343887,272.723480 172.638275,267.291595 171.339722,263.002991 
	C172.343307,262.772766 173.005325,262.551727 173.667358,262.330719 
	C173.618454,261.904633 173.569550,261.478577 173.520645,261.052490 
	C171.147217,261.052490 168.773804,261.052490 166.400391,261.052490 
	C166.065857,261.086182 165.899780,260.934967 165.865509,260.167084 
	C165.701263,259.421051 165.490829,259.178772 165.197556,259.008423 
	C165.143387,254.953979 165.089233,250.899551 165.564331,246.427887 
	C168.721909,246.010651 171.350204,246.010651 174.188477,246.010651 
	C172.174606,241.365540 168.955917,243.429352 166.072083,243.976593 
	C163.079712,239.231720 165.765228,234.115494 165.139938,229.191635 
	C164.578171,224.768066 164.515533,220.269470 164.452240,215.800858 
	C164.431473,214.335251 165.098434,212.859894 165.527283,211.070236 
	C167.525452,211.070236 169.469574,211.070236 171.413712,211.070236 
	C171.434189,210.791748 171.454666,210.513245 171.475128,210.234756 
	C169.380249,210.087021 167.285370,209.939270 165.423126,209.807938 
	C165.423126,204.836395 165.423126,200.110947 165.423126,195.071075 
	C180.335098,195.071075 195.454605,195.071075 211.347382,195.071075 
	C211.347382,182.234283 211.347382,169.685532 211.347382,156.700150 
	C216.317154,156.428207 220.542908,156.196991 225.309052,155.936188 
	C225.583969,159.005356 225.838104,161.842346 226.203415,165.920502 
	C227.961761,156.294647 227.961136,156.384888 237.228073,156.448730 
	C249.952454,156.536377 262.677917,156.470657 275.862488,156.470657 
	C275.862488,160.209991 275.862488,163.449005 275.862488,166.688004 
	C276.198212,166.707886 276.533905,166.727768 276.869629,166.747650 
	C277.273346,163.549927 277.677094,160.352219 278.150421,156.603210 
	C282.426788,156.603210 286.724121,156.603210 291.633270,156.603210 
	C291.633270,168.976318 291.633270,181.779770 291.633270,194.990036 
	C306.480621,194.990036 320.747772,194.990036 335.744049,195.047394 
	C336.872986,195.782196 337.272827,196.459641 337.672668,197.137085 
	C337.681274,197.821167 337.689850,198.505234 337.474426,199.846237 
	C337.391876,202.713593 337.533386,204.924042 337.674866,207.134476 
	C337.681885,207.494614 337.688965,207.854736 337.216614,208.487061 
	C333.939514,209.233383 331.141815,209.707520 328.714233,210.118942 
	C331.651611,211.111160 334.656494,212.126175 337.661377,213.141190 
	C337.674713,213.522766 337.688049,213.904327 337.483704,214.677551 
	C337.398010,215.426819 337.530029,215.784439 337.662018,216.142059 
	C337.677032,216.526581 337.692078,216.911102 337.479126,217.800842 
	C337.401306,219.247574 337.551392,220.189087 337.701508,221.130585 
	C337.877808,222.098053 338.054077,223.065521 338.602295,224.231888 
	C338.974213,224.430786 339.024933,224.875839 339.024933,224.875854 
	C338.637695,224.997101 338.250458,225.118347 337.492554,225.686340 
	C337.310638,227.135925 337.499451,228.138779 337.688232,229.141617 
	C337.829712,232.735733 337.971191,236.329865 338.541138,240.220795 
	C338.969574,240.517593 338.990997,240.978409 338.990997,240.978409 
	C338.566803,241.343933 338.142578,241.709457 337.238708,242.540955 
	C334.628937,243.196335 332.498779,243.385757 331.757568,243.451660 
	C332.839813,243.779480 335.220367,244.500595 337.600952,245.221710 
	C337.637970,249.465256 337.674988,253.708817 337.495911,258.513245 
	C337.155792,259.341278 337.039642,259.611816 336.931274,259.885712 
	C336.628784,260.098083 336.326294,260.310486 335.484955,260.760895 
	C332.333130,260.998901 329.720123,260.998901 327.107147,260.998901 
	C327.125214,261.400146 327.143311,261.801361 327.161377,262.202606 
	C329.993683,261.944763 332.826019,261.686890 335.658325,261.429016 
	C339.765167,262.644989 336.819489,265.993805 337.547729,268.714355 
	C337.268433,269.571655 337.373199,269.816864 337.708221,269.979340 
	C337.699738,271.053253 337.691254,272.127197 337.156067,273.594940 
	C329.704376,274.326569 322.774323,274.592987 315.859985,275.082031 
	C314.867035,275.152252 313.950012,276.296051 312.997833,276.942963 
	C310.623596,276.997772 308.249390,277.052582 305.351501,276.648743 
	C302.345581,274.484375 299.969574,273.793549 297.991760,276.905823 
	C297.547455,276.934509 297.103180,276.963226 296.270691,276.595978 
	C294.919403,276.426605 293.956238,276.653168 292.993103,276.879730 
	C292.453064,278.526764 291.605377,280.144104 291.442932,281.827576 
	C291.180145,284.551025 291.367706,287.317871 290.996521,290.658020 
	C290.777130,291.842316 290.926361,292.435059 291.075562,293.027771 
	C291.377747,296.065857 291.679962,299.103973 291.490234,302.570129 
	C285.759003,303.021393 280.503967,302.837280 275.293152,303.234253 
	C274.187653,303.318481 273.243683,305.523407 272.225281,306.751251 
	C276.106934,309.817505 272.826355,313.344269 272.862183,316.657776 
M250.424408,295.708618 
	C251.341888,295.756866 252.671478,296.225372 253.115051,295.790375 
	C259.802490,289.232300 266.355438,282.537415 272.976593,275.911285 
	C280.129272,268.753174 287.162018,261.464905 294.533997,254.538773 
	C303.923035,245.717575 308.075256,235.557953 305.100647,222.558136 
	C301.800446,208.135391 285.702332,195.846771 271.051605,198.483368 
	C264.206512,199.715256 257.845490,203.637039 250.641403,206.595810 
	C245.758667,202.731979 239.938950,197.830780 231.949722,197.745590 
	C218.700287,197.604309 208.633774,203.902237 201.670746,214.646790 
	C195.111801,224.767761 196.442017,242.226929 203.433655,249.139435 
	C212.336166,257.941193 221.306183,266.674896 230.181412,275.503967 
	C236.220993,281.512115 242.147934,287.633514 247.907959,294.350769 
	C248.563950,294.712585 249.219955,295.074371 250.424408,295.708618 
M182.871155,273.967651 
	C184.338089,273.882507 186.375397,274.360840 187.142487,273.584320 
	C188.392090,272.319366 188.811935,270.234741 189.581924,268.496002 
	C187.460876,268.004944 185.333847,267.128662 183.220978,267.161560 
	C181.866791,267.182648 180.533524,268.544678 179.190872,269.305603 
	C180.148941,270.820984 181.107010,272.336395 182.871155,273.967651 
M326.398590,268.270569 
	C327.501312,268.167938 328.604034,268.065308 329.706757,267.962677 
	C329.353668,267.147064 329.000549,266.331482 328.647430,265.515869 
	C327.820251,266.208221 326.993103,266.900604 326.398590,268.270569 
M236.773911,307.756714 
	C236.134323,307.266876 235.494736,306.777039 234.855148,306.287201 
	C234.686508,306.831573 234.517868,307.375916 234.349228,307.920288 
	C235.192215,308.078217 236.035202,308.236145 236.773911,307.756714 
z"/>
<path fill="#ECF0F1" opacity="1.000000" stroke="none" 
	d="
M194.903641,348.027954 
	C193.611130,348.028046 192.799759,348.028046 191.756577,348.028046 
	C191.756577,350.671967 191.756577,353.045837 191.756577,355.757050 
	C188.170715,355.757050 184.814178,355.757050 181.106506,355.757050 
	C181.243729,353.085815 181.366898,350.688141 181.507431,347.952393 
	C179.025543,347.952393 176.422882,347.952393 173.657089,347.952393 
	C173.657089,345.041290 173.657089,342.479645 173.657089,339.628632 
	C176.359573,339.490906 178.805527,339.366211 181.692123,339.219086 
	C181.692123,336.737457 181.692123,334.227509 181.692123,331.544495 
	C184.828629,331.544495 187.515671,331.544495 190.501434,331.544495 
	C190.852982,334.215057 191.167923,336.607574 191.512558,339.225586 
	C194.090256,339.350983 196.535751,339.469910 199.353745,339.606995 
	C199.353745,342.268555 199.353745,344.816467 199.353745,348.027832 
	C198.138779,348.027832 196.761780,348.027832 194.903641,348.027954 
z"/>
<path fill="#ECF0F1" opacity="1.000000" stroke="none" 
	d="
M322.112061,133.964783 
	C321.216614,136.162033 320.788544,138.330704 320.307465,140.768005 
	C317.859863,140.768005 315.269562,140.768005 312.333527,140.768005 
	C312.169586,138.395142 312.002289,135.973633 311.826599,133.430664 
	C309.426941,133.430664 307.158386,133.430664 304.557983,133.430664 
	C304.557983,130.948776 304.557983,128.389786 304.557983,125.317894 
	C306.895020,125.317894 309.270386,125.317894 312.001953,125.317894 
	C312.001953,122.394638 312.001953,119.968529 312.001953,117.088013 
	C315.082062,117.252419 317.779633,117.396400 320.833557,117.559410 
	C320.833557,120.211655 320.833557,122.473442 320.833557,124.833649 
	C323.585297,124.833649 325.961121,124.833649 328.469025,124.833649 
	C328.658447,127.583130 328.849304,130.353561 329.096130,133.936218 
	C326.752716,133.936218 324.666107,133.936218 322.112061,133.964783 
z"/>
<path fill="#ECF0F1" opacity="1.000000" stroke="none" 
	d="
M273.983582,412.926331 
	C263.057007,413.251617 252.131516,413.629120 241.202911,413.857025 
	C239.086777,413.901184 236.958450,413.361450 234.383423,412.654297 
	C233.635437,410.844543 233.339783,409.471497 233.044144,408.098480 
	C233.044144,408.098480 232.858047,407.998749 233.174820,407.998901 
	C233.677567,407.921967 233.863525,407.844879 234.049469,407.767822 
	C234.776535,407.800659 235.503616,407.833496 236.910065,407.916382 
	C238.169357,407.727142 238.749252,407.487854 239.329147,407.248596 
	C250.247208,407.447144 261.165253,407.645691 272.752869,407.968536 
	C273.603821,408.140717 273.785217,408.188568 273.975586,408.627045 
	C273.984222,410.320557 273.983887,411.623413 273.983582,412.926331 
z"/>
<path fill="#ECF0F1" opacity="1.000000" stroke="none" 
	d="
M320.839478,174.192841 
	C320.852661,184.814621 320.852661,184.814148 310.460754,184.791275 
	C308.828613,184.787689 307.196472,184.790771 305.272034,184.790771 
	C305.272034,179.542267 305.272034,174.640335 305.272034,169.368073 
	C310.176575,169.368073 315.063324,169.368073 320.506775,169.368073 
	C320.628296,170.951843 320.734894,172.341125 320.839478,174.192841 
z"/>
<path fill="#E9EEF0" opacity="1.000000" stroke="none" 
	d="
M198.355438,169.808792 
	C198.745544,175.017593 198.745544,179.982315 198.745544,184.678650 
	C193.673828,184.678650 188.616699,184.678650 183.060760,184.678650 
	C183.060760,179.589386 183.060760,174.870575 183.060760,169.564697 
	C187.879822,169.564697 192.922562,169.564697 198.355438,169.808792 
z"/>
<path fill="#F3F8F9" opacity="1.000000" stroke="none" 
	d="
M273.218384,316.759979 
	C272.826355,313.344269 276.106934,309.817505 272.225281,306.751251 
	C273.243683,305.523407 274.187653,303.318481 275.293152,303.234253 
	C280.503967,302.837280 285.759003,303.021393 291.416412,302.996552 
	C291.611267,307.416138 291.388031,311.837402 291.150238,316.546814 
	C286.569183,316.546814 282.083130,316.546814 277.679504,316.546814 
	C277.394867,312.586243 277.133179,308.944824 276.871490,305.303436 
	C276.538086,305.311737 276.204651,305.320038 275.871246,305.328308 
	C275.871246,308.082886 276.094574,310.864441 275.766693,313.579407 
	C275.625946,314.744934 274.340179,315.772156 273.218384,316.759979 
z"/>
<path fill="#E9EEF0" opacity="1.000000" stroke="none" 
	d="
M371.473297,178.525604 
	C369.732483,178.123978 368.302643,178.020020 366.560242,177.893326 
	C366.560242,175.268204 366.560242,172.710831 366.560242,169.566299 
	C367.866272,169.499634 369.334106,169.424713 371.051788,169.337036 
	C370.018921,162.671005 374.965698,164.241791 379.128967,164.251328 
	C379.261688,166.137894 379.386230,167.908554 379.524353,169.871933 
	C381.239075,169.993103 382.867035,170.108139 385.167023,170.270660 
	C384.952454,172.490051 384.738831,174.699554 384.500580,177.164032 
	C382.847992,177.437912 381.285767,177.696823 379.529053,177.987976 
	C379.377472,179.515930 379.234497,180.957321 379.071747,182.598068 
	C376.854248,182.598068 374.761444,182.598068 372.349701,182.598068 
	C372.160492,181.334976 371.972382,180.079117 371.473297,178.525604 
z"/>
<path fill="#F2F5F6" opacity="1.000000" stroke="none" 
	d="
M317.661133,305.015472 
	C313.102325,305.015656 309.010315,305.015656 304.565643,305.015656 
	C304.565643,299.936707 304.565643,295.229340 304.565643,290.256165 
	C309.568481,290.256165 314.478455,290.256165 319.645569,290.256165 
	C320.032043,294.509918 320.531677,298.833496 320.692078,303.169617 
	C320.713654,303.752411 319.024780,304.398499 317.661133,305.015472 
z"/>
<path fill="#F3F8F9" opacity="1.000000" stroke="none" 
	d="
M197.727570,290.058868 
	C198.568130,294.910492 198.929916,299.721405 199.313202,304.817993 
	C193.603210,304.817993 188.587814,304.817993 183.366257,304.817993 
	C183.366257,299.969604 183.366257,295.391998 183.366257,290.018127 
	C187.937027,290.018127 192.592911,290.018127 197.727570,290.058868 
z"/>
<path fill="#F2F5F6" opacity="1.000000" stroke="none" 
	d="
M380.586670,355.936157 
	C376.491699,355.935791 372.850098,355.935791 368.989624,355.935791 
	C368.989624,351.087311 368.989624,346.494476 368.989624,341.602234 
	C373.675568,341.602234 378.216797,341.602234 383.210022,341.602234 
	C383.210022,345.820801 383.306122,349.937927 383.112854,354.041473 
	C383.081665,354.704224 381.763397,355.306366 380.586670,355.936157 
z"/>
<path fill="#ECF0F1" opacity="1.000000" stroke="none" 
	d="
M346.112915,138.168152 
	C349.496460,138.168427 352.434570,138.168427 355.661102,138.168427 
	C355.661102,142.631927 355.661102,147.382828 355.661102,152.512268 
	C351.042023,152.512268 346.346863,152.512268 341.450165,152.512268 
	C341.216309,147.698593 340.989410,143.027481 340.753326,138.167877 
	C342.717407,138.167877 344.192444,138.167877 346.112915,138.168152 
z"/>
<path fill="#F2F5F6" opacity="1.000000" stroke="none" 
	d="
M149.380798,138.154572 
	C153.616653,138.171173 157.404694,138.171173 161.919312,138.171173 
	C161.919312,141.967911 162.023926,146.212326 161.829010,150.442932 
	C161.791077,151.266357 160.618134,152.691772 159.917282,152.724091 
	C155.401001,152.932358 150.870422,152.830597 146.746002,152.830597 
	C146.746002,148.418808 146.602280,144.633331 146.845993,140.872971 
	C146.907730,139.920227 148.203995,139.047470 149.380798,138.154572 
z"/>
<path fill="#F3F8F9" opacity="1.000000" stroke="none" 
	d="
M161.909912,326.958191 
	C161.909698,329.081757 161.909698,330.727600 161.909698,332.716675 
	C156.708054,332.716675 151.720490,332.716675 146.685333,332.716675 
	C146.685333,327.996368 146.685333,323.465546 146.685333,318.739563 
	C151.786789,318.425751 156.395844,318.142212 161.910110,317.803009 
	C161.910110,320.994293 161.910110,323.737396 161.909912,326.958191 
z"/>
<path fill="#FAFCFC" opacity="1.000000" stroke="none" 
	d="
M346.046570,333.004333 
	C344.106903,333.004181 342.654022,333.004181 341.014893,333.004181 
	C341.014893,328.022034 341.014893,323.446350 341.014893,318.438599 
	C345.805664,318.438599 350.513733,318.438599 355.571106,318.438599 
	C355.571106,322.935425 355.571106,327.650574 355.571106,333.004517 
	C352.664551,333.004517 349.598938,333.004517 346.046570,333.004333 
z"/>
<path fill="#F2F5F6" opacity="1.000000" stroke="none" 
	d="
M152.454010,209.358917 
	C149.933594,209.570953 148.543900,209.243866 148.709198,206.526733 
	C148.930237,202.893860 148.763870,199.237411 148.763870,195.289581 
	C153.343735,195.289581 157.710770,195.289581 162.344284,195.289581 
	C162.344284,199.776566 162.344284,204.196136 162.344284,209.351929 
	C159.063843,209.351929 155.975510,209.351929 152.454010,209.358917 
z"/>
<path fill="#ECF0F1" opacity="1.000000" stroke="none" 
	d="
M258.001312,108.009804 
	C258.281189,108.398003 258.625244,109.156189 258.831604,109.120422 
	C264.294067,108.173492 269.742310,107.144623 275.650024,106.044632 
	C275.650024,111.693176 275.650024,115.952705 275.650024,120.570297 
	C271.071564,120.570297 266.502960,120.570297 261.853333,120.570297 
	C259.550690,117.508301 263.478058,112.500595 258.195648,109.040504 
	C258.195648,112.048546 258.195648,114.127335 258.078186,116.141754 
	C257.974243,113.388184 257.987762,110.698997 258.001312,108.009804 
z"/>
<path fill="#EEF3F4" opacity="1.000000" stroke="none" 
	d="
M372.950348,222.198883 
	C373.125885,219.020386 373.125885,216.229080 373.125885,212.914612 
	C377.715942,212.914612 382.196442,212.914612 386.987549,212.914612 
	C386.987549,217.182770 386.987549,221.554947 386.987549,226.285141 
	C383.138092,226.285141 379.537598,226.380280 375.945282,226.249802 
	C373.759125,226.170380 371.373138,225.925034 372.950348,222.198883 
z"/>
<path fill="#ECF0F1" opacity="1.000000" stroke="none" 
	d="
M151.253403,228.591034 
	C155.130463,228.752197 158.601761,228.752197 161.829529,228.752197 
	C162.242355,229.413132 162.555130,229.682205 162.563309,229.960251 
	C162.935562,242.599503 162.932449,242.599594 148.795334,242.693268 
	C148.795334,238.316299 148.743622,233.923401 148.884521,229.536697 
	C148.897034,229.147141 150.163559,228.797852 151.253403,228.591034 
z"/>
<path fill="#F3F8F9" opacity="1.000000" stroke="none" 
	d="
M162.523560,252.110291 
	C162.502533,261.743347 164.251587,260.088501 149.061264,259.936432 
	C149.061264,255.391266 149.061264,250.832321 149.061264,246.075790 
	C152.758896,245.753403 156.542480,244.878128 160.198975,245.250534 
	C164.256638,245.663788 161.947968,249.406006 162.523560,252.110291 
z"/>
<path fill="#ECF0F1" opacity="1.000000" stroke="none" 
	d="
M128.830948,131.336182 
	C125.587051,131.338943 122.797615,131.338943 119.655914,131.338943 
	C119.655914,126.554184 119.655914,122.149368 119.655914,117.374542 
	C124.298195,117.374542 128.718414,117.374542 133.546326,117.374542 
	C133.546326,121.766930 133.546326,126.310692 133.546326,131.333435 
	C132.206528,131.333435 130.745956,131.333435 128.830948,131.336182 
z"/>
<path fill="#F0F4F5" opacity="1.000000" stroke="none" 
	d="
M152.858673,226.266220 
	C149.910797,226.621719 148.431442,226.068146 148.692368,222.930603 
	C148.979095,219.482788 148.757721,215.992706 148.757721,212.256622 
	C153.244385,212.256622 157.449936,212.256622 162.548309,212.256622 
	C162.548309,216.352234 162.708084,220.393433 162.394257,224.397507 
	C162.340668,225.081268 160.314102,225.937622 159.106415,226.128540 
	C157.197769,226.430222 155.210831,226.236526 152.858673,226.266220 
z"/>
<path fill="#ECF0F1" opacity="1.000000" stroke="none" 
	d="
M351.995361,259.986298 
	C352.927856,265.357269 353.860321,270.728271 354.898193,276.706116 
	C349.705200,276.706116 345.515747,276.706116 340.836090,276.706116 
	C340.622864,273.677704 340.031311,270.435181 340.269501,267.254791 
	C340.524567,263.848389 341.847992,260.949982 346.397919,261.962036 
	C347.088898,262.115753 348.046143,261.072174 348.795349,260.248779 
	C349.805450,259.938843 350.900421,259.962555 351.995361,259.986298 
z"/>
<path fill="#E9EEF0" opacity="1.000000" stroke="none" 
	d="
M141.682434,245.686172 
	C143.303833,246.358261 145.431808,246.928741 145.497314,247.679245 
	C145.839127,251.595261 145.656769,255.557037 145.656769,259.895538 
	C141.071899,259.895538 137.011246,259.895538 132.659302,259.895538 
	C132.659302,255.270401 132.659302,250.735718 132.659302,245.667603 
	C135.709488,245.667603 138.473495,245.667603 141.682434,245.686172 
z"/>
<path fill="#E5EAEB" opacity="1.000000" stroke="none" 
	d="
M132.368927,235.055115 
	C132.370560,232.797104 132.370560,230.995300 132.370560,228.910416 
	C136.813049,228.910416 140.982498,228.910416 145.438263,228.910416 
	C145.438263,233.436951 145.438263,237.659821 145.438263,242.318817 
	C141.315979,242.318817 137.149490,242.318817 132.367310,242.318817 
	C132.367310,240.010406 132.367310,237.760849 132.368927,235.055115 
z"/>
<path fill="#EEF3F4" opacity="1.000000" stroke="none" 
	d="
M162.025436,276.271240 
	C157.611450,276.933228 153.401382,277.198517 148.982269,277.477020 
	C148.982269,272.783020 148.982269,268.220398 148.982269,263.427734 
	C153.260330,263.427734 157.347122,263.427734 162.229370,263.427734 
	C162.229370,267.444611 162.229370,271.659607 162.025436,276.271240 
z"/>
<path fill="#ECF0F1" opacity="1.000000" stroke="none" 
	d="
M116.050842,242.257751 
	C115.618851,238.422302 115.307251,234.851257 115.508430,231.309357 
	C115.558006,230.436630 117.223732,229.037766 118.238647,228.950317 
	C121.677818,228.653992 125.158318,228.837250 128.958633,228.837250 
	C128.958633,232.953369 128.958633,237.342697 128.958633,242.532898 
	C124.768349,242.532898 120.564346,242.532898 116.050842,242.257751 
z"/>
<path fill="#F3F8F9" opacity="1.000000" stroke="none" 
	d="
M352.430573,259.994873 
	C350.900421,259.962555 349.805450,259.938843 348.407837,259.938934 
	C345.147461,259.962738 342.189758,259.962738 339.043640,259.962738 
	C339.491699,254.669052 339.902924,249.810516 340.286041,245.283722 
	C345.346497,245.283722 349.358948,245.283722 354.399597,245.283722 
	C353.847778,250.579407 353.356781,255.291412 352.430573,259.994873 
z"/>
<path fill="#F0F4F5" opacity="1.000000" stroke="none" 
	d="
M243.991486,151.988129 
	C242.487854,152.456970 241.001160,153.251007 239.477249,153.330383 
	C235.715042,153.526352 231.935776,153.394638 227.269272,153.394638 
	C227.471298,149.195572 227.682922,144.797272 227.899185,140.302475 
	C232.927444,140.302475 237.056671,140.302475 242.082733,140.302475 
	C242.082733,143.756363 242.082733,147.160980 242.716400,150.849304 
	C243.563873,151.418060 243.777679,151.703094 243.991486,151.988129 
z"/>
<path fill="#EEF3F4" opacity="1.000000" stroke="none" 
	d="
M241.222809,108.578369 
	C241.246170,112.833183 241.246170,116.637566 241.246170,120.672394 
	C236.592438,120.672394 232.271393,120.672394 227.919037,120.672394 
	C227.919037,116.080894 227.919037,111.712631 227.919037,106.483284 
	C232.715317,107.077255 236.957397,107.602592 241.222809,108.578369 
z"/>
<path fill="#EEF3F4" opacity="1.000000" stroke="none" 
	d="
M339.053894,241.378815 
	C338.990997,240.978409 338.969574,240.517593 338.989624,240.287903 
	C339.526733,236.519958 340.043793,232.981705 340.607239,229.125824 
	C344.809418,229.125824 349.065125,229.125824 353.643188,229.125824 
	C353.643188,233.345062 353.643188,237.717300 353.643188,242.973358 
	C348.722900,242.568878 343.919861,242.174042 339.053894,241.378815 
z"/>
<path fill="#F0F4F5" opacity="1.000000" stroke="none" 
	d="
M275.567078,150.180908 
	C274.803131,151.719879 273.935455,153.727402 272.845093,153.856674 
	C269.287781,154.278336 265.649200,154.014709 261.721924,154.014709 
	C261.176117,150.477264 260.277039,147.046310 260.320587,143.627350 
	C260.335724,142.436630 262.567017,140.458069 263.983154,140.262039 
	C267.514862,139.773178 271.159607,140.100998 275.361389,140.100998 
	C275.361389,143.597610 275.361389,146.693481 275.567078,150.180908 
z"/>
<path fill="#F2F5F6" opacity="1.000000" stroke="none" 
	d="
M227.209915,131.707458 
	C227.291962,130.419891 227.478531,129.552475 227.456390,128.690430 
	C227.370911,125.361542 228.060394,122.858177 232.255981,123.175674 
	C234.807465,123.368752 237.401505,123.086159 239.934906,123.377914 
	C240.681946,123.463951 241.822144,124.751038 241.866150,125.538887 
	C242.071899,129.221634 241.957474,132.922256 241.957474,136.882904 
	C236.897095,136.882904 232.192017,136.882904 227.218567,136.882904 
	C227.218567,135.240891 227.218567,133.685501 227.209915,131.707458 
z"/>
<path fill="#EEF3F4" opacity="1.000000" stroke="none" 
	d="
M339.233002,225.253860 
	C339.024933,224.875839 338.974213,224.430786 338.983093,224.207031 
	C339.720215,220.317734 340.448456,216.652161 341.227722,212.729645 
	C345.250122,212.729645 349.324097,212.729645 353.676941,212.729645 
	C353.676941,216.962769 353.676941,221.032837 353.676941,225.631882 
	C348.945740,225.631882 344.193420,225.631882 339.233002,225.253860 
z"/>
<path fill="#EEF3F4" opacity="1.000000" stroke="none" 
	d="
M227.982300,329.366089 
	C228.054779,325.979797 228.054779,323.023224 228.054779,319.632446 
	C232.734100,319.632446 237.076889,319.632446 241.698685,319.632446 
	C241.698685,323.860718 241.698685,328.090210 241.698685,333.083588 
	C237.764450,333.083588 233.701828,333.231049 229.671570,332.936218 
	C229.011261,332.887909 228.493469,330.891724 227.982300,329.366089 
z"/>
<path fill="#FAFCFC" opacity="1.000000" stroke="none" 
	d="
M368.836121,195.030762 
	C369.703094,199.557114 370.085907,204.059464 370.504700,208.985291 
	C365.584076,208.985291 361.252289,208.985291 356.767273,208.985291 
	C356.767273,204.428696 356.767273,200.060013 356.767273,195.006760 
	C360.894012,195.006760 364.622986,195.006760 368.836121,195.030762 
z"/>
<path fill="#ECF0F1" opacity="1.000000" stroke="none" 
	d="
M228.577209,336.585114 
	C233.051346,336.266113 237.184433,336.266113 241.646393,336.266113 
	C241.646393,340.830658 241.646393,345.219299 241.646393,350.248474 
	C237.196716,350.248474 232.800766,350.248474 228.236145,350.248474 
	C228.236145,345.400635 228.236145,341.152374 228.577209,336.585114 
z"/>
<path fill="#E9EEF0" opacity="1.000000" stroke="none" 
	d="
M261.620361,349.445984 
	C261.328003,344.979858 261.328003,340.877075 261.328003,336.454742 
	C265.994843,336.454742 270.338928,336.454742 274.941345,336.454742 
	C274.941345,340.837891 274.941345,345.091583 274.941345,349.809357 
	C270.690674,349.809357 266.301697,349.809357 261.620361,349.445984 
z"/>
<path fill="#E9EEF0" opacity="1.000000" stroke="none" 
	d="
M278.587524,349.471863 
	C278.282440,344.997437 278.282440,340.879547 278.282440,336.446167 
	C282.632568,336.446167 286.708130,336.446167 291.079834,336.446167 
	C291.079834,340.758606 291.079834,345.163239 291.079834,349.828400 
	C286.993835,349.828400 282.943207,349.828400 278.587524,349.471863 
z"/>
<path fill="#F0F4F5" opacity="1.000000" stroke="none" 
	d="
M116.107841,252.120239 
	C116.108086,250.185623 116.108086,248.720642 116.108086,246.716095 
	C120.420799,246.716095 124.634674,246.716095 129.088257,246.716095 
	C129.088257,250.820358 129.088257,255.260971 129.088257,259.937317 
	C124.877464,259.937317 120.788223,259.937317 116.107597,259.937317 
	C116.107597,257.456055 116.107597,255.022964 116.107841,252.120239 
z"/>
<path fill="#EEF3F4" opacity="1.000000" stroke="none" 
	d="
M278.199707,324.254303 
	C277.747894,320.452484 278.918671,318.816071 282.569305,319.148468 
	C285.331421,319.399963 288.134827,319.198273 291.171265,319.198273 
	C291.171265,323.863251 291.171265,328.122528 291.171265,332.714142 
	C286.975250,332.714142 282.800934,332.714142 278.199371,332.714142 
	C278.199371,329.943817 278.199371,327.328461 278.199707,324.254303 
z"/>
<path fill="#E9EEF0" opacity="1.000000" stroke="none" 
	d="
M262.795471,366.908875 
	C259.875885,362.918365 261.234131,358.705505 262.067566,354.772644 
	C262.264038,353.845428 265.756317,353.387146 267.784576,353.139038 
	C270.035248,352.863678 272.345551,353.075989 274.899170,353.075989 
	C274.899170,357.647339 274.899170,361.873535 274.899170,366.086945 
	C271.024597,366.376678 267.122437,366.668488 262.795471,366.908875 
z"/>
<path fill="#E5EAEB" opacity="1.000000" stroke="none" 
	d="
M133.575623,263.315247 
	C137.622681,263.214325 141.231262,263.214325 145.271149,263.214325 
	C145.271149,268.023285 145.271149,272.351135 145.271149,276.860809 
	C141.005737,276.860809 137.058701,276.860809 132.155411,276.860809 
	C132.484665,272.351746 132.810913,267.883972 133.575623,263.315247 
z"/>
<path fill="#EEF3F4" opacity="1.000000" stroke="none" 
	d="
M272.225067,319.917816 
	C273.442413,320.426178 274.964447,320.946594 275.003479,321.561127 
	C275.232758,325.173706 275.116211,328.808167 275.116211,332.775024 
	C270.572510,332.775024 266.207855,332.775024 261.577057,332.775024 
	C261.472382,331.786346 261.296234,330.838684 261.283112,329.888824 
	C261.133789,319.077026 261.140442,319.076935 272.225067,319.917816 
z"/>
<path fill="#F2F5F6" opacity="1.000000" stroke="none" 
	d="
M373.206970,257.066132 
	C373.214569,253.676224 373.214569,250.697617 373.214569,246.956360 
	C377.795685,246.956360 382.157196,246.956360 386.898987,246.956360 
	C386.898987,250.879105 386.898987,255.286682 386.898987,260.166687 
	C383.068237,260.166687 379.285187,260.325623 375.535217,260.044312 
	C374.697144,259.981445 373.974945,258.373871 373.206970,257.066132 
z"/>
<path fill="#E9EEF0" opacity="1.000000" stroke="none" 
	d="
M377.828796,229.628357 
	C381.002472,229.844162 383.807343,229.844162 386.896057,229.844162 
	C386.896057,234.148621 386.896057,238.051987 386.896057,242.515442 
	C382.549744,242.515442 378.192810,242.515442 373.200897,242.515442 
	C373.200897,239.584244 373.337280,236.320908 373.162781,233.074265 
	C372.986053,229.786118 374.672119,229.040146 377.828796,229.628357 
z"/>
<path fill="#F0F4F5" opacity="1.000000" stroke="none" 
	d="
M262.008270,136.866180 
	C257.651062,136.943237 253.289230,137.167572 248.938782,137.030380 
	C246.991272,136.968964 245.066605,136.182587 244.160431,135.968399 
	C244.160431,131.604492 244.160431,128.073227 244.160431,124.075615 
	C248.806168,124.075615 253.504898,124.075615 258.590363,124.075615 
	C258.438721,127.427017 258.279755,130.940277 258.120819,134.453537 
	C258.551514,134.837952 258.982208,135.222351 259.412903,135.606750 
	C259.988770,134.647232 260.564636,133.687729 261.425049,132.643890 
	C261.809113,133.995087 261.908691,135.430634 262.008270,136.866180 
z"/>
<path fill="#F0F4F5" opacity="1.000000" stroke="none" 
	d="
M258.035553,107.647003 
	C257.987762,110.698997 257.974243,113.388184 257.977539,116.524467 
	C258.057281,117.426765 258.120239,117.881973 258.072418,118.881836 
	C257.961609,119.426483 257.956238,119.846550 257.956238,119.846542 
	C253.587753,120.345673 249.219284,120.844795 244.678299,121.363632 
	C244.678299,116.168114 244.678299,111.833778 244.678299,107.284203 
	C249.098221,107.284203 253.584015,107.284203 258.035553,107.647003 
z"/>
<path fill="#F2F5F6" opacity="1.000000" stroke="none" 
	d="
M363.658264,242.996033 
	C361.785034,243.045364 360.229858,243.429855 358.857056,243.086060 
	C357.820099,242.826340 356.209198,241.596375 356.244720,240.865860 
	C356.423615,237.185852 357.058929,233.528030 357.583801,229.478241 
	C361.565430,229.478241 365.648865,229.478241 369.973755,229.478241 
	C369.973755,233.760727 369.973755,238.185303 369.973755,243.018173 
	C367.921967,243.018173 365.988312,243.018173 363.658264,242.996033 
z"/>
<path fill="#E9EEF0" opacity="1.000000" stroke="none" 
	d="
M132.816116,208.234131 
	C132.547501,203.763977 132.547501,199.655762 132.547501,195.260849 
	C136.746170,195.260849 140.816498,195.260849 145.765121,195.260849 
	C145.487534,199.574509 145.211365,203.866333 144.907013,208.596054 
	C140.882309,208.596054 136.983521,208.596054 132.816116,208.234131 
z"/>
<path fill="#EEF3F4" opacity="1.000000" stroke="none" 
	d="
M125.789688,225.003662 
	C122.228561,225.003952 119.116272,225.003952 115.483337,225.003952 
	C115.681686,221.188660 115.907677,216.841705 116.148552,212.208496 
	C120.113914,212.208496 124.491203,212.208496 129.330673,212.208496 
	C129.330673,215.655624 129.544540,219.120743 129.189026,222.526413 
	C129.093170,223.444733 127.269241,224.182648 125.789688,225.003662 
z"/>
<path fill="#F0F4F5" opacity="1.000000" stroke="none" 
	d="
M278.160522,126.422668 
	C278.923737,125.284767 279.653137,124.015991 280.457428,123.966606 
	C284.067261,123.744972 287.698364,123.870056 291.520813,123.870056 
	C291.520813,127.948517 291.520813,132.300430 291.520813,137.086273 
	C287.016846,137.086273 282.938171,137.086273 278.161224,137.086273 
	C278.161224,133.939117 278.161224,130.396164 278.160522,126.422668 
z"/>
<path fill="#E9EEF0" opacity="1.000000" stroke="none" 
	d="
M228.090698,357.998718 
	C228.091080,356.248199 228.091080,354.954163 228.091080,353.370850 
	C232.496994,353.370850 236.554184,353.370850 240.954468,353.370850 
	C240.954468,357.766998 240.954468,362.149261 240.954468,366.791138 
	C236.660965,366.791138 232.296005,366.791138 227.693954,366.791138 
	C227.831879,363.890259 227.961090,361.172729 228.090698,357.998718 
z"/>
<path fill="#E5EAEB" opacity="1.000000" stroke="none" 
	d="
M132.833908,225.173859 
	C132.551132,220.732880 132.551132,216.637726 132.551132,212.264938 
	C136.554840,212.264938 140.411438,212.264938 144.766098,212.264938 
	C145.078156,215.554947 145.688126,219.064270 145.579437,222.551193 
	C145.545090,223.653290 143.682114,225.471573 142.494446,225.613907 
	C139.416504,225.982788 136.248642,225.601517 132.833908,225.173859 
z"/>
<path fill="#F3F8F9" opacity="1.000000" stroke="none" 
	d="
M291.384338,152.504395 
	C287.139404,153.447433 282.917603,153.934616 278.464478,154.448486 
	C278.464478,149.381241 278.464478,145.193787 278.464478,140.572449 
	C282.866974,140.572449 286.994354,140.572449 291.407471,140.572449 
	C291.407471,144.279846 291.407471,148.164200 291.384338,152.504395 
z"/>
<path fill="#ECF0F1" opacity="1.000000" stroke="none" 
	d="
M258.146362,348.632355 
	C253.929214,349.679077 249.728928,350.264130 245.208252,350.893799 
	C245.208252,345.267883 245.208252,341.010742 245.208252,336.444092 
	C249.415756,336.444092 253.467682,336.444092 258.163208,336.444092 
	C258.163208,340.348114 258.163208,344.259399 258.146362,348.632355 
z"/>
<path fill="#F3F8F9" opacity="1.000000" stroke="none" 
	d="
M224.998230,150.859772 
	C224.381836,152.226089 223.816559,153.826859 223.140274,153.875214 
	C219.568283,154.130630 215.968338,153.995026 212.054749,153.995026 
	C212.054749,149.520721 212.054749,145.140900 212.054749,140.452850 
	C216.136383,140.452850 220.326202,140.452850 224.998154,140.452850 
	C224.998154,143.844910 224.998154,147.111420 224.998230,150.859772 
z"/>
<path fill="#FAFCFC" opacity="1.000000" stroke="none" 
	d="
M364.968384,226.229248 
	C362.220520,226.104538 359.954376,225.965958 357.372620,225.808075 
	C357.372620,221.484528 357.372620,217.280426 357.372620,212.804779 
	C361.585663,212.804779 365.809784,212.804779 370.079987,212.804779 
	C370.079987,217.187744 370.079987,221.389465 370.079987,225.929276 
	C368.303101,226.039078 366.876587,226.127228 364.968384,226.229248 
z"/>
<path fill="#FAFCFC" opacity="1.000000" stroke="none" 
	d="
M350.886963,209.326996 
	C347.418823,209.329651 344.439301,209.329651 340.823730,209.329651 
	C340.823730,204.562424 340.823730,200.016205 340.823730,195.227875 
	C344.664276,195.227875 349.084503,195.227875 353.931061,195.227875 
	C353.931061,199.175797 354.094025,202.970322 353.814331,206.731918 
	C353.745972,207.651428 352.227386,208.463104 350.886963,209.326996 
z"/>
<path fill="#F3F8F9" opacity="1.000000" stroke="none" 
	d="
M214.720978,336.156189 
	C218.254822,336.154572 221.364838,336.154572 224.729858,336.154572 
	C224.729858,340.761932 224.729858,345.013672 224.729858,349.635986 
	C220.731155,349.635986 216.547470,349.635986 211.834488,349.635986 
	C211.834488,345.932159 211.692490,342.173126 211.946411,338.441040 
	C212.001572,337.630371 213.476257,336.916321 214.720978,336.156189 
z"/>
<path fill="#F3F8F9" opacity="1.000000" stroke="none" 
	d="
M211.909561,326.742310 
	C211.881180,319.892365 211.881592,319.970367 218.554443,319.934875 
	C220.471268,319.924683 222.384933,319.322205 224.680466,318.925568 
	C224.680466,323.744385 224.680466,328.140076 224.680466,333.124695 
	C220.502487,333.124695 216.309372,333.124695 211.904953,333.124695 
	C211.904953,331.296326 211.904953,329.238464 211.909561,326.742310 
z"/>
<path fill="#F0F4F5" opacity="1.000000" stroke="none" 
	d="
M245.043762,326.994659 
	C245.043381,324.250000 245.043381,321.978821 245.043381,319.465027 
	C249.551773,319.465027 253.590851,319.465027 257.912292,319.465027 
	C257.912292,323.868866 257.912292,328.109344 257.912292,332.707825 
	C253.931824,332.707825 249.754974,332.707825 245.044128,332.707825 
	C245.044128,330.989288 245.044128,329.228699 245.043762,326.994659 
z"/>
<path fill="#E9EEF0" opacity="1.000000" stroke="none" 
	d="
M251.058807,353.098083 
	C253.503799,353.098816 255.474213,353.098816 257.807983,353.098816 
	C257.807983,357.648682 257.807983,362.009583 257.807983,366.677246 
	C253.894516,366.677246 249.828110,366.677246 245.398071,366.677246 
	C245.398071,362.462402 245.398071,358.101562 245.398071,353.097351 
	C247.081635,353.097351 248.832932,353.097351 251.058807,353.098083 
z"/>
<path fill="#F3F8F9" opacity="1.000000" stroke="none" 
	d="
M368.838501,276.980164 
	C364.753082,277.005493 361.152924,277.005493 357.298798,277.005493 
	C357.298798,272.485962 357.298798,268.121918 357.298798,263.485260 
	C361.513031,263.485260 365.552673,263.485260 370.452271,263.485260 
	C370.065918,268.096588 369.694855,272.525726 368.838501,276.980164 
z"/>
<path fill="#F2F5F6" opacity="1.000000" stroke="none" 
	d="
M367.915588,260.118103 
	C364.130737,260.121735 360.834198,260.121735 357.289001,260.121735 
	C357.289001,255.563095 357.289001,251.296005 357.289001,246.586548 
	C361.432648,246.586548 365.628967,246.586548 370.144745,246.586548 
	C370.144745,250.439957 370.218781,254.397079 370.066986,258.345490 
	C370.043549,258.955566 368.984192,259.525818 367.915588,260.118103 
z"/>
<path fill="#FAFCFC" opacity="1.000000" stroke="none" 
	d="
M246.047256,140.383331 
	C249.052689,140.321945 252.058121,140.260559 255.647491,140.404724 
	C256.463928,140.363785 256.696411,140.117279 256.928894,139.870789 
	C257.515076,140.323425 258.618469,140.789795 258.606873,141.226578 
	C258.498993,145.295746 258.199493,149.359848 257.931641,153.823532 
	C254.334213,153.823532 250.653259,153.823532 246.457275,153.488708 
	C245.584412,152.085526 245.226578,151.017151 244.868744,149.948776 
	C244.929092,147.621033 244.989426,145.293304 245.022034,142.253571 
	C244.992035,141.355255 244.989807,141.168961 244.987579,140.982681 
	C244.987579,140.982681 244.998322,141.001221 245.220398,141.013794 
	C245.784744,140.944321 245.986328,140.729980 246.047256,140.383331 
z"/>
<path fill="#ECF0F1" opacity="1.000000" stroke="none" 
	d="
M124.599808,294.662109 
	C126.461090,293.448669 128.321991,292.646912 130.790741,291.583221 
	C131.084793,294.257965 131.256805,295.822723 131.280106,296.034576 
	C133.573318,298.168274 135.538757,299.353088 136.339172,301.078369 
	C136.633682,301.713196 134.176682,303.624481 132.150543,304.321075 
	C132.004242,305.576935 131.857925,306.832794 131.754013,307.724823 
	C125.271446,311.320587 124.767487,304.193085 121.387024,302.338074 
	C121.240021,302.257385 122.477509,299.604340 123.110855,298.167480 
	C123.572212,297.120880 124.100807,296.103943 124.599808,294.662109 
z"/>
<path fill="#FAFCFC" opacity="1.000000" stroke="none" 
	d="
M223.797577,137.057861 
	C219.697311,137.101257 216.078186,137.101257 212.147827,137.101257 
	C212.147827,132.523666 212.147827,128.155411 212.147827,123.668137 
	C216.316177,123.668137 220.420746,123.668137 225.206787,123.668137 
	C224.906235,127.990379 224.592468,132.502426 223.797577,137.057861 
z"/>
<path fill="#ECF0F1" opacity="1.000000" stroke="none" 
	d="
M105.709244,204.406296 
	C104.258591,203.425049 102.832565,202.867905 100.150742,201.820114 
	C102.047279,198.770035 103.816536,195.924637 105.605026,193.048309 
	C107.595917,193.048309 109.413567,193.048309 111.502480,193.048309 
	C111.688782,194.115631 111.901260,195.332947 112.114227,196.553009 
	C113.695724,196.765091 115.248512,196.973343 117.073090,197.218033 
	C117.073090,199.219894 117.073090,201.076309 117.073090,203.271576 
	C115.528252,203.488297 113.952675,203.709335 112.033607,203.978561 
	C112.097466,205.187286 112.161705,206.403046 112.279602,208.634460 
	C110.194115,206.063660 105.953644,210.001740 105.709244,204.406296 
z"/>
<path fill="#48575A" opacity="1.000000" stroke="none" 
	d="
M305.983856,407.987854 
	C314.496002,406.006134 322.468018,408.145477 330.486176,409.932800 
	C330.441223,410.523651 330.396301,411.114532 330.351379,411.705414 
	C318.510712,412.149078 306.670074,412.592743 294.388641,412.525085 
	C295.056122,411.003662 296.060638,409.305237 297.293121,409.119537 
	C300.340210,408.660339 303.491760,408.894012 306.601318,408.849243 
	C306.541199,408.638367 306.519409,408.403442 306.407562,408.224976 
	C306.332153,408.104706 306.129547,408.064087 305.983856,407.987854 
z"/>
<path fill="#FBFCFC" opacity="1.000000" stroke="none" 
	d="
M262.457458,136.959869 
	C261.908691,135.430634 261.809113,133.995087 261.471222,132.293732 
	C261.166290,131.852829 261.099670,131.677750 261.363586,130.953400 
	C261.676086,129.678101 261.657990,128.952057 261.639923,128.226013 
	C261.401306,128.056641 261.302765,127.827148 261.767822,127.240082 
	C262.797058,126.017105 263.402771,125.091560 264.008484,124.166016 
	C266.706818,124.119324 269.405151,124.072624 272.598419,124.397552 
	C273.709320,125.181084 274.325256,125.592979 274.941223,126.004868 
	C275.002045,128.048721 275.062836,130.092560 274.756378,132.726852 
	C273.923676,134.510132 273.458282,135.702988 272.992889,136.895844 
	C269.630798,136.948425 266.268707,137.000992 262.457458,136.959869 
z"/>
<path fill="#F3F8F9" opacity="1.000000" stroke="none" 
	d="
M254.419601,316.747864 
	C253.291275,315.018158 252.235168,313.440094 251.983231,311.742645 
	C251.640579,309.434052 251.332153,306.787109 252.184555,304.786011 
	C252.566238,303.889984 255.828873,303.895508 257.739288,304.049286 
	C260.954987,304.308075 264.134949,305.011444 268.164032,305.662598 
	C265.370758,306.932098 262.459839,307.349426 261.454163,308.957947 
	C260.373535,310.686249 261.081879,313.533020 261.010620,316.270447 
	C258.957794,316.714844 256.903961,316.780548 254.419601,316.747864 
z"/>
<path fill="#343B40" opacity="1.000000" stroke="none" 
	d="
M195.101120,412.714203 
	C187.034760,413.170135 178.988007,413.419739 171.157181,410.294678 
	C180.855408,408.010437 190.560242,406.481598 200.448090,407.614899 
	C197.065826,407.806732 193.973099,407.939545 195.101120,412.714203 
z"/>
<path fill="#E5EAEB" opacity="1.000000" stroke="none" 
	d="
M175.664261,154.462708 
	C176.824188,155.000397 178.124359,155.497360 178.187363,156.119568 
	C178.433319,158.549179 178.287781,161.018433 178.287781,163.671814 
	C175.205597,163.671814 172.502014,163.671814 169.496338,163.671814 
	C169.496338,160.688461 169.496338,157.955627 169.496338,154.479538 
	C171.452194,154.479538 173.344162,154.479538 175.664261,154.462708 
z"/>
<path fill="#FBFCFC" opacity="1.000000" stroke="none" 
	d="
M170.998169,263.012207 
	C172.638275,267.291595 170.343887,272.723480 174.737930,276.610016 
	C174.372726,277.189697 174.173981,277.379272 174.029282,277.625519 
	C173.257065,277.688293 172.484863,277.751068 171.245193,277.595612 
	C170.468185,277.223969 170.220551,277.302704 170.034821,277.613586 
	C168.825821,277.652893 167.616837,277.692230 166.156128,277.007172 
	C165.870667,275.985840 165.836914,275.688904 165.803146,275.391968 
	C165.562881,272.185974 165.322617,268.979980 165.363342,265.135071 
	C165.761581,263.623291 165.878830,262.750366 165.996078,261.877472 
	C165.996078,261.877472 166.107880,261.408875 166.501022,261.612366 
	C168.262161,262.214630 169.630173,262.613403 170.998169,263.012207 
z"/>
<path fill="#E5EAEB" opacity="1.000000" stroke="none" 
	d="
M123.314178,176.685974 
	C123.160362,174.366638 122.611870,171.704926 123.695709,170.419281 
	C124.629250,169.311905 127.744804,169.033951 129.317307,169.718231 
	C131.532303,170.682114 135.770966,170.987549 132.999603,176.940857 
	C130.420517,176.940857 127.024269,176.940857 123.314178,176.685974 
z"/>
<path fill="#899299" opacity="1.000000" stroke="none" 
	d="
M305.657349,407.971680 
	C306.129547,408.064087 306.332153,408.104706 306.407562,408.224976 
	C306.519409,408.403442 306.541199,408.638367 306.601318,408.849243 
	C303.491760,408.894012 300.340210,408.660339 297.293121,409.119537 
	C296.060638,409.305237 295.056122,411.003662 293.922607,412.426361 
	C289.161743,412.967804 284.426117,413.096619 279.312439,412.678162 
	C278.945343,410.770752 278.956268,409.410553 278.967194,408.050385 
	C278.967194,408.050385 279.351990,407.770874 279.918304,407.838867 
	C280.707977,407.870636 280.931305,407.834381 281.154663,407.798126 
	C285.111359,407.829987 289.068024,407.861877 293.899628,408.017944 
	C296.200165,408.071411 297.625763,408.000732 299.051392,407.930054 
	C300.096283,407.931519 301.141144,407.932953 302.840576,408.024994 
	C303.671204,408.067474 303.847290,408.019379 304.023346,407.971313 
	C304.459167,407.966034 304.895020,407.960785 305.657349,407.971680 
z"/>
<path fill="#E9EEF0" opacity="1.000000" stroke="none" 
	d="
M333.757019,161.597092 
	C331.297058,162.820679 328.940063,163.644135 325.967896,164.682510 
	C325.967896,160.754089 325.967896,158.178726 325.967896,155.360382 
	C328.118866,155.360382 330.197021,155.360382 332.886444,155.360382 
	C333.189728,157.178741 333.524872,159.187836 333.757019,161.597092 
z"/>
<path fill="#677276" opacity="1.000000" stroke="none" 
	d="
M213.132141,407.712646 
	C213.813995,407.712860 214.495865,407.713104 215.923813,407.807678 
	C217.494492,407.828033 218.319061,407.754089 219.143646,407.680145 
	C219.556702,407.700653 219.969742,407.721161 220.631882,408.180115 
	C220.279388,410.322998 219.677795,412.027405 219.076202,413.731812 
	C215.291428,413.520538 211.506668,413.309235 207.363770,412.561798 
	C207.033752,410.632111 207.061874,409.238556 207.089981,407.845032 
	C207.486877,407.815735 207.883759,407.786407 208.997925,407.859711 
	C210.854187,407.879089 211.993164,407.795868 213.132141,407.712646 
z"/>
<path fill="#F3F8F9" opacity="1.000000" stroke="none" 
	d="
M313.457764,277.040466 
	C313.950012,276.296051 314.867035,275.152252 315.859985,275.082031 
	C322.774323,274.592987 329.704376,274.326569 337.047363,273.984802 
	C338.605408,277.195068 336.368317,277.145691 334.329163,277.152344 
	C327.525421,277.174500 320.721527,277.146637 313.457764,277.040466 
z"/>
<path fill="#F2F5F6" opacity="1.000000" stroke="none" 
	d="
M337.170746,299.890656 
	C337.260254,302.168243 337.349762,304.445831 336.790344,306.936218 
	C334.058472,307.091492 331.975525,307.033997 329.892548,306.976471 
	C329.822571,305.341797 329.752594,303.707153 329.864502,301.337402 
	C330.003174,300.373108 329.959961,300.143921 329.916718,299.914734 
	C329.916718,299.914734 330.003510,299.945557 330.186340,299.889923 
	C330.653687,299.682434 330.873993,299.465393 331.030029,299.183136 
	C332.458740,299.202148 333.887421,299.221161 335.826538,299.641235 
	C336.336914,300.042297 336.778259,300.100708 336.778259,300.100708 
	C336.778259,300.100708 337.170746,299.890656 337.170746,299.890656 
z"/>
<path fill="#BDC9CA" opacity="1.000000" stroke="none" 
	d="
M171.586243,309.030884 
	C173.718552,308.950867 175.492523,308.950867 177.674133,308.950867 
	C177.674133,310.437286 177.674133,311.550751 177.674133,312.664246 
	C177.674133,313.817596 177.674133,314.970978 177.674133,316.416962 
	C175.238235,316.416962 172.888596,316.416962 170.001846,316.416962 
	C170.445724,313.771942 170.836823,311.441437 171.586243,309.030884 
z"/>
<path fill="#D5DCDF" opacity="1.000000" stroke="none" 
	d="
M307.407776,327.459106 
	C305.009827,327.572235 302.904297,327.367554 300.863861,327.169189 
	C299.519714,320.349335 300.022308,319.878601 307.700165,320.956055 
	C307.700165,322.973267 307.700165,325.057281 307.407776,327.459106 
z"/>
<path fill="#48575A" opacity="1.000000" stroke="none" 
	d="
M207.114655,407.819427 
	C207.061874,409.238556 207.033752,410.632111 207.027023,412.440735 
	C203.364487,412.859497 199.680573,412.863129 195.548889,412.790466 
	C193.973099,407.939545 197.065826,407.806732 200.820007,407.820251 
	C202.506378,407.724915 203.751114,407.724945 205.710083,407.782532 
	C206.647995,407.806030 206.871719,407.771942 207.095428,407.737823 
	C207.095428,407.737823 207.139313,407.793823 207.114655,407.819427 
z"/>
<path fill="#D5DCDF" opacity="1.000000" stroke="none" 
	d="
M200.836182,154.065247 
	C199.100311,154.065811 197.812195,154.065811 196.301758,154.065811 
	C196.301758,151.717239 196.301758,149.798752 196.301758,147.542374 
	C198.613495,147.542374 200.837326,147.542374 203.558807,147.542374 
	C202.685928,149.827332 206.255005,153.126511 200.836182,154.065247 
z"/>
<path fill="#E5EAEB" opacity="1.000000" stroke="none" 
	d="
M379.372772,122.806938 
	C377.304352,124.280632 375.227142,125.359642 372.333923,126.862564 
	C372.333923,123.226776 372.333923,121.206238 372.333923,118.106606 
	C374.666351,120.757294 379.546478,116.333939 379.372772,122.806938 
z"/>
<path fill="#D5DCDF" opacity="1.000000" stroke="none" 
	d="
M350.134949,117.159500 
	C356.455139,116.408920 354.513519,120.544281 354.729614,124.001961 
	C352.121979,123.778473 349.799530,123.579430 345.800781,123.236717 
	C347.459320,120.611351 348.595032,118.813599 350.134949,117.159500 
z"/>
<path fill="#E5EAEB" opacity="1.000000" stroke="none" 
	d="
M126.305679,326.771942 
	C125.266785,324.750488 124.636154,322.718903 123.839005,320.150879 
	C127.092216,320.150879 129.007553,320.150879 131.105255,320.150879 
	C131.105255,322.190155 131.105255,324.091095 131.105255,326.343506 
	C129.534485,326.493134 128.124222,326.627472 126.305679,326.771942 
z"/>
<path fill="#EEF3F4" opacity="1.000000" stroke="none" 
	d="
M148.744125,352.477203 
	C148.788055,350.787140 148.864532,349.494812 148.945328,348.129456 
	C151.312805,348.129456 153.425018,348.129456 155.723938,348.129456 
	C155.723938,350.332275 155.723938,352.379578 155.723938,355.277954 
	C153.074249,354.361450 150.925446,353.618225 148.744125,352.477203 
z"/>
<path fill="#D5DCDF" opacity="1.000000" stroke="none" 
	d="
M115.955734,147.638275 
	C121.523438,146.049194 122.303818,148.847870 121.468781,153.363251 
	C119.451645,153.363251 117.377350,153.363251 114.391693,153.363251 
	C114.852592,151.363724 115.253845,149.622955 115.955734,147.638275 
z"/>
<path fill="#D5DCDF" opacity="1.000000" stroke="none" 
	d="
M167.008698,116.915977 
	C167.730362,111.784752 171.076599,113.653671 174.441788,113.637268 
	C174.260269,115.722923 174.102585,117.534607 173.807220,120.928238 
	C170.987915,119.415764 169.023392,118.361862 167.008698,116.915977 
z"/>
<path fill="#E5EAEB" opacity="1.000000" stroke="none" 
	d="
M377.925995,272.171417 
	C380.202606,271.936859 382.163971,271.936859 384.506134,271.936859 
	C384.201050,274.022156 383.937164,275.825836 383.683197,277.561676 
	C376.730194,278.135284 376.706268,278.113739 377.925995,272.171417 
z"/>
<path fill="#D5DCDF" opacity="1.000000" stroke="none" 
	d="
M300.300323,148.329590 
	C302.408447,147.624680 304.436279,147.331787 306.836029,146.985184 
	C306.939026,149.342865 307.015900,151.102783 307.107971,153.210785 
	C304.811157,153.210785 302.766754,153.210785 300.418457,153.210785 
	C300.348022,151.624054 300.283997,150.182831 300.300323,148.329590 
z"/>
<path fill="#D5DCDF" opacity="1.000000" stroke="none" 
	d="
M200.219910,321.079529 
	C201.451813,321.435944 202.803711,321.716217 202.876938,322.192932 
	C203.143402,323.927307 202.982117,325.727356 202.982117,327.745605 
	C200.693100,327.745605 198.775848,327.745605 196.393661,327.745605 
	C196.822067,325.130798 193.433380,321.014252 200.219910,321.079529 
z"/>
<path fill="#BDC9CA" opacity="1.000000" stroke="none" 
	d="
M329.705566,307.290039 
	C331.975525,307.033997 334.058472,307.091492 336.496704,307.048767 
	C336.098755,308.435120 335.569885,310.107880 334.532074,311.358185 
	C333.392212,312.731384 331.719116,314.749329 330.391815,314.666595 
	C327.009216,314.455719 328.340881,311.931396 328.982147,309.963989 
	C329.231110,309.200073 329.343781,308.391724 329.705566,307.290039 
z"/>
<path fill="#D5DCDF" opacity="1.000000" stroke="none" 
	d="
M352.469025,355.153381 
	C350.605835,355.235565 349.136749,355.235565 347.402222,355.235565 
	C347.402222,353.147430 347.402222,351.412872 347.402222,349.378510 
	C349.430084,349.378510 351.361053,349.378510 354.279602,349.378510 
	C353.786743,351.359344 353.324921,353.215240 352.469025,355.153381 
z"/>
<path fill="#E9EEF0" opacity="1.000000" stroke="none" 
	d="
M125.518478,346.362793 
	C127.515900,346.139832 129.146729,346.139832 131.016388,346.139832 
	C131.016388,347.966431 131.016388,349.709259 131.016388,352.296661 
	C128.650009,351.836609 126.425888,351.404236 124.201767,350.971832 
	C124.518478,349.509796 124.835182,348.047760 125.518478,346.362793 
z"/>
<path fill="#899299" opacity="1.000000" stroke="none" 
	d="
M219.436584,413.783417 
	C219.677795,412.027405 220.279388,410.322998 220.927597,408.274414 
	C221.401520,407.879181 221.828827,407.828094 222.880142,407.811615 
	C223.703125,407.791656 223.902100,407.737152 224.101074,407.682617 
	C224.499863,407.689545 224.898651,407.696442 225.899384,407.757568 
	C226.701996,407.758392 226.902649,407.704956 227.103317,407.651489 
	C227.268005,407.678375 227.432678,407.705292 227.777802,408.236694 
	C228.322449,410.130157 228.686661,411.519104 229.050873,412.908051 
	C227.460205,413.038208 225.869522,413.168396 223.617950,413.298553 
	C222.630539,413.469727 222.304031,413.640900 221.977539,413.812073 
	C221.250671,413.819733 220.523819,413.827393 219.436584,413.783417 
z"/>
<path fill="#E5EAEB" opacity="1.000000" stroke="none" 
	d="
M289.744873,359.220459 
	C290.052704,361.373352 290.052704,363.318207 290.052704,365.499939 
	C288.076263,365.499939 286.364471,365.499939 284.352661,365.499939 
	C284.352661,363.479218 284.352661,361.577515 284.352661,359.012390 
	C285.990387,359.012390 287.713684,359.012390 289.744873,359.220459 
z"/>
<path fill="#D5DCDF" opacity="1.000000" stroke="none" 
	d="
M384.274536,204.081970 
	C382.441345,205.148239 380.451324,205.897980 378.025635,206.811874 
	C378.025635,204.334030 378.025635,202.743866 378.025635,200.633698 
	C380.303528,201.658966 384.086273,198.442780 384.274536,204.081970 
z"/>
<path fill="#E5EAEB" opacity="1.000000" stroke="none" 
	d="
M151.975723,119.101547 
	C153.616348,117.706734 155.256271,116.725815 157.667404,115.283585 
	C157.667404,118.435379 157.667404,120.307716 157.667404,122.579941 
	C156.054611,122.809212 154.236633,123.067642 152.183548,123.359489 
	C152.114044,122.078171 152.044525,120.796806 151.975723,119.101547 
z"/>
<path fill="#D5DCDF" opacity="1.000000" stroke="none" 
	d="
M384.242981,317.196289 
	C389.380249,316.893982 387.655212,320.016052 387.732544,322.603119 
	C385.660095,322.603119 383.932678,322.603119 380.626038,322.603119 
	C381.984955,320.318298 382.912659,318.758545 384.242981,317.196289 
z"/>
<path fill="#D5DCDF" opacity="1.000000" stroke="none" 
	d="
M173.995361,360.070129 
	C173.245163,365.322418 169.886627,360.887878 167.821594,362.971527 
	C167.564896,360.647430 167.395523,359.113983 167.166626,357.041687 
	C169.826553,357.733521 173.170395,354.727844 173.995361,360.070129 
z"/>
<path fill="#E9EEF0" opacity="1.000000" stroke="none" 
	d="
M372.001038,148.001465 
	C373.689697,146.864182 375.390686,146.168198 377.686890,145.228683 
	C377.686890,148.240601 377.686890,150.274490 377.686890,152.688690 
	C374.440399,153.054825 371.402222,153.438416 372.001038,148.001465 
z"/>
<path fill="#F0F4F5" opacity="1.000000" stroke="none" 
	d="
M375.324646,299.207275 
	C377.013245,299.079803 378.274506,299.079803 379.758362,299.079803 
	C379.758362,301.172791 379.758362,302.882660 379.758362,304.806244 
	C377.906677,304.806244 376.185089,304.806244 373.718292,304.806244 
	C374.137238,302.862030 374.517303,301.098419 375.324646,299.207275 
z"/>
<path fill="#D5DCDF" opacity="1.000000" stroke="none" 
	d="
M229.463837,412.961426 
	C228.686661,411.519104 228.322449,410.130157 227.984985,408.377136 
	C228.011719,408.013062 228.482834,407.909363 228.993790,407.945496 
	C229.687653,407.909760 229.870544,407.837830 230.053452,407.765869 
	C230.808609,407.804596 231.563766,407.843353 232.681534,407.990295 
	C233.339783,409.471497 233.635437,410.844543 233.971680,412.570312 
	C232.633774,412.953644 231.255295,412.984222 229.463837,412.961426 
z"/>
<path fill="#D5DCDF" opacity="1.000000" stroke="none" 
	d="
M278.652649,408.001892 
	C278.956268,409.410553 278.945343,410.770752 278.950134,412.538849 
	C277.576721,413.002472 276.187500,413.058136 274.390930,413.020050 
	C273.983887,411.623413 273.984222,410.320557 274.364441,408.565125 
	C275.519562,408.023773 276.294800,407.934967 277.070007,407.846191 
	C277.492706,407.881927 277.915436,407.917664 278.652649,408.001892 
z"/>
<path fill="#F3F8F9" opacity="1.000000" stroke="none" 
	d="
M166.115936,244.281326 
	C168.955917,243.429352 172.174606,241.365540 174.188477,246.010651 
	C171.350204,246.010651 168.721909,246.010651 165.663574,246.008987 
	C165.542313,245.533569 165.851044,245.059814 166.115936,244.281326 
z"/>
<path fill="#899299" opacity="1.000000" stroke="none" 
	d="
M337.810486,212.715912 
	C334.656494,212.126175 331.651611,211.111160 328.714233,210.118942 
	C331.141815,209.707520 333.939514,209.233383 337.139038,208.746078 
	C337.680481,209.918823 337.820068,211.104736 337.810486,212.715912 
z"/>
<path fill="#F3F8F9" opacity="1.000000" stroke="none" 
	d="
M171.339722,263.002991 
	C169.630173,262.613403 168.262161,262.214630 166.656525,261.428375 
	C166.418869,261.040924 166.443665,261.084503 166.422028,261.068481 
	C168.773804,261.052490 171.147217,261.052490 173.520645,261.052490 
	C173.569550,261.478577 173.618454,261.904633 173.667358,262.330719 
	C173.005325,262.551727 172.343307,262.772766 171.339722,263.002991 
z"/>
<path fill="#F3F8F9" opacity="1.000000" stroke="none" 
	d="
M298.418701,277.019653 
	C299.969574,273.793549 302.345581,274.484375 304.914673,276.557251 
	C302.949554,276.994110 300.897583,277.063782 298.418701,277.019653 
z"/>
<path fill="#899299" opacity="1.000000" stroke="none" 
	d="
M337.609680,244.806564 
	C335.220367,244.500595 332.839813,243.779480 331.757568,243.451660 
	C332.498779,243.385757 334.628937,243.196335 337.147003,242.874756 
	C337.562775,243.292206 337.590576,243.841812 337.609680,244.806564 
z"/>
<path fill="#F0F4F5" opacity="1.000000" stroke="none" 
	d="
M273.337463,136.986938 
	C273.458282,135.702988 273.923676,134.510132 274.686035,133.160492 
	C276.285187,134.916061 276.347900,136.432663 273.337463,136.986938 
z"/>
<path fill="#F0F4F5" opacity="1.000000" stroke="none" 
	d="
M263.670563,124.084190 
	C263.402771,125.091560 262.797058,126.017105 261.866364,127.072609 
	C261.142883,126.677856 260.744385,126.153152 260.345886,125.628441 
	C261.341492,125.086411 262.337067,124.544388 263.670563,124.084190 
z"/>
<path fill="#F3F8F9" opacity="1.000000" stroke="none" 
	d="
M226.391388,307.646484 
	C226.068741,306.623932 226.219406,305.546539 226.370087,304.469116 
	C226.670197,304.423340 226.970306,304.377533 227.270416,304.331757 
	C227.512100,305.237030 227.753784,306.142334 227.906204,307.339172 
	C227.499542,307.617676 227.182129,307.604675 226.391388,307.646484 
z"/>
<path fill="#899299" opacity="1.000000" stroke="none" 
	d="
M337.828949,206.699768 
	C337.533386,204.924042 337.391876,202.713593 337.455383,200.188202 
	C337.767883,202.003860 337.875458,204.134460 337.828949,206.699768 
z"/>
<path fill="#BDC9CA" opacity="1.000000" stroke="none" 
	d="
M244.549988,149.935379 
	C245.226578,151.017151 245.584412,152.085526 245.990753,153.513458 
	C245.575150,153.281113 245.111069,152.689178 244.319244,152.042694 
	C243.777679,151.703094 243.563873,151.418060 243.103912,151.024582 
	C243.315598,150.584763 243.773407,150.253372 244.549988,149.935379 
z"/>
<path fill="#F3F8F9" opacity="1.000000" stroke="none" 
	d="
M293.368347,276.938049 
	C293.956238,276.653168 294.919403,276.426605 295.943726,276.516113 
	C295.251160,276.886902 294.497375,276.941620 293.368347,276.938049 
z"/>
<path fill="#F0F4F5" opacity="1.000000" stroke="none" 
	d="
M275.033386,125.702606 
	C274.325256,125.592979 273.709320,125.181084 273.042755,124.470909 
	C273.703278,124.581871 274.414429,124.991104 275.033386,125.702606 
z"/>
<path fill="#48575A" opacity="1.000000" stroke="none" 
	d="
M298.791382,407.706909 
	C297.625763,408.000732 296.200165,408.071411 294.357208,408.033569 
	C295.470367,407.777954 297.000854,407.630890 298.791382,407.706909 
z"/>
<path fill="#F3F8F9" opacity="1.000000" stroke="none" 
	d="
M236.322418,316.749878 
	C236.630615,316.477600 237.271149,316.301849 237.961014,316.386169 
	C237.558472,316.712952 237.106628,316.779694 236.322418,316.749878 
z"/>
<path fill="#899299" opacity="1.000000" stroke="none" 
	d="
M337.797363,228.732635 
	C337.499451,228.138779 337.310638,227.135925 337.390198,225.992783 
	C337.741180,226.676208 337.823822,227.499939 337.797363,228.732635 
z"/>
<path fill="#899299" opacity="1.000000" stroke="none" 
	d="
M337.831085,196.809753 
	C337.272827,196.459641 336.872986,195.782196 336.189270,194.992676 
	C336.600067,195.414551 337.294800,195.948486 337.831085,196.809753 
z"/>
<path fill="#48575A" opacity="1.000000" stroke="none" 
	d="
M276.823242,407.641937 
	C276.294800,407.934967 275.519562,408.023773 274.355469,408.174500 
	C273.785217,408.188568 273.603821,408.140717 273.175354,407.957825 
	C274.144348,407.694427 275.360413,407.566040 276.823242,407.641937 
z"/>
<path fill="#F3F8F9" opacity="1.000000" stroke="none" 
	d="
M291.210938,292.848755 
	C290.926361,292.435059 290.777130,291.842316 290.868103,291.102600 
	C291.187653,291.526978 291.266998,292.098328 291.210938,292.848755 
z"/>
<path fill="#343B40" opacity="1.000000" stroke="none" 
	d="
M212.864594,407.524872 
	C211.993164,407.795868 210.854187,407.879089 209.296509,407.854431 
	C210.117538,407.610107 211.357285,407.473602 212.864594,407.524872 
z"/>
<path fill="#899299" opacity="1.000000" stroke="none" 
	d="
M337.847656,220.735535 
	C337.551392,220.189087 337.401306,219.247574 337.464050,218.089249 
	C337.782562,218.695114 337.888184,219.517807 337.847656,220.735535 
z"/>
<path fill="#343B40" opacity="1.000000" stroke="none" 
	d="
M218.899338,407.506805 
	C218.319061,407.754089 217.494492,407.828033 216.264709,407.800903 
	C216.791367,407.577728 217.723190,407.455597 218.899338,407.506805 
z"/>
<path fill="#F3F8F9" opacity="1.000000" stroke="none" 
	d="
M174.386414,277.726135 
	C174.173981,277.379272 174.372726,277.189697 174.811432,276.961121 
	C175.512604,276.997620 176.027863,277.129730 176.741638,277.439941 
	C176.207962,277.687592 175.475754,277.757172 174.386414,277.726135 
z"/>
<path fill="#F3F8F9" opacity="1.000000" stroke="none" 
	d="
M165.648987,261.993805 
	C165.878830,262.750366 165.761581,263.623291 165.415161,264.737091 
	C165.224640,264.022034 165.263275,263.066101 165.648987,261.993805 
z"/>
<path fill="#343B40" opacity="1.000000" stroke="none" 
	d="
M239.015778,407.156525 
	C238.749252,407.487854 238.169357,407.727142 237.271301,407.866852 
	C237.536240,407.533020 238.119324,407.298767 239.015778,407.156525 
z"/>
<path fill="#F0F4F5" opacity="1.000000" stroke="none" 
	d="
M261.427582,128.522003 
	C261.657990,128.952057 261.676086,129.678101 261.460449,130.689621 
	C261.222900,130.256058 261.219086,129.537018 261.427582,128.522003 
z"/>
<path fill="#F3F8F9" opacity="1.000000" stroke="none" 
	d="
M227.585419,314.439453 
	C227.861618,314.641602 227.942322,315.065613 228.022995,315.710205 
	C227.811951,315.507629 227.600922,315.084503 227.585419,314.439453 
z"/>
<path fill="#F3F8F9" opacity="1.000000" stroke="none" 
	d="
M227.695312,310.489685 
	C227.879837,310.652557 227.928024,311.044556 227.908295,311.571533 
	C227.746567,311.377319 227.652756,311.048035 227.695312,310.489685 
z"/>
<path fill="#BDC9CA" opacity="1.000000" stroke="none" 
	d="
M337.005127,299.769287 
	C337.170746,299.890656 336.778259,300.100708 336.778259,300.100708 
	C336.778259,300.100708 336.336914,300.042297 336.185638,299.879028 
	C336.294708,299.597626 336.563080,299.575012 337.005127,299.769287 
z"/>
<path fill="#F3F8F9" opacity="1.000000" stroke="none" 
	d="
M225.228546,316.507721 
	C225.077118,316.429962 225.401077,316.093170 225.515015,316.059814 
	C225.729782,316.294830 225.646805,316.481171 225.228546,316.507721 
z"/>
<path fill="#677276" opacity="1.000000" stroke="none" 
	d="
M222.248260,413.877869 
	C222.304031,413.640900 222.630539,413.469727 223.229889,413.388702 
	C223.174820,413.633789 222.846909,413.788696 222.248260,413.877869 
z"/>
<path fill="#899299" opacity="1.000000" stroke="none" 
	d="
M337.789185,215.820618 
	C337.530029,215.784439 337.398010,215.426819 337.462646,214.963318 
	C337.744995,215.071350 337.830688,215.285278 337.789185,215.820618 
z"/>
<path fill="#F3F8F9" opacity="1.000000" stroke="none" 
	d="
M212.067841,316.259308 
	C212.340530,316.048157 212.561615,316.161041 212.857086,316.494324 
	C212.660370,316.604462 212.355286,316.560669 212.067841,316.259308 
z"/>
<path fill="#BDC9CA" opacity="1.000000" stroke="none" 
	d="
M244.697784,141.012909 
	C244.989807,141.168961 244.992035,141.355255 244.968033,141.820236 
	C244.763855,141.746979 244.585922,141.395050 244.697784,141.012909 
z"/>
<path fill="#F3F8F9" opacity="1.000000" stroke="none" 
	d="
M165.133240,259.290009 
	C165.490829,259.178772 165.701263,259.421051 165.875824,259.975037 
	C165.638153,260.000397 165.353546,259.786011 165.133240,259.290009 
z"/>
<path fill="#899299" opacity="1.000000" stroke="none" 
	d="
M337.240021,259.898132 
	C337.039642,259.611816 337.155792,259.341278 337.473022,258.966980 
	C337.627136,259.210083 337.587952,259.560333 337.240021,259.898132 
z"/>
<path fill="#48575A" opacity="1.000000" stroke="none" 
	d="
M303.939453,407.799011 
	C303.847290,408.019379 303.671204,408.067474 303.232178,408.039062 
	C303.264648,407.850586 303.560089,407.738647 303.939453,407.799011 
z"/>
<path fill="#BDC9CA" opacity="1.000000" stroke="none" 
	d="
M329.759186,300.038452 
	C329.959961,300.143921 330.003174,300.373108 329.933990,300.933777 
	C329.725861,301.029663 329.608612,300.799774 329.543640,300.555939 
	C329.512268,300.438202 329.579224,300.294250 329.759186,300.038452 
z"/>
<path fill="#48575A" opacity="1.000000" stroke="none" 
	d="
M281.011597,407.673340 
	C280.931305,407.834381 280.707977,407.870636 280.155579,407.823151 
	C280.173889,407.675781 280.521210,407.612152 281.011597,407.673340 
z"/>
<path fill="#F3F8F9" opacity="1.000000" stroke="none" 
	d="
M337.794617,269.737061 
	C337.373199,269.816864 337.268433,269.571655 337.512085,269.144653 
	C337.713776,269.195343 337.797394,269.345062 337.794617,269.737061 
z"/>
<path fill="#BDC9CA" opacity="1.000000" stroke="none" 
	d="
M256.674530,139.946838 
	C256.696411,140.117279 256.463928,140.363785 256.096405,140.450211 
	C256.114288,140.201050 256.267242,140.111969 256.674530,139.946838 
z"/>
<path fill="#ECF0F1" opacity="1.000000" stroke="none" 
	d="
M258.071777,119.778885 
	C257.956238,119.846550 257.961609,119.426483 257.982086,119.217606 
	C258.233826,119.183609 258.295410,119.417770 258.071777,119.778885 
z"/>
<path fill="#343B40" opacity="1.000000" stroke="none" 
	d="
M233.946045,407.607727 
	C233.863525,407.844879 233.677567,407.921967 233.206955,407.898315 
	C233.229080,407.680969 233.535858,407.564270 233.946045,407.607727 
z"/>
<path fill="#343B40" opacity="1.000000" stroke="none" 
	d="
M229.954758,407.599731 
	C229.870544,407.837830 229.687653,407.909760 229.226807,407.883240 
	C229.251282,407.667755 229.553680,407.550690 229.954758,407.599731 
z"/>
<path fill="#343B40" opacity="1.000000" stroke="none" 
	d="
M226.975479,407.520325 
	C226.902649,407.704956 226.701996,407.758392 226.198166,407.740204 
	C226.212540,407.575470 226.530090,407.482300 226.975479,407.520325 
z"/>
<path fill="#343B40" opacity="1.000000" stroke="none" 
	d="
M223.974792,407.546478 
	C223.902100,407.737152 223.703125,407.791656 223.201752,407.780273 
	C223.215744,407.613007 223.532135,407.511658 223.974792,407.546478 
z"/>
<path fill="#BDC9CA" opacity="1.000000" stroke="none" 
	d="
M330.735657,299.109100 
	C330.873993,299.465393 330.653687,299.682434 330.140778,299.887634 
	C330.088715,299.639008 330.264984,299.337036 330.735657,299.109100 
z"/>
<path fill="#F3F8F9" opacity="1.000000" stroke="none" 
	d="
M170.264786,277.707428 
	C170.220551,277.302704 170.468185,277.223969 170.867355,277.498352 
	C170.956970,277.619293 170.494751,277.801270 170.264786,277.707428 
z"/>
<path fill="#343B40" opacity="1.000000" stroke="none" 
	d="
M206.958679,407.593658 
	C206.871719,407.771942 206.647995,407.806030 206.086914,407.791779 
	C206.107010,407.645477 206.464462,407.547485 206.958679,407.593658 
z"/>
<path fill="#F3F8F9" opacity="1.000000" stroke="none" 
	d="
M165.545410,275.587402 
	C165.836914,275.688904 165.870667,275.985840 165.917419,276.730835 
	C165.716171,276.713531 165.501938,276.248199 165.545410,275.587402 
z"/>
<path fill="#BDC9CA" opacity="1.000000" stroke="none" 
	d="
M245.807892,140.283234 
	C245.986328,140.729980 245.784744,140.944321 245.211273,141.006226 
	C245.176208,140.718414 245.372360,140.450760 245.807892,140.283234 
z"/>
<path fill="#050606" opacity="1.000000" stroke="none" 
	d="
M248.125244,293.704254 
	C242.147934,287.633514 236.220993,281.512115 230.181412,275.503967 
	C221.306183,266.674896 212.336166,257.941193 203.433655,249.139435 
	C196.442017,242.226929 195.111801,224.767761 201.670746,214.646790 
	C208.633774,203.902237 218.700287,197.604309 231.949722,197.745590 
	C239.938950,197.830780 245.758667,202.731979 250.641403,206.595810 
	C257.845490,203.637039 264.206512,199.715256 271.051605,198.483368 
	C285.702332,195.846771 301.800446,208.135391 305.100647,222.558136 
	C308.075256,235.557953 303.923035,245.717575 294.533997,254.538773 
	C287.162018,261.464905 280.129272,268.753174 272.976593,275.911285 
	C266.355438,282.537415 259.802490,289.232300 253.115051,295.790375 
	C252.671478,296.225372 251.341888,295.756866 250.009308,295.285004 
	C249.104568,294.475677 248.614899,294.089966 248.125244,293.704254 
M281.132355,248.632172 
	C284.697571,244.345093 289.384796,240.556198 291.561859,235.652802 
	C294.733002,228.510651 290.696747,219.875244 283.717987,215.176758 
	C277.340179,210.882874 270.364746,211.221634 263.651855,216.286896 
	C260.615540,218.577988 257.563293,220.892227 254.817581,223.509872 
	C252.742493,225.488159 251.113037,225.658447 248.939026,223.814941 
	C245.152771,220.604370 241.465485,217.178558 237.282654,214.571518 
	C234.816452,213.034409 231.420792,212.088181 228.540085,212.286240 
	C220.074463,212.868271 214.529602,217.863556 211.953171,225.775726 
	C209.517090,233.256973 212.547821,239.240677 218.010513,244.367279 
	C223.323959,249.353806 228.514038,254.472443 233.728607,259.563446 
	C239.837952,265.528015 245.915207,271.525421 252.475464,277.969330 
	C262.108276,268.102783 271.369446,258.616882 281.132355,248.632172 
z"/>
<path fill="#F3F8F9" opacity="1.000000" stroke="none" 
	d="
M182.468109,273.909729 
	C181.107010,272.336395 180.148941,270.820984 179.190887,269.305603 
	C180.533524,268.544678 181.866791,267.182648 183.220978,267.161560 
	C185.333847,267.128662 187.460876,268.004944 189.581924,268.496002 
	C188.811935,270.234741 188.392090,272.319366 187.142487,273.584320 
	C186.375397,274.360840 184.338089,273.882507 182.468109,273.909729 
z"/>
<path fill="#F3F8F9" opacity="1.000000" stroke="none" 
	d="
M326.282288,267.931763 
	C326.993103,266.900604 327.820251,266.208221 328.647430,265.515869 
	C329.000549,266.331482 329.353668,267.147064 329.706757,267.962677 
	C328.604034,268.065308 327.501312,268.167938 326.282288,267.931763 
z"/>
<path fill="#F3F8F9" opacity="1.000000" stroke="none" 
	d="
M335.796326,261.377747 
	C332.826019,261.686890 329.993683,261.944763 327.161377,262.202606 
	C327.143311,261.801361 327.125214,261.400146 327.107147,260.998901 
	C329.720123,260.998901 332.333130,260.998901 335.381561,261.027588 
	C335.817017,261.056305 335.934326,261.326416 335.796326,261.377747 
z"/>
<path fill="#F3F8F9" opacity="1.000000" stroke="none" 
	d="
M236.826050,308.075378 
	C236.035202,308.236145 235.192215,308.078217 234.349228,307.920288 
	C234.517868,307.375916 234.686508,306.831573 234.855148,306.287201 
	C235.494736,306.777039 236.134323,307.266876 236.826050,308.075378 
z"/>
<path fill="#F3F8F9" opacity="1.000000" stroke="none" 
	d="
M248.016602,294.027527 
	C248.614899,294.089966 249.104568,294.475677 249.735092,295.148773 
	C249.219955,295.074371 248.563950,294.712585 248.016602,294.027527 
z"/>
<path fill="#FBFCFC" opacity="1.000000" stroke="none" 
	d="
M280.881470,248.881561 
	C271.369446,258.616882 262.108276,268.102783 252.475464,277.969330 
	C245.915207,271.525421 239.837952,265.528015 233.728607,259.563446 
	C228.514038,254.472443 223.323959,249.353806 218.010513,244.367279 
	C212.547821,239.240677 209.517090,233.256973 211.953171,225.775726 
	C214.529602,217.863556 220.074463,212.868271 228.540085,212.286240 
	C231.420792,212.088181 234.816452,213.034409 237.282654,214.571518 
	C241.465485,217.178558 245.152771,220.604370 248.939026,223.814941 
	C251.113037,225.658447 252.742493,225.488159 254.817581,223.509872 
	C257.563293,220.892227 260.615540,218.577988 263.651855,216.286896 
	C270.364746,211.221634 277.340179,210.882874 283.717987,215.176758 
	C290.696747,219.875244 294.733002,228.510651 291.561859,235.652802 
	C289.384796,240.556198 284.697571,244.345093 280.881470,248.881561 
z"/>
</svg>