<svg version="1.1" id="Layer_1" xmlns="http://www.w3.org/2000/svg" xmlns:xlink="http://www.w3.org/1999/xlink" x="0px" y="0px"
	 width="100%" viewBox="0 0 500 500" enable-background="new 0 0 500 500" xml:space="preserve">
<path fill="#40404A" opacity="1.000000" stroke="none" 
	d="
M277.110352,498.068298 
	C277.023041,498.803650 276.935699,499.539001 276.924194,500.637177 
	C273.307098,501.000000 269.614166,501.000000 265.350952,500.705719 
	C264.192474,500.235199 263.604309,500.058960 263.145081,499.515686 
	C267.886139,498.788513 272.498230,498.428406 277.110352,498.068298 
z"/>
<path fill="#40404A" opacity="1.000000" stroke="none" 
	d="
M225.449387,501.000000 
	C224.997238,500.265289 224.994476,499.530548 225.415176,498.405518 
	C230.548462,498.632599 235.258270,499.250000 239.625504,499.931274 
	C238.521942,500.330078 237.760971,500.665039 237.000000,501.000000 
	C236.555557,501.000000 236.111115,501.000000 235.388733,500.731567 
	C234.815918,500.244690 234.521027,500.026306 234.226135,499.807922 
	C234.150757,500.205292 234.075378,500.602631 234.000000,501.000000 
	C231.299591,501.000000 228.599182,501.000000 225.449387,501.000000 
z"/>
<path fill="#FFFFFF" opacity="1.000000" stroke="none" 
	d="
M237.468658,501.000000 
	C237.760971,500.665039 238.521942,500.330078 240.091339,500.002716 
	C248.271896,499.967804 255.643997,499.925262 263.016113,499.882751 
	C263.604309,500.058960 264.192474,500.235199 264.890320,500.705719 
	C255.979111,501.000000 246.958206,501.000000 237.468658,501.000000 
z"/>
<path fill="#000000" opacity="1.000000" stroke="none" 
	d="
M234.250000,501.000000 
	C234.075378,500.602631 234.150757,500.205292 234.226135,499.807922 
	C234.521027,500.026306 234.815918,500.244690 235.055389,500.731567 
	C235.000000,501.000000 234.500000,501.000000 234.250000,501.000000 
z"/>
<path fill="#505565" opacity="1.000000" stroke="none" 
	d="
M263.145081,499.515686 
	C255.643997,499.925262 248.271896,499.967804 240.433929,499.938873 
	C235.258270,499.250000 230.548462,498.632599 225.369232,498.038483 
	C193.113083,497.077393 164.283066,486.170135 136.538208,472.803741 
	C139.561905,465.665771 142.197784,459.427887 144.846786,453.195557 
	C146.505798,449.292358 148.181992,445.396393 149.855316,441.499298 
	C150.860352,439.158630 150.964966,437.255615 147.231522,436.567200 
	C141.836838,434.387238 136.939682,432.480042 131.945969,430.872772 
	C130.055115,430.264160 127.941597,430.347412 125.929581,430.115295 
	C119.125824,428.159576 112.313858,426.231812 105.521233,424.238159 
	C101.099731,422.940399 96.785736,421.013123 92.278580,420.342896 
	C87.582504,419.644531 87.895325,417.426636 89.106888,414.162170 
	C91.559525,407.553650 93.913696,400.908508 96.377853,394.304382 
	C99.937187,384.765076 103.644814,375.280396 107.128593,365.713898 
	C110.631668,356.094452 116.273712,350.056122 127.155228,347.559998 
	C149.284485,342.483765 171.029984,335.737488 192.947525,329.730164 
	C194.712509,329.246399 196.584503,329.153107 198.406769,328.878387 
	C198.573242,329.366180 198.739716,329.854004 198.906204,330.341827 
	C196.531815,331.576660 194.080658,332.684601 191.795624,334.067078 
	C177.909714,342.468445 177.137955,351.442780 189.909515,360.917755 
	C198.452240,367.255493 208.617966,370.403229 218.916809,371.777832 
	C232.493820,373.590027 246.299332,375.173981 259.933441,374.709320 
	C278.110992,374.089813 296.210938,371.275024 312.033997,360.995880 
	C319.747589,355.984894 322.994141,349.121063 319.696289,343.290344 
	C317.692261,339.747070 313.742188,337.311981 310.702484,334.342041 
	C309.849548,333.508667 309.124695,332.544189 308.341064,331.639893 
	C309.441162,331.373291 310.647095,330.668854 311.625671,330.905304 
	C328.298309,334.934174 344.964325,338.995605 361.580414,343.250397 
	C366.610718,344.538483 371.420319,346.683502 376.446014,347.995544 
	C385.630249,350.393250 390.763153,356.490265 393.713867,365.175873 
	C396.508301,373.401398 399.808319,381.454010 402.807983,389.611359 
	C404.602936,394.492523 406.135742,399.471649 407.990906,404.328644 
	C409.999451,409.587280 412.245850,414.755066 414.048370,419.135834 
	C392.770325,425.679535 372.279449,431.981140 351.162506,438.475250 
	C356.012573,448.864960 360.792419,459.104248 365.464966,469.113678 
	C366.194946,469.265289 366.589600,469.479462 366.759583,469.363739 
	C377.840271,461.818237 389.061859,454.464783 399.899963,446.584106 
	C405.343689,442.625854 410.026764,437.633392 415.181610,433.259125 
	C416.874603,431.822479 418.985443,430.541870 420.905090,433.954102 
	C410.291901,443.273407 400.057556,453.237396 387.386658,460.190491 
	C378.305695,465.173584 369.663147,471.157257 360.175873,475.153381 
	C343.808197,482.047699 327.183105,488.575867 310.182312,493.630707 
	C299.925690,496.680328 288.755920,496.658722 277.553406,498.042725 
	C272.498230,498.428406 267.886139,498.788513 263.145081,499.515686 
z"/>
<path fill="#F5CBB3" opacity="1.000000" stroke="none" 
	d="
M205.909119,312.056854 
	C193.368835,303.162018 183.278900,291.968964 175.029556,279.062897 
	C166.093597,265.082672 159.807281,249.981461 156.106522,233.156464 
	C155.979950,231.310364 155.754959,230.145264 155.396729,228.656830 
	C155.239471,227.869675 155.215469,227.405899 155.355377,226.791260 
	C155.257172,226.067322 154.995041,225.494263 154.566559,224.575226 
	C154.331726,223.468079 154.263275,222.706894 154.379608,221.720428 
	C153.637985,215.973083 152.711594,210.451004 151.664597,204.632355 
	C151.547485,203.912399 151.550980,203.488998 151.815506,202.923523 
	C151.817978,201.504761 151.559433,200.228058 151.212463,198.584625 
	C151.134247,197.466797 151.144409,196.715729 151.389099,195.628754 
	C152.061829,186.627075 152.554489,177.963379 152.892426,169.293671 
	C152.960083,167.557587 152.438248,165.798523 152.158295,163.672775 
	C152.250656,162.551651 152.372955,161.807800 152.796661,160.903412 
	C153.630981,159.212219 154.598434,157.687424 154.619110,156.149902 
	C154.695511,150.468918 158.040955,148.572556 163.027267,147.907150 
	C164.775162,147.673889 166.398788,146.509521 168.433716,145.621643 
	C169.548828,145.401550 170.309387,145.330170 171.287323,145.432129 
	C173.355988,145.205841 175.207291,144.806183 177.433105,144.268219 
	C178.865311,144.048355 179.923004,143.966797 181.263489,144.133209 
	C185.710159,143.696030 189.874054,143.010880 194.361786,142.222473 
	C195.136398,142.118149 195.587173,142.117050 196.365448,142.345215 
	C204.233246,142.315613 211.775192,142.091309 219.310699,141.731918 
	C219.910904,141.703308 220.466568,140.740417 221.361755,140.124115 
	C222.118576,140.059814 222.556595,140.083099 223.287796,140.327057 
	C228.808777,140.885727 230.606033,137.581055 228.782135,130.708008 
	C228.827240,130.299210 228.885803,130.141876 229.255829,129.790253 
	C230.447495,124.080200 231.327728,118.564468 232.190247,112.729813 
	C232.407684,111.600761 232.642838,110.790627 233.302704,109.982666 
	C234.577072,109.978088 235.426712,109.971336 236.350739,110.301727 
	C236.343491,111.088593 236.261856,111.538315 235.908295,112.251190 
	C235.729111,114.672165 235.821838,116.829994 235.979309,119.402893 
	C235.920822,121.205574 235.797592,122.593193 235.333145,124.142761 
	C234.989609,128.534607 234.987274,132.764481 235.046722,137.319580 
	C235.129776,138.306000 235.151062,138.967194 235.161896,139.918884 
	C235.763901,140.517746 236.376343,140.826111 237.366028,141.151794 
	C238.497879,141.196915 239.252441,141.224701 240.119476,141.338638 
	C240.231918,141.424774 240.637024,141.460846 240.637024,141.460846 
	C240.637024,141.460846 240.991714,141.241440 241.429260,141.216370 
	C244.563904,140.822128 247.261017,140.452988 250.370850,139.887665 
	C253.900528,139.120712 257.017456,138.549911 260.355011,137.662811 
	C260.423889,134.569641 260.272156,131.792770 260.057678,128.574829 
	C260.036255,125.761063 260.077606,123.388359 260.446228,121.019806 
	C261.963348,122.035477 263.153137,123.047012 264.492676,124.435303 
	C264.712494,125.886833 264.782623,126.961609 264.645203,128.266418 
	C264.674652,131.765488 264.641235,135.088593 265.279144,138.277420 
	C265.541687,139.590012 267.221710,141.573425 268.303436,141.603897 
	C273.188019,141.741486 278.089172,141.289139 283.411652,141.002609 
	C285.543152,141.113602 287.247406,141.271317 289.124908,141.748779 
	C292.528564,142.108383 295.758972,142.148209 299.322205,142.150482 
	C300.087952,142.210403 300.520844,142.307861 301.115845,142.718384 
	C303.839111,143.067398 306.400269,143.103363 309.302124,143.103485 
	C310.082977,143.176926 310.523071,143.286209 311.081879,143.680237 
	C313.454987,144.020981 315.709442,144.076996 318.343872,144.103729 
	C319.461426,144.244293 320.198914,144.414154 321.062683,144.830902 
	C325.469360,146.030380 329.708527,147.405884 334.040649,147.828430 
	C339.446930,148.355743 345.100647,147.711929 347.926880,154.395462 
	C348.317017,156.862244 348.572510,158.959412 348.638123,161.240967 
	C348.695190,162.300613 348.942108,163.175842 349.334625,164.347214 
	C349.488342,165.079834 349.496399,165.516312 349.244141,166.061859 
	C349.237640,167.122849 349.491516,168.074768 349.845703,169.352676 
	C349.925934,170.130463 349.905823,170.582245 349.672882,171.276978 
	C349.716400,173.034714 349.972748,174.549515 350.367218,176.453003 
	C350.521423,178.211884 350.537506,179.582123 350.240173,181.127274 
	C350.148407,184.217392 350.370087,187.132599 350.660828,190.407715 
	C350.665436,191.493286 350.600952,192.218933 350.222412,193.126404 
	C349.896881,196.527740 349.885406,199.747253 349.917908,203.396149 
	C349.759552,205.528870 349.557251,207.232193 349.106720,209.051468 
	C348.872253,210.104416 348.886017,211.041443 348.927979,212.380249 
	C348.767181,213.833511 348.578247,214.884995 348.099304,216.090088 
	C347.483521,218.813660 347.157715,221.383606 346.856201,224.280457 
	C346.639252,225.428497 346.397980,226.249588 345.850647,227.109680 
	C345.546387,228.113297 345.548279,229.077911 345.634216,230.302795 
	C345.825714,230.710358 345.933136,230.857681 346.067322,230.985001 
	C346.094055,230.964981 346.097290,230.898270 346.097290,230.898270 
	C346.013977,231.136261 345.930695,231.374237 345.483826,232.098373 
	C345.111938,233.047424 345.103638,233.510300 345.095367,233.973190 
	C340.631134,253.297882 333.060059,271.340210 320.486603,286.702423 
	C313.077301,295.755066 304.033600,303.469971 295.043335,311.922394 
	C292.469849,313.013855 290.488800,313.826965 288.699524,314.946564 
	C263.558929,330.676971 235.448135,329.181610 210.689011,314.328064 
	C209.183411,313.424835 207.506393,312.807312 205.909119,312.056854 
z"/>
<path fill="#353843" opacity="1.000000" stroke="none" 
	d="
M264.852722,128.036377 
	C264.782623,126.961609 264.712494,125.886833 264.549225,124.035690 
	C263.319824,115.806732 262.183563,108.354156 261.047333,100.901588 
	C260.737854,100.960320 260.428406,101.019058 260.118958,101.077797 
	C260.118958,107.723755 260.118958,114.369705 260.118958,121.015663 
	C260.077606,123.388359 260.036255,125.761063 259.965515,129.015320 
	C260.002228,132.590973 260.068329,135.285034 260.134399,137.979111 
	C257.017456,138.549911 253.900528,139.120712 250.052460,139.647644 
	C245.235565,139.907623 241.149841,140.211487 236.826691,140.237183 
	C236.116974,139.848816 235.644653,139.738602 235.172333,139.628403 
	C235.151062,138.967194 235.129776,138.306000 235.160736,136.882233 
	C235.366776,132.073380 235.520569,128.027100 235.674362,123.980804 
	C235.797592,122.593193 235.920822,121.205574 236.097321,118.978439 
	C236.160477,116.088615 236.170349,114.038330 236.180222,111.988037 
	C236.261856,111.538315 236.343491,111.088593 236.508148,109.927887 
	C236.753113,105.150719 236.915039,101.084534 237.174316,96.704514 
	C237.193512,95.275833 237.115356,94.160988 237.037201,93.046143 
	C236.653427,93.028610 236.269653,93.011078 235.885864,92.993553 
	C235.677124,94.335945 235.468369,95.678337 235.117615,97.406464 
	C234.276382,101.854958 233.577179,105.917725 232.877991,109.980484 
	C232.642838,110.790627 232.407684,111.600761 231.996964,113.051437 
	C230.862381,119.122833 229.903381,124.553696 228.944366,129.984558 
	C228.885803,130.141876 228.827240,130.299210 228.579178,131.007385 
	C226.899673,134.602234 228.904739,139.852112 222.994598,140.106384 
	C222.556595,140.083099 222.118576,140.059814 220.901230,140.033966 
	C212.093903,140.726273 204.065918,141.421112 196.037933,142.115952 
	C195.587173,142.117050 195.136398,142.118149 193.928009,142.141022 
	C189.107147,142.736969 185.043915,143.311111 180.980698,143.885254 
	C179.923004,143.966797 178.865311,144.048355 177.045227,144.199066 
	C174.545212,144.598389 172.807571,144.928574 171.069946,145.258774 
	C170.309387,145.330170 169.548828,145.401550 168.039093,145.539124 
	C153.407272,147.546371 153.406860,147.546341 152.421951,160.575607 
	C152.409866,160.735641 152.469238,160.901062 152.495239,161.063965 
	C152.372955,161.807800 152.250656,162.551651 151.988007,164.035873 
	C151.616623,175.172394 151.385605,185.568512 151.154587,195.964645 
	C151.144409,196.715729 151.134247,197.466797 151.121338,198.994171 
	C151.263885,200.868835 151.409180,201.967224 151.554474,203.065613 
	C151.550980,203.488998 151.547485,203.912399 151.569824,205.037506 
	C152.462051,211.141403 153.328430,216.543549 154.194824,221.945709 
	C154.263275,222.706894 154.331726,223.468079 154.503540,224.840027 
	C154.801758,225.947906 154.996613,226.445007 155.191452,226.942108 
	C155.215469,227.405899 155.239471,227.869675 155.250259,228.891449 
	C154.953186,229.647659 154.669342,229.845917 154.385498,230.044174 
	C149.230988,220.343048 143.785934,210.780823 139.051544,200.878815 
	C136.870789,196.317734 136.331879,191.000305 134.583649,186.194962 
	C133.112976,182.152588 129.939316,178.514908 129.304077,174.421173 
	C126.740746,157.901947 127.725296,141.382416 131.621964,125.139198 
	C133.851120,115.846954 136.768753,106.719887 139.905151,97.075211 
	C140.627975,96.021530 140.822052,95.411087 141.016129,94.800636 
	C141.016129,94.800636 141.074966,94.449318 141.303268,94.125938 
	C141.764099,93.571220 141.926056,93.298050 142.017471,92.983063 
	C142.017471,92.983063 142.019073,93.012001 142.255966,92.773186 
	C142.669312,91.627213 142.845764,90.720055 143.022217,89.812897 
	C143.022217,89.812897 143.079468,89.470734 143.313629,89.121780 
	C143.703644,88.450378 143.859512,88.127937 144.015381,87.805489 
	C144.015381,87.805489 144.058762,87.472435 144.299591,87.125687 
	C144.697220,86.446716 144.854034,86.114487 145.010849,85.782257 
	C145.010849,85.782257 145.032898,85.452370 145.260712,85.136452 
	C145.658035,84.534416 145.827545,84.248306 145.997070,83.962189 
	C145.997055,83.962189 146.000000,84.008759 146.326874,83.934250 
	C147.775482,81.234291 148.897202,78.608826 150.018921,75.983360 
	C150.018921,75.983360 150.017990,76.018555 150.227112,75.886414 
	C150.626801,75.463531 150.817368,75.172791 151.007935,74.882057 
	C153.778748,70.650391 156.396515,66.307266 159.370621,62.223663 
	C161.595810,59.168400 164.280289,56.447651 167.111206,53.149155 
	C167.708099,52.519436 167.889832,52.271435 168.007339,51.976349 
	C168.007339,51.976349 168.008514,52.011974 168.217712,51.901253 
	C168.620422,51.523636 168.813934,51.256733 169.007431,50.989830 
	C169.007431,50.989830 169.005020,51.004337 169.217346,50.891834 
	C169.703552,50.577244 169.899643,50.316612 170.017929,49.997437 
	C170.017929,49.997437 170.007980,50.007973 170.220612,49.892750 
	C170.702713,49.566864 170.893265,49.299877 171.004913,48.976562 
	C171.004913,48.976562 171.008606,49.008663 171.214844,48.892227 
	C171.698257,48.570473 171.892548,48.304577 172.003937,47.978107 
	C172.003937,47.978107 172.007431,48.007397 172.214828,47.892006 
	C172.699234,47.572842 172.894562,47.308659 173.008179,46.984066 
	C173.008179,46.984066 173.007599,47.008076 173.216904,46.895336 
	C173.701965,46.580242 173.897629,46.318100 174.013168,45.996162 
	C174.013168,45.996162 174.005203,46.005573 174.220535,45.896904 
	C174.711411,45.587135 174.904922,45.325390 175.016403,45.003002 
	C175.016403,45.003002 175.003662,45.003689 175.221909,44.894791 
	C175.712204,44.581532 175.902756,44.318211 176.011841,43.995926 
	C176.011841,43.995926 176.004517,44.004574 176.219543,43.897087 
	C176.708771,43.590572 176.903183,43.331635 177.017792,43.012787 
	C177.017792,43.012787 177.000992,43.000580 177.223877,42.902939 
	C177.720581,42.613052 177.911835,42.358715 178.020508,42.042286 
	C178.020508,42.042286 178.006470,42.006077 178.236145,41.907074 
	C178.733185,41.616478 178.914017,41.363125 179.008316,41.048012 
	C179.008316,41.048012 179.014938,41.014885 179.325638,40.999279 
	C180.082535,40.630566 180.528717,40.277458 180.974899,39.924347 
	C180.974899,39.924343 180.996750,39.989815 181.264160,39.938641 
	C181.993958,39.554119 182.456375,39.220772 182.918793,38.887428 
	C183.424118,38.340572 183.929443,37.793716 185.049484,37.112186 
	C186.783066,35.980885 187.901947,34.984257 189.020828,33.987633 
	C189.020828,33.987637 189.015442,34.021584 189.221191,33.919624 
	C189.706070,33.635029 189.929031,33.399269 190.095840,33.110390 
	C190.095840,33.110390 190.471008,33.047394 191.059082,33.022636 
	C197.073074,30.691216 202.499008,28.384546 207.924927,26.077879 
	C211.386139,25.500334 214.847366,24.922789 218.981766,24.444225 
	C224.447174,25.027386 229.239410,25.511564 234.031631,25.995741 
	C234.031631,25.995741 233.995392,26.008665 234.085938,26.331627 
	C237.833176,28.102516 241.489883,29.550444 245.146591,30.998367 
	C245.146591,30.998367 245.529709,31.059301 245.845001,31.291229 
	C246.353714,31.756924 246.583130,31.947313 246.848541,32.094326 
	C248.977997,35.137688 251.322372,33.763916 253.815475,32.575607 
	C258.652161,30.270260 263.378235,27.001486 268.488281,26.141829 
	C282.300568,23.818199 296.189728,23.172508 308.439728,32.186111 
	C308.959259,32.568386 309.636566,32.736248 310.736328,33.267395 
	C311.457489,33.757885 311.723907,33.914940 312.031616,34.001961 
	C312.031616,34.001961 311.992310,34.007217 312.069641,34.324722 
	C313.110168,35.090488 314.073364,35.538754 315.036591,35.987011 
	C315.036591,35.987007 314.997498,36.004520 315.074219,36.319324 
	C316.109192,37.086277 317.067444,37.538425 318.025696,37.990574 
	C318.025696,37.990578 317.999939,38.007137 318.134766,38.220055 
	C318.567291,38.619003 318.864990,38.805031 319.162659,38.991058 
	C319.162659,38.991058 319.562317,39.048862 319.895844,39.282448 
	C320.443634,39.749950 320.701904,39.914967 321.004211,40.011074 
	C321.004211,40.011074 320.996185,40.004169 321.106262,40.220493 
	C321.420898,40.711739 321.686462,40.901096 322.013062,41.004894 
	C322.013062,41.004894 321.995605,41.004738 322.109375,41.217022 
	C322.428284,41.704494 322.693481,41.896832 323.018768,42.006313 
	C323.018768,42.006313 322.992371,42.008068 323.124817,42.223976 
	C323.551147,42.629303 323.845093,42.818718 324.139008,43.008133 
	C324.139008,43.008137 324.518433,43.075317 324.852417,43.302101 
	C325.409027,43.766582 325.677032,43.929653 325.990448,44.018093 
	C325.990448,44.018093 325.998779,44.001526 326.104309,44.223289 
	C326.413177,44.714710 326.674194,44.905396 326.992920,45.017109 
	C326.992920,45.017109 326.994568,45.002182 327.001556,45.363503 
	C327.995056,46.493465 328.981567,47.262104 329.968048,48.030754 
	C329.968048,48.030758 329.986359,48.001591 330.087891,48.234692 
	C330.384735,48.740192 330.642792,48.924980 330.963623,49.022160 
	C330.963623,49.022160 330.995026,49.004272 331.094604,49.236145 
	C331.392059,49.737022 331.650238,49.921848 331.968689,50.022503 
	C331.968689,50.022503 331.997559,50.009930 332.038208,50.327625 
	C332.699860,51.108189 333.320923,51.571056 333.941956,52.033920 
	C333.941956,52.033920 333.972900,52.025505 334.077881,52.254654 
	C334.374969,52.751339 334.630402,52.926620 334.949188,53.009640 
	C334.949188,53.009640 334.976746,53.020527 334.995209,53.328907 
	C335.359711,54.090755 335.705750,54.544224 336.051788,54.997688 
	C336.051788,54.997684 335.996796,55.005638 336.102570,55.196846 
	C336.385315,55.661366 336.614563,55.879841 336.896057,56.043472 
	C350.304352,70.442833 359.531250,87.217659 364.800201,106.108841 
	C367.645813,116.311325 370.062378,126.641998 372.359406,136.984375 
	C373.177582,140.668289 373.455536,144.571899 373.312897,148.350037 
	C372.943909,158.123474 373.949524,168.405975 371.216400,177.529617 
	C366.722839,192.529861 359.855042,206.837585 353.655701,221.294662 
	C352.149170,224.807938 349.347260,227.765747 346.597229,231.222443 
	C346.053467,231.465912 346.040588,231.005020 346.040588,231.005020 
	C345.933136,230.857681 345.825714,230.710358 345.797913,229.954865 
	C345.970581,228.588028 346.063660,227.829361 346.156738,227.070694 
	C346.397980,226.249588 346.639252,225.428497 347.046204,223.966064 
	C347.604401,220.861969 347.996857,218.399216 348.389313,215.936462 
	C348.578247,214.884995 348.767181,213.833511 349.095764,212.108917 
	C349.275269,210.602386 349.315125,209.768951 349.354980,208.935532 
	C349.557251,207.232193 349.759552,205.528870 350.087830,203.037445 
	C350.321381,199.147766 350.428925,196.046173 350.536469,192.944580 
	C350.600952,192.218933 350.665436,191.493286 350.773712,189.963928 
	C350.729523,186.424271 350.641571,183.688309 350.553589,180.952347 
	C350.537506,179.582123 350.521423,178.211884 350.484436,176.099396 
	C350.270935,173.916092 350.078308,172.475067 349.885681,171.034042 
	C349.905823,170.582245 349.925934,170.130463 349.924774,168.967224 
	C349.770508,167.488113 349.637512,166.720459 349.504486,165.952805 
	C349.496399,165.516312 349.488342,165.079834 349.427551,164.049225 
	C349.192566,162.655594 349.010254,161.856079 348.827972,161.056580 
	C348.572510,158.959412 348.317017,156.862244 347.983307,154.000214 
	C347.632904,150.817368 347.874268,148.178024 344.351807,147.736649 
	C336.537720,146.757477 328.740509,145.643204 320.936432,144.584015 
	C320.198914,144.414154 319.461426,144.244293 317.996521,143.943481 
	C315.167175,143.673508 313.065186,143.534515 310.963196,143.395508 
	C310.523071,143.286209 310.082977,143.176926 308.946655,142.947510 
	C305.818237,142.686691 303.386017,142.546005 300.953766,142.405334 
	C300.520844,142.307861 300.087952,142.210403 298.946655,142.002716 
	C295.142731,141.737991 292.047180,141.583496 288.951630,141.429016 
	C287.247406,141.271317 285.543152,141.113602 283.029053,140.875031 
	C277.770386,140.522415 272.332733,141.699860 269.170715,139.542252 
	C266.403015,137.653717 266.192749,132.017212 264.852722,128.036377 
z"/>
<path fill="#343842" opacity="1.000000" stroke="none" 
	d="
M356.014740,235.866699 
	C356.014740,235.866699 356.076935,235.450302 356.336731,234.985931 
	C356.737885,233.640274 356.879242,232.758957 357.020569,231.877640 
	C357.020538,231.877640 357.090393,231.454529 357.303345,231.099121 
	C357.731506,230.519180 357.887634,230.259186 357.984680,229.963715 
	C358.450592,229.423325 359.005005,228.356689 359.369690,228.418045 
	C377.088623,231.397690 387.047058,219.889191 388.549744,205.656937 
	C402.226440,205.202286 415.237671,207.808640 426.590454,215.647278 
	C435.383911,221.718781 439.865631,230.963257 440.831482,241.362442 
	C442.048981,254.470901 442.410736,267.666565 442.858917,280.834259 
	C443.001770,285.031097 442.695648,289.357178 441.803345,293.451630 
	C439.917633,302.104919 441.565216,310.131042 444.986481,318.012421 
	C445.300201,318.735107 445.499725,319.507385 446.029205,321.078186 
	C440.086121,320.293518 434.675476,319.982117 429.462189,318.800201 
	C420.783630,316.832764 412.172821,314.505005 403.640137,311.970001 
	C391.108124,308.246826 379.722809,302.048828 370.142395,293.261078 
	C362.999481,286.709137 358.633942,278.078857 357.012085,268.327515 
	C356.552094,265.561951 356.319336,262.758606 355.982025,259.066620 
	C355.992706,250.729324 356.003723,243.298019 356.014740,235.866699 
z"/>
<path fill="#343842" opacity="1.000000" stroke="none" 
	d="
M60.023060,247.904846 
	C60.023060,247.904846 60.083893,247.455017 60.364441,246.954773 
	C61.102219,242.928680 61.559444,239.402832 62.016670,235.876984 
	C62.016670,235.876984 62.080219,235.463562 62.322861,235.028717 
	C62.704102,233.999390 62.842709,233.404907 62.981316,232.810425 
	C62.981316,232.810425 63.025505,232.422287 63.273071,232.025665 
	C63.675911,231.076920 63.831188,230.524765 63.986469,229.972626 
	C63.986469,229.972626 63.999615,230.004425 64.331902,229.915787 
	C65.114899,228.549622 65.565605,227.272095 66.016327,225.994568 
	C76.996902,208.419464 94.321198,205.334427 113.257774,205.137924 
	C113.520348,206.274460 113.827919,207.190384 113.934502,208.129120 
	C115.639603,223.146698 130.385635,231.861984 142.092606,228.098328 
	C142.507614,227.964905 143.055710,228.245438 143.791718,229.026825 
	C144.705078,232.147797 145.368500,234.574982 146.031906,237.002151 
	C146.031906,237.002151 145.994858,237.005081 145.992737,237.459351 
	C145.992203,244.681107 145.993805,251.448608 145.995407,258.216095 
	C145.995407,258.216095 145.938034,258.580994 145.649109,259.042694 
	C144.913315,263.017944 144.466476,266.531494 144.019623,270.045044 
	C144.019623,270.045044 144.002228,269.994934 143.655167,270.109558 
	C142.874207,272.828217 142.440292,275.432281 142.006378,278.036346 
	C142.006378,278.036346 141.988312,277.992798 141.773331,278.177368 
	C141.384201,278.930145 141.210037,279.498352 141.035873,280.066528 
	C141.035873,280.066528 141.009415,280.006927 140.793732,280.200073 
	C140.398331,280.981506 140.218613,281.569824 140.038895,282.158142 
	C133.341736,294.216888 122.248093,301.113281 110.418930,306.969604 
	C94.368347,314.915833 76.911896,317.978241 59.457523,320.906403 
	C58.279823,321.104004 56.986420,320.612030 55.258167,320.373260 
	C61.173969,310.181305 59.870441,299.493774 59.985035,288.060364 
	C59.993935,274.049896 60.008495,260.977386 60.023060,247.904846 
z"/>
<path fill="#E9BFA9" opacity="1.000000" stroke="none" 
	d="
M205.947433,312.515808 
	C207.506393,312.807312 209.183411,313.424835 210.689011,314.328064 
	C235.448135,329.181610 263.558929,330.676971 288.699524,314.946564 
	C290.488800,313.826965 292.469849,313.013855 294.731659,312.055908 
	C295.313751,320.584442 295.583954,329.114563 295.685333,337.646759 
	C295.703857,339.206573 295.034912,340.774567 294.567352,342.854675 
	C285.010712,346.886383 275.058868,350.936920 263.076965,351.007751 
	C254.129562,350.677521 246.099396,350.319885 238.066544,350.038727 
	C235.696350,349.955719 233.318604,350.088959 230.944321,350.123169 
	C230.203293,350.076569 229.462280,350.029999 228.201477,349.733582 
	C227.440079,349.279510 227.167770,349.131958 226.864746,349.041077 
	C220.594376,347.195526 214.260803,345.527466 208.112488,343.338959 
	C207.019531,342.949921 206.442657,340.456238 206.070648,338.832855 
	C205.296494,335.454498 204.537186,332.024323 204.339600,328.582825 
	C204.242142,326.885223 205.783157,325.144348 205.921127,323.371552 
	C206.189331,319.925140 205.990875,316.442413 205.947433,312.515808 
z"/>
<path fill="#4E2729" opacity="1.000000" stroke="none" 
	d="
M59.736202,248.222443 
	C60.008495,260.977386 59.993935,274.049896 59.961647,287.597229 
	C59.688263,287.657806 59.207920,287.242676 59.209568,286.829437 
	C59.260468,274.066193 59.358547,261.303131 59.736202,248.222443 
z"/>
<path fill="#DEC8B7" opacity="1.000000" stroke="none" 
	d="
M231.164398,350.478882 
	C233.318604,350.088959 235.696350,349.955719 238.066544,350.038727 
	C246.099396,350.319885 254.129562,350.677521 262.637268,351.015167 
	C261.594177,351.347961 260.064728,351.989838 258.556641,351.942963 
	C249.496521,351.661285 240.441315,351.221497 231.164398,350.478882 
z"/>
<path fill="#5C6370" opacity="1.000000" stroke="none" 
	d="
M126.164574,430.396667 
	C127.941597,430.347412 130.055115,430.264160 131.945969,430.872772 
	C136.939682,432.480042 141.836838,434.387238 146.871689,436.507874 
	C140.113815,434.786499 133.256683,432.732269 126.164574,430.396667 
z"/>
<path fill="#D3C6BC" opacity="1.000000" stroke="none" 
	d="
M92.088684,441.899475 
	C96.601143,445.040436 101.113602,448.181366 105.626060,451.322296 
	C105.162872,451.957764 104.699692,452.593231 104.236504,453.228729 
	C100.055023,449.860870 95.873543,446.493011 91.692657,442.699860 
	C91.825073,442.149506 91.956879,442.024506 92.088684,441.899475 
z"/>
<path fill="#532022" opacity="1.000000" stroke="none" 
	d="
M207.524750,26.044167 
	C202.499008,28.384546 197.073074,30.691216 191.248398,33.004307 
	C196.274612,30.677305 201.699585,28.343878 207.524750,26.044167 
z"/>
<path fill="#B8A89C" opacity="1.000000" stroke="none" 
	d="
M119.076729,460.912933 
	C123.118591,463.095978 127.160446,465.279053 131.202316,467.462097 
	C130.902771,468.022125 130.603226,468.582153 130.303680,469.142151 
	C126.451416,466.819275 122.599144,464.496429 118.717239,461.732849 
	C118.817322,461.165710 118.947021,461.039307 119.076729,460.912933 
z"/>
<path fill="#4F2928" opacity="1.000000" stroke="none" 
	d="
M355.725281,236.186249 
	C356.003723,243.298019 355.992706,250.729324 355.966919,258.640137 
	C355.780029,251.581711 355.607941,244.043762 355.725281,236.186249 
z"/>
<path fill="#4E2528" opacity="1.000000" stroke="none" 
	d="
M233.763641,25.719749 
	C229.239410,25.511564 224.447174,25.027386 219.361816,24.317307 
	C223.877686,24.542187 228.686676,24.992971 233.763641,25.719749 
z"/>
<path fill="#4E2528" opacity="1.000000" stroke="none" 
	d="
M244.944946,30.707203 
	C241.489883,29.550444 237.833176,28.102516 234.087296,26.312437 
	C237.579849,27.452202 241.161560,28.934120 244.944946,30.707203 
z"/>
<path fill="#552828" opacity="1.000000" stroke="none" 
	d="
M146.295761,257.895630 
	C145.993805,251.448608 145.992203,244.681107 146.000717,237.442566 
	C146.205933,243.839386 146.401031,250.707260 146.295761,257.895630 
z"/>
<path fill="#D3C6BC" opacity="1.000000" stroke="none" 
	d="
M87.359451,438.689972 
	C85.308998,437.171234 83.258560,435.652496 81.208115,434.133728 
	C81.367149,433.721954 81.526184,433.310150 81.685219,432.898376 
	C82.875862,433.207428 84.292770,433.217102 85.199165,433.902222 
	C86.302307,434.736053 86.975655,436.138489 87.769943,437.791992 
	C87.589806,438.422638 87.474632,438.556305 87.359451,438.689972 
z"/>
<path fill="#4E2729" opacity="1.000000" stroke="none" 
	d="
M61.736893,236.153107 
	C61.559444,239.402832 61.102219,242.928680 60.392975,246.729614 
	C60.579674,243.479538 61.018394,239.954376 61.736893,236.153107 
z"/>
<path fill="#552828" opacity="1.000000" stroke="none" 
	d="
M144.317963,269.791382 
	C144.466476,266.531494 144.913315,263.017944 145.615021,259.224213 
	C145.452026,262.475250 145.034164,266.006500 144.317963,269.791382 
z"/>
<path fill="#552626" opacity="1.000000" stroke="none" 
	d="
M149.743042,76.186920 
	C148.897202,78.608826 147.775482,81.234291 146.305786,83.924309 
	C147.127594,81.456078 148.297379,78.923279 149.743042,76.186920 
z"/>
<path fill="#552828" opacity="1.000000" stroke="none" 
	d="
M142.296539,277.802124 
	C142.440292,275.432281 142.874207,272.828217 143.680481,270.117462 
	C143.564133,272.529816 143.075409,275.048828 142.296539,277.802124 
z"/>
<path fill="#B8A89C" opacity="1.000000" stroke="none" 
	d="
M118.484528,461.472595 
	C116.378357,460.681244 114.475266,459.709473 112.572182,458.737701 
	C112.852524,458.246399 113.132866,457.755096 113.413208,457.263794 
	C115.205467,458.268036 116.997734,459.272278 118.933365,460.594727 
	C118.947021,461.039307 118.817322,461.165710 118.484528,461.472595 
z"/>
<path fill="#552828" opacity="1.000000" stroke="none" 
	d="
M146.012451,236.603577 
	C145.368500,234.574982 144.705078,232.147797 144.066422,229.291748 
	C144.725128,231.310242 145.359055,233.757629 146.012451,236.603577 
z"/>
<path fill="#532022" opacity="1.000000" stroke="none" 
	d="
M188.692368,34.030716 
	C187.901947,34.984257 186.783066,35.980885 185.299896,36.983849 
	C186.078354,36.018055 187.221130,35.045929 188.692368,34.030716 
z"/>
<path fill="#D3B8AA" opacity="1.000000" stroke="none" 
	d="
M154.499847,230.322235 
	C154.669342,229.845917 154.953186,229.647659 155.383514,229.214798 
	C155.754959,230.145264 155.979950,231.310364 156.057983,232.754486 
	C155.478745,232.222427 155.046463,231.411362 154.499847,230.322235 
z"/>
<path fill="#491F21" opacity="1.000000" stroke="none" 
	d="
M329.839264,47.748947 
	C328.981567,47.262104 327.995056,46.493465 326.993652,45.365604 
	C327.889374,45.826641 328.799927,46.646896 329.839264,47.748947 
z"/>
<path fill="#4E2729" opacity="1.000000" stroke="none" 
	d="
M65.735954,226.170792 
	C65.565605,227.272095 65.114899,228.549622 64.316216,229.908478 
	C64.464027,228.775558 64.959808,227.561279 65.735954,226.170792 
z"/>
<path fill="#50232C" opacity="1.000000" stroke="none" 
	d="
M317.867584,37.713379 
	C317.067444,37.538425 316.109192,37.086277 315.078766,36.298370 
	C315.907562,36.453800 316.808502,36.944992 317.867584,37.713379 
z"/>
<path fill="#50232C" opacity="1.000000" stroke="none" 
	d="
M314.880035,35.706429 
	C314.073364,35.538754 313.110168,35.090488 312.074524,34.305496 
	C312.909241,34.454464 313.816345,34.940151 314.880035,35.706429 
z"/>
<path fill="#4F2928" opacity="1.000000" stroke="none" 
	d="
M356.752930,232.102478 
	C356.879242,232.758957 356.737885,233.640274 356.381134,234.780167 
	C356.272217,234.134949 356.378723,233.231140 356.752930,232.102478 
z"/>
<path fill="#491F21" opacity="1.000000" stroke="none" 
	d="
M333.815552,51.773853 
	C333.320923,51.571056 332.699860,51.108189 332.023071,50.338772 
	C332.541229,50.526077 333.115173,51.019932 333.815552,51.773853 
z"/>
<path fill="#552626" opacity="1.000000" stroke="none" 
	d="
M142.751923,90.043907 
	C142.845764,90.720055 142.669312,91.627213 142.242279,92.777924 
	C142.155014,92.105957 142.318329,91.190437 142.751923,90.043907 
z"/>
<path fill="#552828" opacity="1.000000" stroke="none" 
	d="
M140.267822,281.951111 
	C140.218613,281.569824 140.398331,280.981506 140.826324,280.200287 
	C140.881989,280.586273 140.689362,281.165161 140.267822,281.951111 
z"/>
<path fill="#D6BCAE" opacity="1.000000" stroke="none" 
	d="
M345.355774,233.864075 
	C345.103638,233.510300 345.111938,233.047424 345.259918,232.403137 
	C345.471771,232.732819 345.543976,233.243881 345.355774,233.864075 
z"/>
<path fill="#4E2729" opacity="1.000000" stroke="none" 
	d="
M62.740360,233.019562 
	C62.842709,233.404907 62.704102,233.999390 62.358231,234.822571 
	C62.267113,234.443756 62.383259,233.836227 62.740360,233.019562 
z"/>
<path fill="#4E2729" opacity="1.000000" stroke="none" 
	d="
M63.737518,230.142792 
	C63.831188,230.524765 63.675911,231.076920 63.311691,231.834229 
	C63.231358,231.463898 63.359962,230.888428 63.737518,230.142792 
z"/>
<path fill="#491F21" opacity="1.000000" stroke="none" 
	d="
M336.016663,54.705566 
	C335.705750,54.544224 335.359711,54.090755 334.993439,53.343624 
	C335.309326,53.504456 335.645416,53.958950 336.016663,54.705566 
z"/>
<path fill="#552626" opacity="1.000000" stroke="none" 
	d="
M140.770660,95.008392 
	C140.822052,95.411087 140.627975,96.021530 140.164459,96.819771 
	C140.105072,96.410423 140.315125,95.813286 140.770660,95.008392 
z"/>
<path fill="#D3C6BC" opacity="1.000000" stroke="none" 
	d="
M90.424240,440.142029 
	C90.906601,440.532959 91.388954,440.923889 91.979996,441.607147 
	C91.956879,442.024506 91.825073,442.149506 91.473679,442.436218 
	C90.858109,442.261383 90.462112,441.924835 90.129898,441.109528 
	C90.270546,440.467834 90.347397,440.304932 90.424240,440.142029 
z"/>
<path fill="#4C2224" opacity="1.000000" stroke="none" 
	d="
M180.685364,39.971577 
	C180.528717,40.277458 180.082535,40.630566 179.341797,41.004234 
	C179.496765,40.689461 179.946304,40.354134 180.685364,39.971577 
z"/>
<path fill="#D3C6BC" opacity="1.000000" stroke="none" 
	d="
M87.895248,438.104950 
	C88.569366,438.297363 89.053215,438.673798 89.454498,439.431763 
	C89.218895,439.907013 89.065865,440.000702 88.912834,440.094360 
	C88.505959,439.766815 88.099091,439.439270 87.525833,438.900848 
	C87.474632,438.556305 87.589806,438.422638 87.895248,438.104950 
z"/>
<path fill="#4C2224" opacity="1.000000" stroke="none" 
	d="
M182.628326,38.937027 
	C182.456375,39.220772 181.993958,39.554119 181.235229,39.919807 
	C181.405228,39.630306 181.871552,39.308472 182.628326,38.937027 
z"/>
<path fill="#552828" opacity="1.000000" stroke="none" 
	d="
M141.284332,279.891113 
	C141.210037,279.498352 141.384201,278.930145 141.796814,278.175293 
	C141.867798,278.564301 141.700287,279.140015 141.284332,279.891113 
z"/>
<path fill="#D3C6BC" opacity="1.000000" stroke="none" 
	d="
M89.616379,439.700714 
	C90.043083,439.641113 90.190353,439.744110 90.363434,440.019592 
	C90.347397,440.304932 90.270546,440.467834 90.050629,440.859985 
	C89.625328,440.919861 89.343086,440.750488 88.986847,440.337769 
	C89.065865,440.000702 89.218895,439.907013 89.616379,439.700714 
z"/>
<path fill="#50232C" opacity="1.000000" stroke="none" 
	d="
M311.913025,33.789253 
	C311.723907,33.914940 311.457489,33.757885 311.086700,33.347980 
	C311.291504,33.165443 311.575958,33.302570 311.913025,33.789253 
z"/>
<path fill="#532022" opacity="1.000000" stroke="none" 
	d="
M189.852859,33.181042 
	C189.929031,33.399269 189.706070,33.635029 189.204010,33.919540 
	C189.190659,33.764835 189.400269,33.508266 189.852859,33.181042 
z"/>
<path fill="#4E2528" opacity="1.000000" stroke="none" 
	d="
M246.777924,31.864105 
	C246.583130,31.947313 246.353714,31.756924 246.033310,31.337711 
	C246.253326,31.179775 246.520325,31.340315 246.777924,31.864105 
z"/>
<path fill="#50232C" opacity="1.000000" stroke="none" 
	d="
M321.902771,40.781872 
	C321.686462,40.901096 321.420898,40.711739 321.102417,40.216637 
	C321.319824,40.093395 321.587830,40.280861 321.902771,40.781872 
z"/>
<path fill="#50232C" opacity="1.000000" stroke="none" 
	d="
M319.020935,38.765503 
	C318.864990,38.805031 318.567291,38.619003 318.133728,38.204845 
	C318.291626,38.164459 318.585419,38.352203 319.020935,38.765503 
z"/>
<path fill="#DEC8B7" opacity="1.000000" stroke="none" 
	d="
M226.962936,349.292542 
	C227.167770,349.131958 227.440079,349.279510 227.837570,349.657928 
	C227.682663,349.736084 227.371902,349.640076 226.962936,349.292542 
z"/>
<path fill="#4C2224" opacity="1.000000" stroke="none" 
	d="
M169.788696,50.099380 
	C169.899643,50.316612 169.703552,50.577244 169.210220,50.893551 
	C169.180328,50.738956 169.369904,50.470139 169.788696,50.099380 
z"/>
<path fill="#50232C" opacity="1.000000" stroke="none" 
	d="
M320.887451,39.803314 
	C320.701904,39.914967 320.443634,39.749950 320.092255,39.329220 
	C320.290405,39.179337 320.562286,39.330383 320.887451,39.803314 
z"/>
<path fill="#4C2224" opacity="1.000000" stroke="none" 
	d="
M177.802628,42.147358 
	C177.911835,42.358715 177.720581,42.613052 177.229294,42.911469 
	C177.122406,42.702362 177.313370,42.447289 177.802628,42.147358 
z"/>
<path fill="#4C2224" opacity="1.000000" stroke="none" 
	d="
M173.786804,46.102280 
	C173.897629,46.318100 173.701965,46.580242 173.204895,46.895290 
	C173.085739,46.676430 173.278030,46.409901 173.786804,46.102280 
z"/>
<path fill="#4C2224" opacity="1.000000" stroke="none" 
	d="
M167.788315,52.077065 
	C167.889832,52.271435 167.708099,52.519436 167.269348,52.848709 
	C167.122803,52.637897 167.287048,52.371471 167.788315,52.077065 
z"/>
<path fill="#491F21" opacity="1.000000" stroke="none" 
	d="
M334.850616,52.794647 
	C334.630402,52.926620 334.374969,52.751339 334.083130,52.269814 
	C334.303558,52.136600 334.559784,52.311211 334.850616,52.794647 
z"/>
<path fill="#491F21" opacity="1.000000" stroke="none" 
	d="
M336.827148,55.806873 
	C336.614563,55.879841 336.385315,55.661366 336.109131,55.169838 
	C336.332672,55.069187 336.582092,55.275406 336.827148,55.806873 
z"/>
<path fill="#552626" opacity="1.000000" stroke="none" 
	d="
M150.801117,75.038261 
	C150.817368,75.172791 150.626801,75.463531 150.209564,75.887894 
	C150.186707,75.745827 150.390503,75.470146 150.801117,75.038261 
z"/>
<path fill="#552626" opacity="1.000000" stroke="none" 
	d="
M145.761948,84.079918 
	C145.827545,84.248306 145.658035,84.534416 145.286346,84.973145 
	C145.231705,84.816376 145.379257,84.507004 145.761948,84.079918 
z"/>
<path fill="#552626" opacity="1.000000" stroke="none" 
	d="
M144.789062,85.957596 
	C144.854034,86.114487 144.697220,86.446716 144.329453,86.960434 
	C144.268097,86.805595 144.417694,86.469269 144.789062,85.957596 
z"/>
<path fill="#552626" opacity="1.000000" stroke="none" 
	d="
M143.793884,87.972321 
	C143.859512,88.127937 143.703644,88.450378 143.343567,88.950928 
	C143.283707,88.799072 143.428040,88.469109 143.793884,87.972321 
z"/>
<path fill="#552626" opacity="1.000000" stroke="none" 
	d="
M141.802246,93.107277 
	C141.926056,93.298050 141.764099,93.571220 141.343002,93.952316 
	C141.168854,93.747383 141.313049,93.457184 141.802246,93.107277 
z"/>
<path fill="#4C2224" opacity="1.000000" stroke="none" 
	d="
M170.778137,49.086075 
	C170.893265,49.299877 170.702713,49.566864 170.215363,49.897709 
	C170.182098,49.743790 170.366730,49.469688 170.778137,49.086075 
z"/>
<path fill="#491F21" opacity="1.000000" stroke="none" 
	d="
M330.851440,48.810890 
	C330.642792,48.924980 330.384735,48.740192 330.085999,48.249527 
	C330.290588,48.146500 330.542816,48.335953 330.851440,48.810890 
z"/>
<path fill="#4C2224" opacity="1.000000" stroke="none" 
	d="
M171.775085,48.084427 
	C171.892548,48.304577 171.698257,48.570473 171.198761,48.890533 
	C171.166397,48.733765 171.356308,48.462254 171.775085,48.084427 
z"/>
<path fill="#4C2224" opacity="1.000000" stroke="none" 
	d="
M172.778656,47.088234 
	C172.894562,47.308659 172.699234,47.572842 172.200180,47.890366 
	C172.168457,47.733543 172.358795,47.462975 172.778656,47.088234 
z"/>
<path fill="#D6BCAE" opacity="1.000000" stroke="none" 
	d="
M346.067322,230.985001 
	C346.040588,231.005020 346.053467,231.465912 346.277496,231.411774 
	C346.501526,231.357635 346.153595,231.447998 346.153595,231.447998 
	C346.153595,231.447998 345.856842,231.238647 345.977051,231.068451 
	C346.097290,230.898270 346.094055,230.964981 346.067322,230.985001 
z"/>
<path fill="#4C2224" opacity="1.000000" stroke="none" 
	d="
M174.796234,45.115234 
	C174.904922,45.325390 174.711411,45.587135 174.215576,45.900543 
	C174.107681,45.691017 174.301270,45.429222 174.796234,45.115234 
z"/>
<path fill="#491F21" opacity="1.000000" stroke="none" 
	d="
M326.884766,44.795189 
	C326.674194,44.905396 326.413177,44.714710 326.096130,44.227692 
	C326.310455,44.108707 326.575195,44.296356 326.884766,44.795189 
z"/>
<path fill="#4C2224" opacity="1.000000" stroke="none" 
	d="
M175.787628,44.103802 
	C175.902756,44.318211 175.712204,44.581532 175.221954,44.901237 
	C175.096954,44.683357 175.283493,44.415058 175.787628,44.103802 
z"/>
<path fill="#491F21" opacity="1.000000" stroke="none" 
	d="
M325.869751,43.804924 
	C325.677032,43.929653 325.409027,43.766582 325.041260,43.340382 
	C325.243195,43.176846 325.527527,43.323467 325.869751,43.804924 
z"/>
<path fill="#4C2224" opacity="1.000000" stroke="none" 
	d="
M176.791687,43.114990 
	C176.903183,43.331635 176.708771,43.590572 176.215240,43.900719 
	C176.093353,43.680676 176.283234,43.415794 176.791687,43.114990 
z"/>
<path fill="#50232C" opacity="1.000000" stroke="none" 
	d="
M323.991943,42.790459 
	C323.845093,42.818718 323.551147,42.629303 323.125122,42.210732 
	C323.277008,42.178642 323.560944,42.375713 323.991943,42.790459 
z"/>
<path fill="#491F21" opacity="1.000000" stroke="none" 
	d="
M331.856934,49.809700 
	C331.650238,49.921848 331.392059,49.737022 331.086304,49.252151 
	C331.291473,49.144600 331.547058,49.331470 331.856934,49.809700 
z"/>
<path fill="#4C2224" opacity="1.000000" stroke="none" 
	d="
M168.784180,51.101471 
	C168.813934,51.256733 168.620422,51.523636 168.200134,51.898308 
	C168.087341,51.681084 168.283188,51.416759 168.784180,51.101471 
z"/>
<path fill="#50232C" opacity="1.000000" stroke="none" 
	d="
M322.908081,41.782417 
	C322.693481,41.896832 322.428284,41.704494 322.109039,41.208267 
	C322.325989,41.088322 322.593506,41.278755 322.908081,41.782417 
z"/>
<path fill="#4C2224" opacity="1.000000" stroke="none" 
	d="
M178.795410,41.152420 
	C178.914017,41.363125 178.733185,41.616478 178.254150,41.914391 
	C178.137756,41.706173 178.317780,41.451550 178.795410,41.152420 
z"/>
<path fill="#4F2928" opacity="1.000000" stroke="none" 
	d="
M357.779053,230.083252 
	C357.887634,230.259186 357.731506,230.519180 357.339111,230.887695 
	C357.168640,230.690628 357.305817,230.414322 357.779053,230.083252 
z"/>
<path fill="#D3B8AA" opacity="1.000000" stroke="none" 
	d="
M151.389099,195.628754 
	C151.385605,185.568512 151.616623,175.172394 152.017929,164.413162 
	C152.438248,165.798523 152.960083,167.557587 152.892426,169.293671 
	C152.554489,177.963379 152.061829,186.627075 151.389099,195.628754 
z"/>
<path fill="#D6BCAE" opacity="1.000000" stroke="none" 
	d="
M260.446228,121.019806 
	C260.118958,114.369705 260.118958,107.723755 260.118958,101.077797 
	C260.428406,101.019058 260.737854,100.960320 261.047333,100.901588 
	C262.183563,108.354156 263.319824,115.806732 264.399506,123.658920 
	C263.153137,123.047012 261.963348,122.035477 260.446228,121.019806 
z"/>
<path fill="#D6BCAE" opacity="1.000000" stroke="none" 
	d="
M321.062683,144.830917 
	C328.740509,145.643204 336.537720,146.757477 344.351807,147.736649 
	C347.874268,148.178024 347.632904,150.817368 347.848633,153.630600 
	C345.100647,147.711929 339.446930,148.355743 334.040649,147.828430 
	C329.708527,147.405884 325.469360,146.030380 321.062683,144.830917 
z"/>
<path fill="#D3B8AA" opacity="1.000000" stroke="none" 
	d="
M152.796661,160.903412 
	C152.469238,160.901062 152.409866,160.735641 152.421951,160.575607 
	C153.406860,147.546341 153.407272,147.546371 167.684540,145.687820 
	C166.398788,146.509521 164.775162,147.673889 163.027267,147.907150 
	C158.040955,148.572556 154.695511,150.468918 154.619110,156.149902 
	C154.598434,157.687424 153.630981,159.212219 152.796661,160.903412 
z"/>
<path fill="#D6BCAE" opacity="1.000000" stroke="none" 
	d="
M264.645203,128.266418 
	C266.192749,132.017212 266.403015,137.653717 269.170715,139.542252 
	C272.332733,141.699860 277.770386,140.522415 282.601807,140.921753 
	C278.089172,141.289139 273.188019,141.741486 268.303436,141.603897 
	C267.221710,141.573425 265.541687,139.590012 265.279144,138.277420 
	C264.641235,135.088593 264.674652,131.765488 264.645203,128.266418 
z"/>
<path fill="#D3B8AA" opacity="1.000000" stroke="none" 
	d="
M196.365448,142.345215 
	C204.065918,141.421112 212.093903,140.726273 220.582413,140.121552 
	C220.466568,140.740417 219.910904,141.703308 219.310699,141.731918 
	C211.775192,142.091309 204.233246,142.315613 196.365448,142.345215 
z"/>
<path fill="#E1C4B5" opacity="1.000000" stroke="none" 
	d="
M233.302704,109.982666 
	C233.577179,105.917725 234.276382,101.854958 235.420578,97.401268 
	C236.269379,97.013008 236.673172,97.015678 237.076981,97.018356 
	C236.915039,101.084534 236.753113,105.150719 236.433762,109.590744 
	C235.426712,109.971336 234.577072,109.978088 233.302704,109.982666 
z"/>
<path fill="#D3B8AA" opacity="1.000000" stroke="none" 
	d="
M154.379593,221.720428 
	C153.328430,216.543549 152.462051,211.141403 151.690430,205.334091 
	C152.711594,210.451004 153.637985,215.973083 154.379593,221.720428 
z"/>
<path fill="#D3B8AA" opacity="1.000000" stroke="none" 
	d="
M229.255829,129.790253 
	C229.903381,124.553696 230.862381,119.122833 232.014664,113.370354 
	C231.327728,118.564468 230.447495,124.080200 229.255829,129.790253 
z"/>
<path fill="#D6BCAE" opacity="1.000000" stroke="none" 
	d="
M237.064102,140.515335 
	C241.149841,140.211487 245.235565,139.907623 249.639709,139.843796 
	C247.261017,140.452988 244.563904,140.822128 241.183136,141.199097 
	C240.499481,141.206894 240.007019,141.252487 240.007019,141.252502 
	C239.252441,141.224701 238.497879,141.196915 237.374680,140.995300 
	C237.006058,140.821472 237.064102,140.515335 237.064102,140.515335 
z"/>
<path fill="#D3B8AA" opacity="1.000000" stroke="none" 
	d="
M223.287796,140.327057 
	C228.904739,139.852112 226.899673,134.602234 228.592636,131.258850 
	C230.606033,137.581055 228.808777,140.885727 223.287796,140.327057 
z"/>
<path fill="#D3B8AA" opacity="1.000000" stroke="none" 
	d="
M181.263489,144.133209 
	C185.043915,143.311111 189.107147,142.736969 193.604156,142.244263 
	C189.874054,143.010880 185.710159,143.696030 181.263489,144.133209 
z"/>
<path fill="#D6BCAE" opacity="1.000000" stroke="none" 
	d="
M350.222412,193.126404 
	C350.428925,196.046173 350.321381,199.147766 350.043884,202.608063 
	C349.885406,199.747253 349.896881,196.527740 350.222412,193.126404 
z"/>
<path fill="#D6BCAE" opacity="1.000000" stroke="none" 
	d="
M289.124908,141.748779 
	C292.047180,141.583496 295.142731,141.737991 298.613831,142.040253 
	C295.758972,142.148209 292.528564,142.108383 289.124908,141.748779 
z"/>
<path fill="#D6BCAE" opacity="1.000000" stroke="none" 
	d="
M350.240173,181.127274 
	C350.641571,183.688309 350.729523,186.424271 350.704620,189.604004 
	C350.370087,187.132599 350.148407,184.217392 350.240173,181.127274 
z"/>
<path fill="#D6BCAE" opacity="1.000000" stroke="none" 
	d="
M348.099304,216.090088 
	C347.996857,218.399216 347.604401,220.861969 347.021912,223.639130 
	C347.157715,221.383606 347.483521,218.813660 348.099304,216.090088 
z"/>
<path fill="#E1C4B5" opacity="1.000000" stroke="none" 
	d="
M235.333145,124.142761 
	C235.520569,128.027100 235.366776,132.073380 235.098969,136.557022 
	C234.987274,132.764481 234.989609,128.534607 235.333145,124.142761 
z"/>
<path fill="#D6BCAE" opacity="1.000000" stroke="none" 
	d="
M301.115845,142.718369 
	C303.386017,142.546005 305.818237,142.686691 308.605957,142.983368 
	C306.400269,143.103363 303.839111,143.067398 301.115845,142.718369 
z"/>
<path fill="#D6BCAE" opacity="1.000000" stroke="none" 
	d="
M311.081879,143.680237 
	C313.065186,143.534515 315.167175,143.673508 317.616516,143.972763 
	C315.709442,144.076996 313.454987,144.020981 311.081879,143.680237 
z"/>
<path fill="#D3B8AA" opacity="1.000000" stroke="none" 
	d="
M171.287323,145.432129 
	C172.807571,144.928574 174.545212,144.598389 176.670715,144.337372 
	C175.207291,144.806183 173.355988,145.205841 171.287323,145.432129 
z"/>
<path fill="#D6BCAE" opacity="1.000000" stroke="none" 
	d="
M349.672852,171.276978 
	C350.078308,172.475067 350.270935,173.916092 350.346313,175.710724 
	C349.972748,174.549515 349.716400,173.034714 349.672852,171.276978 
z"/>
<path fill="#D6BCAE" opacity="1.000000" stroke="none" 
	d="
M260.355011,137.662811 
	C260.068329,135.285034 260.002228,132.590973 260.028259,129.456406 
	C260.272156,131.792770 260.423889,134.569641 260.355011,137.662811 
z"/>
<path fill="#D3B8AA" opacity="1.000000" stroke="none" 
	d="
M151.815491,202.923523 
	C151.409180,201.967224 151.263885,200.868835 151.209732,199.360901 
	C151.559433,200.228058 151.817978,201.504761 151.815491,202.923523 
z"/>
<path fill="#E1C4B5" opacity="1.000000" stroke="none" 
	d="
M235.908295,112.251190 
	C236.170349,114.038330 236.160477,116.088615 236.032593,118.563370 
	C235.821838,116.829994 235.729111,114.672165 235.908295,112.251190 
z"/>
<path fill="#D6BCAE" opacity="1.000000" stroke="none" 
	d="
M349.106720,209.051468 
	C349.315125,209.768951 349.275269,210.602386 349.067627,211.707123 
	C348.886017,211.041443 348.872253,210.104416 349.106720,209.051468 
z"/>
<path fill="#D6BCAE" opacity="1.000000" stroke="none" 
	d="
M349.244141,166.061859 
	C349.637512,166.720459 349.770508,167.488113 349.824463,168.641235 
	C349.491516,168.074768 349.237640,167.122849 349.244141,166.061859 
z"/>
<path fill="#D6BCAE" opacity="1.000000" stroke="none" 
	d="
M345.850647,227.109680 
	C346.063660,227.829361 345.970581,228.588028 345.713837,229.694611 
	C345.548279,229.077911 345.546387,228.113297 345.850647,227.109680 
z"/>
<path fill="#D6BCAE" opacity="1.000000" stroke="none" 
	d="
M348.638123,161.240967 
	C349.010254,161.856079 349.192566,162.655594 349.281921,163.753082 
	C348.942108,163.175842 348.695190,162.300613 348.638123,161.240967 
z"/>
<path fill="#E1C4B5" opacity="1.000000" stroke="none" 
	d="
M236.826691,140.237183 
	C237.064102,140.515335 237.006058,140.821472 236.997406,140.977966 
	C236.376343,140.826111 235.763901,140.517746 235.161896,139.918884 
	C235.644653,139.738602 236.116974,139.848816 236.826691,140.237183 
z"/>
<path fill="#D3B8AA" opacity="1.000000" stroke="none" 
	d="
M155.355377,226.791260 
	C154.996613,226.445007 154.801758,225.947906 154.669922,225.186005 
	C154.995041,225.494263 155.257172,226.067322 155.355377,226.791260 
z"/>
<path fill="#E1C4B5" opacity="1.000000" stroke="none" 
	d="
M240.119476,141.338623 
	C240.007019,141.252487 240.499481,141.206894 240.745605,141.224167 
	C240.991714,141.241440 240.637024,141.460846 240.637024,141.460846 
	C240.637024,141.460846 240.231918,141.424774 240.119476,141.338623 
z"/>
<path fill="#D6BCAE" opacity="1.000000" stroke="none" 
	d="
M237.174316,96.704514 
	C236.673172,97.015678 236.269379,97.013008 235.562592,97.015533 
	C235.468369,95.678337 235.677124,94.335945 235.885864,92.993553 
	C236.269653,93.011078 236.653427,93.028610 237.037201,93.046143 
	C237.115356,94.160988 237.193512,95.275833 237.174316,96.704514 
z"/>
</svg>